%TF.GenerationSoftware,KiCad,Pcbnew,8.0.2*%
%TF.CreationDate,2025-04-19T09:34:17+08:00*%
%TF.ProjectId,ternel_handel,7465726e-656c-45f6-9861-6e64656c2e6b,rev?*%
%TF.SameCoordinates,PX5636500PY71de640*%
%TF.FileFunction,Soldermask,Bot*%
%TF.FilePolarity,Negative*%
%FSLAX46Y46*%
G04 Gerber Fmt 4.6, Leading zero omitted, Abs format (unit mm)*
G04 Created by KiCad (PCBNEW 8.0.2) date 2025-04-19 09:34:17*
%MOMM*%
%LPD*%
G01*
G04 APERTURE LIST*
%ADD10R,2.000000X1.400000*%
%ADD11C,1.800000*%
%ADD12C,2.500000*%
%ADD13C,2.200000*%
G04 APERTURE END LIST*
D10*
%TO.C,SW3*%
X46616000Y24356068D03*
X46616000Y20656068D03*
X46616000Y17856068D03*
X35154000Y17856068D03*
X35154000Y20656068D03*
X35154000Y24356068D03*
%TD*%
D11*
%TO.C,SW1*%
X87706500Y32390000D03*
X87706500Y23790000D03*
X90206500Y19360000D03*
X87706500Y19360000D03*
X85206500Y19360000D03*
X78976500Y25590000D03*
X78976500Y28089000D03*
X78976500Y30590000D03*
D12*
X82706500Y34414000D03*
X92706500Y34414000D03*
X92706500Y21764000D03*
X82706500Y21764000D03*
D13*
X93498500Y31609000D03*
X97998500Y31609000D03*
X93498500Y24609000D03*
X97998500Y24609000D03*
%TD*%
D10*
%TO.C,SW4*%
X23776000Y29556068D03*
X23776000Y25856068D03*
X23776000Y23056068D03*
X12314000Y23056068D03*
X12314000Y25856068D03*
X12314000Y29556068D03*
%TD*%
D11*
%TO.C,SW2*%
X66870000Y25400000D03*
X58270000Y25400000D03*
X53840000Y22900000D03*
X53840000Y25400000D03*
X53840000Y27900000D03*
X60070000Y34130000D03*
X62569000Y34130000D03*
X65070000Y34130000D03*
D12*
X68894000Y30400000D03*
X68894000Y20400000D03*
X56244000Y20400000D03*
X56244000Y30400000D03*
D13*
X66089000Y19608000D03*
X66089000Y15108000D03*
X59089000Y19608000D03*
X59089000Y15108000D03*
%TD*%
M02*
