%TF.GenerationSoftware,KiCad,Pcbnew,8.0.2*%
%TF.CreationDate,2025-04-19T09:34:17+08:00*%
%TF.ProjectId,ternel_handel,7465726e-656c-45f6-9861-6e64656c2e6b,rev?*%
%TF.SameCoordinates,PX5636500PY71de640*%
%TF.FileFunction,Copper,L2,Bot*%
%TF.FilePolarity,Positive*%
%FSLAX46Y46*%
G04 Gerber Fmt 4.6, Leading zero omitted, Abs format (unit mm)*
G04 Created by KiCad (PCBNEW 8.0.2) date 2025-04-19 09:34:17*
%MOMM*%
%LPD*%
G01*
G04 APERTURE LIST*
%TA.AperFunction,SMDPad,CuDef*%
%ADD10R,2.000000X1.400000*%
%TD*%
%TA.AperFunction,ComponentPad*%
%ADD11C,1.800000*%
%TD*%
%TA.AperFunction,ComponentPad*%
%ADD12C,2.500000*%
%TD*%
%TA.AperFunction,ComponentPad*%
%ADD13C,2.200000*%
%TD*%
%TA.AperFunction,ViaPad*%
%ADD14C,0.600000*%
%TD*%
%TA.AperFunction,Conductor*%
%ADD15C,0.300000*%
%TD*%
G04 APERTURE END LIST*
D10*
%TO.P,SW3,1,1*%
%TO.N,/MID-HAND*%
X46616000Y24356068D03*
%TO.P,SW3,2,2*%
%TO.N,/MID-LEFT*%
X46616000Y20656068D03*
%TO.P,SW3,3,3*%
%TO.N,/MID-FORW*%
X46616000Y17856068D03*
%TO.P,SW3,4,4*%
%TO.N,GND*%
X35154000Y17856068D03*
%TO.P,SW3,5,5*%
%TO.N,/MID-RIGHT*%
X35154000Y20656068D03*
%TO.P,SW3,6,6*%
%TO.N,/MID-KEY*%
X35154000Y24356068D03*
%TD*%
D11*
%TO.P,SW1,1,B*%
%TO.N,GND*%
X90206500Y19360000D03*
%TO.P,SW1,2,DTA*%
%TO.N,/TDC-RV1*%
X87706500Y19360000D03*
%TO.P,SW1,3,A*%
%TO.N,+3V3*%
X85206500Y19360000D03*
%TO.P,SW1,4,A*%
X78976500Y25590000D03*
%TO.P,SW1,5,DTA*%
%TO.N,/TDC-RV2*%
X78976500Y28089000D03*
%TO.P,SW1,6,B*%
%TO.N,GND*%
X78976500Y30590000D03*
D12*
%TO.P,SW1,7,GND*%
X82706500Y34414000D03*
%TO.P,SW1,8,GND*%
X92706500Y34414000D03*
%TO.P,SW1,9,GND*%
X92706500Y21764000D03*
%TO.P,SW1,10,GND*%
X82706500Y21764000D03*
D13*
%TO.P,SW1,a,a*%
%TO.N,unconnected-(SW1-Pada)*%
X93498500Y31609000D03*
%TO.P,SW1,b,b*%
%TO.N,GND*%
X97998500Y31609000D03*
%TO.P,SW1,c,c*%
%TO.N,/TDC-KEY1*%
X93498500Y24609000D03*
%TO.P,SW1,d,d*%
%TO.N,unconnected-(SW1-Padd)*%
X97998500Y24609000D03*
%TD*%
D10*
%TO.P,SW4,1,1*%
%TO.N,/MAD-HAND*%
X23776000Y29556068D03*
%TO.P,SW4,2,2*%
%TO.N,/MAD-LEFT*%
X23776000Y25856068D03*
%TO.P,SW4,3,3*%
%TO.N,/MAD-FORW*%
X23776000Y23056068D03*
%TO.P,SW4,4,4*%
%TO.N,GND*%
X12314000Y23056068D03*
%TO.P,SW4,5,5*%
%TO.N,/MAD-RIGHT*%
X12314000Y25856068D03*
%TO.P,SW4,6,6*%
%TO.N,/MAD-KEY*%
X12314000Y29556068D03*
%TD*%
D11*
%TO.P,SW2,1,B*%
%TO.N,GND*%
X53840000Y22900000D03*
%TO.P,SW2,2,DTA*%
%TO.N,/ROW-RV1*%
X53840000Y25400000D03*
%TO.P,SW2,3,A*%
%TO.N,+3V3*%
X53840000Y27900000D03*
%TO.P,SW2,4,A*%
%TO.N,unconnected-(SW2A-A-Pad4)*%
X60070000Y34130000D03*
%TO.P,SW2,5,DTA*%
%TO.N,unconnected-(SW2A-DTA-Pad5)*%
X62569000Y34130000D03*
%TO.P,SW2,6,B*%
%TO.N,GND*%
X65070000Y34130000D03*
D12*
%TO.P,SW2,7,GND*%
X68894000Y30400000D03*
%TO.P,SW2,8,GND*%
X68894000Y20400000D03*
%TO.P,SW2,9,GND*%
X56244000Y20400000D03*
%TO.P,SW2,10,GND*%
X56244000Y30400000D03*
D13*
%TO.P,SW2,a,a*%
%TO.N,unconnected-(SW2-Pada)*%
X66089000Y19608000D03*
%TO.P,SW2,b,b*%
%TO.N,GND*%
X66089000Y15108000D03*
%TO.P,SW2,c,c*%
%TO.N,/ROW-KEY1*%
X59089000Y19608000D03*
%TO.P,SW2,d,d*%
%TO.N,unconnected-(SW2-Padd)*%
X59089000Y15108000D03*
%TD*%
D14*
%TO.N,+3V3*%
X48400000Y27800000D03*
X17309900Y34379900D03*
%TO.N,GND*%
X37850000Y20150000D03*
X29350000Y30150000D03*
X61600000Y29900000D03*
X94600000Y39400000D03*
X92600000Y37400000D03*
X28600000Y11400000D03*
X5600000Y13400000D03*
X5600000Y25400000D03*
X6850000Y39400000D03*
X38600000Y19150000D03*
X95600000Y15400000D03*
X5600000Y19400000D03*
X88600000Y30400000D03*
X6600000Y12400000D03*
X55600000Y17400000D03*
X3600000Y19400000D03*
X72600000Y16400000D03*
X6600000Y14400000D03*
X59600000Y36400000D03*
X61600000Y31900000D03*
X9300000Y20920000D03*
X94600000Y27400000D03*
X39100000Y20150000D03*
X63350000Y36400000D03*
X73600000Y15400000D03*
X33350000Y29650000D03*
X9300000Y23350000D03*
X94600000Y37400000D03*
X54600000Y16400000D03*
X5600000Y23400000D03*
X53600000Y15400000D03*
X5600000Y21400000D03*
X44100000Y19650000D03*
X4600000Y14400000D03*
X33100000Y17650000D03*
X45100000Y33150000D03*
X8850000Y37400000D03*
X4600000Y12400000D03*
X8850000Y39400000D03*
X96600000Y29400000D03*
X7850000Y38400000D03*
X44600000Y26900000D03*
X86600000Y30400000D03*
X86600000Y28400000D03*
X3600000Y21400000D03*
X36850000Y17650000D03*
X30600000Y11400000D03*
X96600000Y14400000D03*
X29600000Y12400000D03*
X4600000Y22400000D03*
X92600000Y39400000D03*
X44600000Y29400000D03*
X31850000Y24900000D03*
X61350000Y36400000D03*
X72600000Y14400000D03*
X28600000Y13400000D03*
X74600000Y14400000D03*
X4600000Y20400000D03*
X62600000Y30900000D03*
X94600000Y29400000D03*
X9300000Y25780000D03*
X55600000Y15400000D03*
X9300000Y24565000D03*
X87600000Y29400000D03*
X63600000Y31900000D03*
X96600000Y27400000D03*
X32350000Y18650000D03*
X3600000Y23400000D03*
X88600000Y28400000D03*
X6850000Y37400000D03*
X97600000Y15400000D03*
X32600000Y26400000D03*
X95600000Y13400000D03*
X74600000Y16400000D03*
X53600000Y17400000D03*
X95600000Y28400000D03*
X30600000Y24150000D03*
X45600000Y35650000D03*
X63600000Y29900000D03*
X93600000Y38400000D03*
X9300000Y22135000D03*
X4600000Y24400000D03*
X97600000Y13400000D03*
%TO.N,/TDC-KEY1*%
X24400000Y34800000D03*
X81416116Y38616116D03*
%TO.N,/ROW-KEY1*%
X65016865Y23900000D03*
X27600000Y34600000D03*
%TO.N,/PINKEY-FOWORD*%
X58600000Y32600000D03*
X38290000Y12910000D03*
%TO.N,/PINKEYKEY-AHEAD*%
X40290000Y19900000D03*
X33026101Y28100000D03*
%TO.N,/PINKEYKEY-FOWORD*%
X42290000Y19900000D03*
X32400000Y28800000D03*
%TO.N,/MID-HAND*%
X18274148Y23243551D03*
%TO.N,/MID-LEFT*%
X20274148Y23243551D03*
%TO.N,/MID-FORW*%
X22200000Y23400000D03*
%TO.N,/MID-RIGHT*%
X24274148Y21756449D03*
%TO.N,/MID-KEY*%
X26274148Y23243551D03*
%TO.N,/MAD-HAND*%
X28156469Y23383760D03*
%TO.N,/MAD-LEFT*%
X18600000Y17400000D03*
%TO.N,/MAD-FORW*%
X16600000Y17400000D03*
%TO.N,/MAD-RIGHT*%
X14517942Y17280735D03*
%TO.N,/MAD-KEY*%
X12517942Y17280735D03*
%TO.N,/TDC-RV1*%
X20400000Y34800000D03*
%TO.N,/TDC-RV2*%
X22400000Y34800000D03*
%TO.N,/ROW-RV1*%
X26400000Y34800000D03*
%TD*%
D15*
%TO.N,+3V3*%
X28216546Y33900000D02*
X17789800Y33900000D01*
X31388401Y30728145D02*
X28216546Y33900000D01*
X48400000Y27800000D02*
X45471855Y30728145D01*
X17789800Y33900000D02*
X17309900Y34379900D01*
X45471855Y30728145D02*
X31388401Y30728145D01*
%TO.N,/TDC-KEY1*%
X42971855Y38771855D02*
X36578145Y32378145D01*
X36578145Y32378145D02*
X32071855Y32378145D01*
X81416116Y38616116D02*
X81260377Y38771855D01*
X25050000Y36850000D02*
X24400000Y36200000D01*
X81260377Y38771855D02*
X42971855Y38771855D01*
X27600000Y36850000D02*
X25050000Y36850000D01*
X24400000Y36200000D02*
X24400000Y34800000D01*
X32071855Y32378145D02*
X27600000Y36850000D01*
%TO.N,/ROW-KEY1*%
X68572182Y23750000D02*
X65166865Y23750000D01*
X37055963Y31278145D02*
X37378145Y31600328D01*
X43449672Y37671855D02*
X69550326Y37671855D01*
X69550326Y37671855D02*
X73650000Y33572181D01*
X31616219Y31278145D02*
X37055963Y31278145D01*
X73650000Y33572181D02*
X73650000Y28827818D01*
X28294364Y34600000D02*
X31616219Y31278145D01*
X65166865Y23750000D02*
X65016865Y23900000D01*
X73650000Y28827818D02*
X68572182Y23750000D01*
X37378145Y31600328D02*
X43449672Y37671855D01*
X27600000Y34600000D02*
X28294364Y34600000D01*
%TO.N,/PINKEY-FOWORD*%
X49500000Y16544364D02*
X49500000Y28900000D01*
X38290000Y12910000D02*
X38290000Y13490000D01*
X38290000Y13490000D02*
X39500000Y14700000D01*
X58050000Y33150000D02*
X58600000Y32600000D01*
X39500000Y14700000D02*
X47655636Y14700000D01*
X49500000Y28900000D02*
X53750000Y33150000D01*
X53750000Y33150000D02*
X58050000Y33150000D01*
X47655636Y14700000D02*
X49500000Y16544364D01*
%TO.N,/PINKEYKEY-AHEAD*%
X41740000Y21350000D02*
X40290000Y19900000D01*
X33026101Y28100000D02*
X40872182Y28100000D01*
X41740000Y27232182D02*
X41740000Y21350000D01*
X40872182Y28100000D02*
X41740000Y27232182D01*
%TO.N,/PINKEYKEY-FOWORD*%
X32400000Y28800000D02*
X40950000Y28800000D01*
X40950000Y28800000D02*
X42290000Y27460000D01*
X42290000Y27460000D02*
X42290000Y19900000D01*
%TO.N,/MID-HAND*%
X32572182Y15250000D02*
X47427818Y15250000D01*
X28816114Y19006068D02*
X32572182Y15250000D01*
X47427818Y15250000D02*
X48950000Y16772182D01*
X48950000Y16772182D02*
X48950000Y22022068D01*
X18274148Y23243551D02*
X22511631Y19006068D01*
X48950000Y22022068D02*
X46616000Y24356068D01*
X22511631Y19006068D02*
X28816114Y19006068D01*
%TO.N,/MID-LEFT*%
X47743932Y20656068D02*
X46616000Y20656068D01*
X20310699Y23243551D02*
X23998182Y19556068D01*
X23998182Y19556068D02*
X29043932Y19556068D01*
X48400000Y17000000D02*
X48400000Y20000000D01*
X48400000Y20000000D02*
X47743932Y20656068D01*
X29043932Y19556068D02*
X32800000Y15800000D01*
X20274148Y23243551D02*
X20310699Y23243551D01*
X32800000Y15800000D02*
X47200000Y15800000D01*
X47200000Y15800000D02*
X48400000Y17000000D01*
%TO.N,/MID-FORW*%
X33204000Y20106068D02*
X34110068Y19200000D01*
X24226000Y20106068D02*
X33204000Y20106068D01*
X37893932Y17856068D02*
X46616000Y17856068D01*
X22200000Y22132068D02*
X24226000Y20106068D01*
X22200000Y23400000D02*
X22200000Y22132068D01*
X36550000Y19200000D02*
X37893932Y17856068D01*
X34110068Y19200000D02*
X36550000Y19200000D01*
%TO.N,/MID-RIGHT*%
X25374529Y20656068D02*
X35154000Y20656068D01*
X24274148Y21756449D02*
X25374529Y20656068D01*
%TO.N,/MID-KEY*%
X35154000Y23354000D02*
X35154000Y24356068D01*
X33006068Y21206068D02*
X35154000Y23354000D01*
X28311631Y21206068D02*
X33006068Y21206068D01*
X26274148Y23243551D02*
X28311631Y21206068D01*
%TO.N,/MAD-HAND*%
X28156469Y27243531D02*
X25843932Y29556068D01*
X25843932Y29556068D02*
X23776000Y29556068D01*
X28156469Y23383760D02*
X28156469Y27243531D01*
%TO.N,/MAD-LEFT*%
X16250000Y22172182D02*
X16250000Y23427818D01*
X18678250Y25856068D02*
X23776000Y25856068D01*
X16250000Y23427818D02*
X18678250Y25856068D01*
X18600000Y17400000D02*
X18600000Y19822182D01*
X18600000Y19822182D02*
X16250000Y22172182D01*
%TO.N,/MAD-FORW*%
X16800000Y23200000D02*
X17700000Y24100000D01*
X16600000Y17400000D02*
X17600000Y16400000D01*
X20000000Y17200000D02*
X20000000Y19200000D01*
X17700000Y24100000D02*
X22732068Y24100000D01*
X19200000Y16400000D02*
X20000000Y17200000D01*
X22732068Y24100000D02*
X23776000Y23056068D01*
X20000000Y19200000D02*
X16800000Y22400000D01*
X17600000Y16400000D02*
X19200000Y16400000D01*
X16800000Y22400000D02*
X16800000Y23200000D01*
%TO.N,/MAD-RIGHT*%
X14517942Y17280735D02*
X14517942Y24382058D01*
X13043932Y25856068D02*
X12314000Y25856068D01*
X14517942Y24382058D02*
X13043932Y25856068D01*
%TO.N,/MAD-KEY*%
X12314000Y29556068D02*
X10600000Y27842068D01*
X10600000Y19198677D02*
X12517942Y17280735D01*
X10600000Y27842068D02*
X10600000Y19198677D01*
%TO.N,/TDC-RV1*%
X85400000Y21666500D02*
X87706500Y19360000D01*
X28750000Y37950000D02*
X30671855Y39871855D01*
X30671855Y39871855D02*
X81928145Y39871855D01*
X85400000Y36400000D02*
X85400000Y21666500D01*
X20400000Y34800000D02*
X23550000Y37950000D01*
X23550000Y37950000D02*
X28750000Y37950000D01*
X81928145Y39871855D02*
X85400000Y36400000D01*
%TO.N,/TDC-RV2*%
X22400000Y36022182D02*
X23777818Y37400000D01*
X84850000Y30650000D02*
X82289000Y28089000D01*
X36328145Y32928145D02*
X42721855Y39321855D01*
X23777818Y37400000D02*
X27827818Y37400000D01*
X22400000Y34800000D02*
X22400000Y36022182D01*
X82289000Y28089000D02*
X78976500Y28089000D01*
X27827818Y37400000D02*
X32299673Y32928145D01*
X42721855Y39321855D02*
X81700327Y39321855D01*
X32299673Y32928145D02*
X36328145Y32928145D01*
X84850000Y36172182D02*
X84850000Y30650000D01*
X81700327Y39321855D02*
X84850000Y36172182D01*
%TO.N,/ROW-RV1*%
X43199673Y38221855D02*
X69778145Y38221855D01*
X74200000Y33800000D02*
X74200000Y28600000D01*
X68800000Y23200000D02*
X56040000Y23200000D01*
X36828145Y31828145D02*
X42200000Y37200000D01*
X31844037Y31828145D02*
X36828145Y31828145D01*
X26400000Y34800000D02*
X27000000Y35400000D01*
X42200000Y37222182D02*
X43199673Y38221855D01*
X56040000Y23200000D02*
X53840000Y25400000D01*
X27000000Y35400000D02*
X28272182Y35400000D01*
X69778145Y38221855D02*
X74200000Y33800000D01*
X42200000Y37200000D02*
X42200000Y37222182D01*
X28272182Y35400000D02*
X31844037Y31828145D01*
X74200000Y28600000D02*
X68800000Y23200000D01*
%TD*%
%TA.AperFunction,Conductor*%
%TO.N,GND*%
G36*
X29797232Y40129816D02*
G01*
X29842987Y40077012D01*
X29852931Y40007854D01*
X29823906Y39944298D01*
X29817874Y39937820D01*
X28516873Y38636819D01*
X28455550Y38603334D01*
X28429192Y38600500D01*
X23485929Y38600500D01*
X23360261Y38575503D01*
X23360255Y38575501D01*
X23265209Y38536131D01*
X23241877Y38526467D01*
X23241869Y38526463D01*
X23135326Y38455274D01*
X20435143Y35755091D01*
X20410049Y35735726D01*
X20057643Y35529683D01*
X20051313Y35526315D01*
X20045346Y35522566D01*
X20042003Y35520539D01*
X20038825Y35518681D01*
X20022717Y35508855D01*
X20020932Y35507557D01*
X20014015Y35502879D01*
X19897739Y35429818D01*
X19770184Y35302263D01*
X19674211Y35149524D01*
X19614631Y34979255D01*
X19614630Y34979250D01*
X19594435Y34800004D01*
X19594435Y34799998D01*
X19607011Y34688384D01*
X19594957Y34619562D01*
X19547608Y34568182D01*
X19483791Y34550500D01*
X18211142Y34550500D01*
X18144103Y34570185D01*
X18104096Y34611913D01*
X18102559Y34614541D01*
X18039594Y34722234D01*
X18036220Y34728577D01*
X18032461Y34734558D01*
X18030417Y34737929D01*
X18028583Y34741067D01*
X18018784Y34757133D01*
X18018780Y34757138D01*
X18018775Y34757146D01*
X18017490Y34758915D01*
X18012808Y34765836D01*
X17966013Y34840310D01*
X17939716Y34882162D01*
X17812162Y35009716D01*
X17743564Y35052819D01*
X17659423Y35105689D01*
X17489154Y35165269D01*
X17489149Y35165270D01*
X17309904Y35185465D01*
X17309896Y35185465D01*
X17130650Y35165270D01*
X17130645Y35165269D01*
X16960376Y35105689D01*
X16807637Y35009716D01*
X16680084Y34882163D01*
X16584111Y34729424D01*
X16524531Y34559155D01*
X16524530Y34559150D01*
X16504335Y34379904D01*
X16504335Y34379897D01*
X16524530Y34200651D01*
X16524531Y34200646D01*
X16584111Y34030377D01*
X16665280Y33901198D01*
X16680084Y33877638D01*
X16807638Y33750084D01*
X16942932Y33665074D01*
X16947031Y33662383D01*
X16948736Y33661215D01*
X16951836Y33659403D01*
X16955220Y33657353D01*
X16960378Y33654111D01*
X16960379Y33654111D01*
X16961219Y33653583D01*
X16967558Y33650211D01*
X17319949Y33444177D01*
X17345038Y33424816D01*
X17375131Y33394723D01*
X17457414Y33339744D01*
X17457415Y33339743D01*
X17457414Y33339743D01*
X17481671Y33323536D01*
X17481672Y33323536D01*
X17481673Y33323535D01*
X17600056Y33274499D01*
X17600060Y33274499D01*
X17600061Y33274498D01*
X17725728Y33249500D01*
X17725731Y33249500D01*
X27895738Y33249500D01*
X27962777Y33229815D01*
X27983419Y33213181D01*
X30973725Y30222874D01*
X30973728Y30222871D01*
X31040085Y30178533D01*
X31080267Y30151684D01*
X31080273Y30151681D01*
X31080274Y30151680D01*
X31198657Y30102644D01*
X31198661Y30102644D01*
X31198662Y30102643D01*
X31324329Y30077645D01*
X31324332Y30077645D01*
X45151047Y30077645D01*
X45218086Y30057960D01*
X45238728Y30041326D01*
X47444911Y27835143D01*
X47464276Y27810049D01*
X47670307Y27457662D01*
X47673680Y27451322D01*
X47677434Y27445349D01*
X47679489Y27441958D01*
X47681305Y27438852D01*
X47691117Y27422764D01*
X47692404Y27420993D01*
X47697083Y27414076D01*
X47759569Y27314631D01*
X47770184Y27297738D01*
X47897738Y27170184D01*
X48050478Y27074211D01*
X48157241Y27036853D01*
X48220745Y27014632D01*
X48220750Y27014631D01*
X48399996Y26994435D01*
X48400000Y26994435D01*
X48400004Y26994435D01*
X48579249Y27014631D01*
X48579251Y27014632D01*
X48579255Y27014632D01*
X48579258Y27014634D01*
X48579262Y27014634D01*
X48684545Y27051474D01*
X48754324Y27055036D01*
X48814951Y27020308D01*
X48847179Y26958314D01*
X48849500Y26934433D01*
X48849500Y23341876D01*
X48829815Y23274837D01*
X48777011Y23229082D01*
X48707853Y23219138D01*
X48644297Y23248163D01*
X48637819Y23254195D01*
X48394030Y23497984D01*
X48362275Y23552336D01*
X48167558Y24250159D01*
X48121062Y24416790D01*
X48116499Y24450117D01*
X48116499Y25103939D01*
X48116498Y25103945D01*
X48116497Y25103952D01*
X48110091Y25163551D01*
X48108172Y25168695D01*
X48059797Y25298397D01*
X48059793Y25298404D01*
X47973547Y25413613D01*
X47973544Y25413616D01*
X47858335Y25499862D01*
X47858328Y25499866D01*
X47723482Y25550160D01*
X47723483Y25550160D01*
X47663883Y25556567D01*
X47663881Y25556568D01*
X47663873Y25556568D01*
X47663864Y25556568D01*
X45568129Y25556568D01*
X45568123Y25556567D01*
X45508516Y25550160D01*
X45373671Y25499866D01*
X45373664Y25499862D01*
X45258455Y25413616D01*
X45258452Y25413613D01*
X45172206Y25298404D01*
X45172202Y25298397D01*
X45121908Y25163551D01*
X45118365Y25130591D01*
X45115501Y25103945D01*
X45115500Y25103933D01*
X45115500Y23608198D01*
X45115501Y23608192D01*
X45121908Y23548585D01*
X45172202Y23413740D01*
X45172206Y23413733D01*
X45258452Y23298524D01*
X45258455Y23298521D01*
X45373664Y23212275D01*
X45373671Y23212271D01*
X45394493Y23204505D01*
X45508517Y23161977D01*
X45568127Y23155568D01*
X46183343Y23155569D01*
X46232892Y23145239D01*
X47406167Y22633812D01*
X47444298Y22607824D01*
X48263181Y21788941D01*
X48296666Y21727618D01*
X48299500Y21701260D01*
X48299500Y21643015D01*
X48279815Y21575976D01*
X48227011Y21530221D01*
X48157853Y21520277D01*
X48094297Y21549302D01*
X48065183Y21591235D01*
X48064047Y21590614D01*
X48059793Y21598404D01*
X47973547Y21713613D01*
X47973544Y21713616D01*
X47858335Y21799862D01*
X47858328Y21799866D01*
X47723482Y21850160D01*
X47723483Y21850160D01*
X47663883Y21856567D01*
X47663881Y21856568D01*
X47663873Y21856568D01*
X47663864Y21856568D01*
X45568129Y21856568D01*
X45568123Y21856567D01*
X45508516Y21850160D01*
X45373671Y21799866D01*
X45373664Y21799862D01*
X45258455Y21713616D01*
X45258452Y21713613D01*
X45172206Y21598404D01*
X45172202Y21598397D01*
X45121908Y21463551D01*
X45116199Y21410447D01*
X45115501Y21403945D01*
X45115500Y21403933D01*
X45115500Y19908198D01*
X45115501Y19908192D01*
X45121908Y19848585D01*
X45172202Y19713740D01*
X45172206Y19713733D01*
X45258452Y19598524D01*
X45258455Y19598521D01*
X45373664Y19512275D01*
X45373671Y19512271D01*
X45508517Y19461977D01*
X45508516Y19461977D01*
X45515444Y19461233D01*
X45568127Y19455568D01*
X47598441Y19455569D01*
X47612971Y19454715D01*
X47614439Y19454542D01*
X47625905Y19453189D01*
X47625917Y19453190D01*
X47630319Y19452986D01*
X47630226Y19450983D01*
X47689788Y19435173D01*
X47736908Y19383584D01*
X47749500Y19329140D01*
X47749500Y19180568D01*
X47729815Y19113529D01*
X47677011Y19067774D01*
X47625500Y19056568D01*
X45646606Y19056568D01*
X45627448Y19058057D01*
X45625220Y19058406D01*
X45624065Y19058586D01*
X45624064Y19058586D01*
X45616682Y19057619D01*
X45600580Y19056568D01*
X45568131Y19056568D01*
X45568123Y19056567D01*
X45508519Y19050160D01*
X45508516Y19050159D01*
X45484419Y19041172D01*
X45474562Y19037959D01*
X45472796Y19037464D01*
X45421504Y19020080D01*
X45421497Y19020077D01*
X45418781Y19018510D01*
X45400191Y19009758D01*
X45373670Y18999865D01*
X45336685Y18972178D01*
X45324328Y18964031D01*
X45296868Y18948194D01*
X44768525Y18533065D01*
X44703649Y18507124D01*
X44691915Y18506568D01*
X38214740Y18506568D01*
X38147701Y18526253D01*
X38127059Y18542887D01*
X36964674Y19705273D01*
X36964673Y19705274D01*
X36952281Y19713554D01*
X36858127Y19776465D01*
X36739744Y19825501D01*
X36739743Y19825502D01*
X36734116Y19827832D01*
X36734872Y19829659D01*
X36684048Y19862982D01*
X36655605Y19926801D01*
X36654499Y19943311D01*
X36654499Y21403940D01*
X36648091Y21463551D01*
X36643163Y21476763D01*
X36597797Y21598397D01*
X36597793Y21598404D01*
X36511547Y21713613D01*
X36511544Y21713616D01*
X36396335Y21799862D01*
X36396328Y21799866D01*
X36261482Y21850160D01*
X36261483Y21850160D01*
X36201883Y21856567D01*
X36201881Y21856568D01*
X36201873Y21856568D01*
X36201865Y21856568D01*
X34875875Y21856568D01*
X34808836Y21876253D01*
X34763081Y21929057D01*
X34753137Y21998215D01*
X34782162Y22061771D01*
X34788194Y22068249D01*
X35034493Y22314548D01*
X35300385Y22580441D01*
X35317216Y22594524D01*
X35331855Y22604713D01*
X35869127Y23106151D01*
X35886345Y23122221D01*
X35948786Y23153572D01*
X35970951Y23155569D01*
X36201871Y23155569D01*
X36201872Y23155569D01*
X36261483Y23161977D01*
X36396331Y23212272D01*
X36511546Y23298522D01*
X36597796Y23413737D01*
X36648091Y23548585D01*
X36654500Y23608195D01*
X36654499Y25103940D01*
X36648091Y25163551D01*
X36646172Y25168695D01*
X36597797Y25298397D01*
X36597793Y25298404D01*
X36511547Y25413613D01*
X36511544Y25413616D01*
X36396335Y25499862D01*
X36396328Y25499866D01*
X36261482Y25550160D01*
X36261483Y25550160D01*
X36201883Y25556567D01*
X36201881Y25556568D01*
X36201873Y25556568D01*
X36201864Y25556568D01*
X34106129Y25556568D01*
X34106123Y25556567D01*
X34046516Y25550160D01*
X33911671Y25499866D01*
X33911664Y25499862D01*
X33796455Y25413616D01*
X33796452Y25413613D01*
X33710206Y25298404D01*
X33710202Y25298397D01*
X33659908Y25163551D01*
X33656365Y25130591D01*
X33653501Y25103945D01*
X33653500Y25103933D01*
X33653500Y23608198D01*
X33653501Y23608192D01*
X33659908Y23548585D01*
X33710202Y23413740D01*
X33710206Y23413733D01*
X33796452Y23298524D01*
X33796455Y23298521D01*
X33900424Y23220689D01*
X33942295Y23164755D01*
X33947279Y23095064D01*
X33913794Y23033742D01*
X32772941Y21892887D01*
X32711618Y21859402D01*
X32685260Y21856568D01*
X28632439Y21856568D01*
X28565400Y21876253D01*
X28544758Y21892887D01*
X28071131Y22366514D01*
X28037646Y22427837D01*
X28042630Y22497529D01*
X28084502Y22553462D01*
X28149966Y22577879D01*
X28155386Y22578073D01*
X28335718Y22598391D01*
X28335721Y22598392D01*
X28335724Y22598392D01*
X28505991Y22657971D01*
X28658731Y22753944D01*
X28786285Y22881498D01*
X28882258Y23034238D01*
X28941837Y23204505D01*
X28942712Y23212272D01*
X28962034Y23383757D01*
X28962034Y23383764D01*
X28941838Y23563007D01*
X28941837Y23563014D01*
X28935840Y23580153D01*
X28926526Y23606770D01*
X28920366Y23633682D01*
X28920038Y23636563D01*
X28817207Y24028919D01*
X28811020Y24052525D01*
X28806969Y24083962D01*
X28806969Y27307603D01*
X28781971Y27433270D01*
X28781970Y27433271D01*
X28781970Y27433275D01*
X28732934Y27551658D01*
X28732933Y27551659D01*
X28732930Y27551665D01*
X28661746Y27658199D01*
X28651242Y27668703D01*
X28571138Y27748807D01*
X27999636Y28320309D01*
X27519942Y28800004D01*
X31594435Y28800004D01*
X31594435Y28799997D01*
X31614630Y28620751D01*
X31614631Y28620746D01*
X31674211Y28450477D01*
X31734781Y28354081D01*
X31770184Y28297738D01*
X31897738Y28170184D01*
X32050478Y28074211D01*
X32156998Y28036938D01*
X32213773Y27996218D01*
X32239263Y27933784D01*
X32240731Y27920750D01*
X32300311Y27750479D01*
X32374317Y27632700D01*
X32396285Y27597738D01*
X32523839Y27470184D01*
X32676579Y27374211D01*
X32784545Y27336432D01*
X32846846Y27314632D01*
X32846851Y27314631D01*
X33026097Y27294435D01*
X33026101Y27294435D01*
X33026105Y27294435D01*
X33205347Y27314631D01*
X33205346Y27314631D01*
X33205356Y27314632D01*
X33249115Y27329945D01*
X33276020Y27336103D01*
X33278902Y27336431D01*
X33694864Y27445450D01*
X33726301Y27449500D01*
X40551374Y27449500D01*
X40618413Y27429815D01*
X40639055Y27413181D01*
X41053181Y26999055D01*
X41086666Y26937732D01*
X41089500Y26911374D01*
X41089500Y21670809D01*
X41069815Y21603770D01*
X41053181Y21583128D01*
X40325144Y20855091D01*
X40300050Y20835726D01*
X39947643Y20629683D01*
X39941313Y20626315D01*
X39935346Y20622566D01*
X39932003Y20620539D01*
X39928825Y20618681D01*
X39912717Y20608855D01*
X39910932Y20607557D01*
X39904015Y20602879D01*
X39787739Y20529818D01*
X39660184Y20402263D01*
X39564211Y20249524D01*
X39504631Y20079255D01*
X39504630Y20079250D01*
X39484435Y19900004D01*
X39484435Y19899997D01*
X39504630Y19720751D01*
X39504631Y19720746D01*
X39564211Y19550477D01*
X39624383Y19454715D01*
X39660184Y19397738D01*
X39787738Y19270184D01*
X39940478Y19174211D01*
X40070555Y19128695D01*
X40110745Y19114632D01*
X40110750Y19114631D01*
X40289996Y19094435D01*
X40290000Y19094435D01*
X40290004Y19094435D01*
X40469249Y19114631D01*
X40469252Y19114632D01*
X40469255Y19114632D01*
X40639522Y19174211D01*
X40792262Y19270184D01*
X40919816Y19397738D01*
X41004845Y19533064D01*
X41007513Y19537126D01*
X41008671Y19538819D01*
X41008683Y19538833D01*
X41010528Y19541991D01*
X41012547Y19545322D01*
X41015789Y19550478D01*
X41015790Y19550482D01*
X41016321Y19551326D01*
X41019700Y19557678D01*
X41225727Y19910056D01*
X41245084Y19935140D01*
X41274569Y19964625D01*
X41335890Y19998108D01*
X41405582Y19993124D01*
X41461515Y19951252D01*
X41485468Y19890826D01*
X41504630Y19720750D01*
X41504631Y19720746D01*
X41564211Y19550477D01*
X41624383Y19454715D01*
X41660184Y19397738D01*
X41787738Y19270184D01*
X41940478Y19174211D01*
X42070555Y19128695D01*
X42110745Y19114632D01*
X42110750Y19114631D01*
X42289996Y19094435D01*
X42290000Y19094435D01*
X42290004Y19094435D01*
X42469249Y19114631D01*
X42469252Y19114632D01*
X42469255Y19114632D01*
X42639522Y19174211D01*
X42792262Y19270184D01*
X42919816Y19397738D01*
X43015789Y19550478D01*
X43075368Y19720745D01*
X43075369Y19720751D01*
X43095565Y19899997D01*
X43095565Y19900004D01*
X43075369Y20079247D01*
X43075368Y20079254D01*
X43064274Y20110959D01*
X43060057Y20123010D01*
X43053897Y20149922D01*
X43053569Y20152803D01*
X42953015Y20536470D01*
X42944551Y20568765D01*
X42940500Y20600202D01*
X42940500Y27524072D01*
X42915502Y27649739D01*
X42915501Y27649740D01*
X42915501Y27649744D01*
X42874468Y27748807D01*
X42866466Y27768125D01*
X42866461Y27768134D01*
X42795277Y27874668D01*
X42763805Y27906140D01*
X42704669Y27965276D01*
X42372207Y28297738D01*
X41364674Y29305273D01*
X41364673Y29305274D01*
X41364669Y29305277D01*
X41258127Y29376465D01*
X41256454Y29377158D01*
X41139745Y29425501D01*
X41138874Y29425674D01*
X41135344Y29426377D01*
X41135340Y29426379D01*
X41135340Y29426377D01*
X41014071Y29450500D01*
X41014069Y29450500D01*
X33100202Y29450500D01*
X33068765Y29454551D01*
X32652789Y29563574D01*
X32629552Y29569201D01*
X32629580Y29569318D01*
X32613670Y29573327D01*
X32579259Y29585367D01*
X32579248Y29585370D01*
X32400004Y29605565D01*
X32399996Y29605565D01*
X32220750Y29585370D01*
X32220745Y29585369D01*
X32050476Y29525789D01*
X31897737Y29429816D01*
X31770184Y29302263D01*
X31674211Y29149524D01*
X31614631Y28979255D01*
X31614630Y28979250D01*
X31594435Y28800004D01*
X27519942Y28800004D01*
X26258606Y30061341D01*
X26258605Y30061342D01*
X26258601Y30061345D01*
X26152059Y30132533D01*
X26148831Y30133870D01*
X26033676Y30181569D01*
X26033670Y30181571D01*
X25908003Y30206568D01*
X25908001Y30206568D01*
X25700085Y30206568D01*
X25633046Y30226253D01*
X25623475Y30233065D01*
X25095136Y30648189D01*
X25095134Y30648190D01*
X25095131Y30648192D01*
X25060189Y30669293D01*
X25049989Y30676166D01*
X25018335Y30699862D01*
X25018326Y30699867D01*
X25006002Y30704463D01*
X24991862Y30710768D01*
X24989190Y30712166D01*
X24983992Y30714490D01*
X24952722Y30727239D01*
X24952715Y30727241D01*
X24943318Y30729252D01*
X24925951Y30734320D01*
X24894447Y30746070D01*
X24883481Y30750160D01*
X24823883Y30756568D01*
X24822747Y30756628D01*
X24820885Y30756877D01*
X24820877Y30756754D01*
X24812028Y30757358D01*
X24812027Y30757358D01*
X24812025Y30757358D01*
X24812023Y30757358D01*
X24806094Y30756914D01*
X24796839Y30756568D01*
X22728129Y30756568D01*
X22728123Y30756567D01*
X22668516Y30750160D01*
X22533671Y30699866D01*
X22533664Y30699862D01*
X22418455Y30613616D01*
X22418452Y30613613D01*
X22332206Y30498404D01*
X22332202Y30498397D01*
X22281908Y30363551D01*
X22275501Y30303952D01*
X22275501Y30303945D01*
X22275500Y30303933D01*
X22275500Y28808198D01*
X22275501Y28808192D01*
X22281908Y28748585D01*
X22332202Y28613740D01*
X22332206Y28613733D01*
X22418452Y28498524D01*
X22418455Y28498521D01*
X22533664Y28412275D01*
X22533671Y28412271D01*
X22668517Y28361977D01*
X22668516Y28361977D01*
X22675444Y28361233D01*
X22728127Y28355568D01*
X24745428Y28355569D01*
X24764573Y28354082D01*
X24767974Y28353550D01*
X24775327Y28354515D01*
X24791462Y28355569D01*
X24823871Y28355569D01*
X24823872Y28355569D01*
X24883483Y28361977D01*
X24907573Y28370963D01*
X24917465Y28374187D01*
X24919254Y28374688D01*
X24970496Y28392058D01*
X24973184Y28393609D01*
X24991812Y28402382D01*
X25018331Y28412272D01*
X25055333Y28439973D01*
X25067682Y28448114D01*
X25095131Y28463945D01*
X25524377Y28801211D01*
X25589251Y28827151D01*
X25657852Y28813898D01*
X25688666Y28791388D01*
X27469650Y27010405D01*
X27503135Y26949082D01*
X27505969Y26922724D01*
X27505969Y24083964D01*
X27501918Y24052527D01*
X27392902Y23636579D01*
X27392202Y23633688D01*
X27389078Y23620784D01*
X27387269Y23613314D01*
X27387151Y23613343D01*
X27383143Y23597432D01*
X27371101Y23563015D01*
X27371099Y23563010D01*
X27355727Y23426576D01*
X27328660Y23362162D01*
X27271065Y23322607D01*
X27201228Y23320470D01*
X27141322Y23356428D01*
X27125461Y23377873D01*
X27113930Y23397595D01*
X27003837Y23585893D01*
X27000463Y23592235D01*
X26999937Y23593071D01*
X26999937Y23593073D01*
X26996701Y23598222D01*
X26994665Y23601580D01*
X26992831Y23604718D01*
X26983032Y23620784D01*
X26983028Y23620789D01*
X26983023Y23620797D01*
X26981738Y23622566D01*
X26977056Y23629487D01*
X26968397Y23643267D01*
X26903964Y23745813D01*
X26776410Y23873367D01*
X26755001Y23886819D01*
X26623671Y23969340D01*
X26453402Y24028920D01*
X26453397Y24028921D01*
X26274152Y24049116D01*
X26274144Y24049116D01*
X26094898Y24028921D01*
X26094893Y24028920D01*
X25924624Y23969340D01*
X25771885Y23873367D01*
X25644332Y23745814D01*
X25548357Y23593071D01*
X25517540Y23505001D01*
X25476819Y23448225D01*
X25411866Y23422478D01*
X25343304Y23435934D01*
X25292902Y23484322D01*
X25276499Y23545956D01*
X25276499Y23803939D01*
X25276498Y23803945D01*
X25270091Y23863552D01*
X25219797Y23998397D01*
X25219793Y23998404D01*
X25133547Y24113613D01*
X25133544Y24113616D01*
X25018335Y24199862D01*
X25018328Y24199866D01*
X24883482Y24250160D01*
X24883483Y24250160D01*
X24823883Y24256567D01*
X24823881Y24256568D01*
X24823873Y24256568D01*
X24823865Y24256568D01*
X24145103Y24256568D01*
X24106576Y24262705D01*
X23644624Y24413706D01*
X23587019Y24453245D01*
X23559934Y24517652D01*
X23571971Y24586477D01*
X23619306Y24637869D01*
X23683151Y24655569D01*
X24823871Y24655569D01*
X24823872Y24655569D01*
X24883483Y24661977D01*
X25018331Y24712272D01*
X25133546Y24798522D01*
X25219796Y24913737D01*
X25270091Y25048585D01*
X25276500Y25108195D01*
X25276499Y26603940D01*
X25270091Y26663551D01*
X25247720Y26723530D01*
X25219797Y26798397D01*
X25219793Y26798404D01*
X25133547Y26913613D01*
X25133544Y26913616D01*
X25018335Y26999862D01*
X25018328Y26999866D01*
X24883482Y27050160D01*
X24883483Y27050160D01*
X24823883Y27056567D01*
X24823881Y27056568D01*
X24823873Y27056568D01*
X24823865Y27056568D01*
X22806606Y27056568D01*
X22787448Y27058057D01*
X22785220Y27058406D01*
X22784065Y27058586D01*
X22784064Y27058586D01*
X22776682Y27057619D01*
X22760580Y27056568D01*
X22728131Y27056568D01*
X22728123Y27056567D01*
X22668519Y27050160D01*
X22668516Y27050159D01*
X22644419Y27041172D01*
X22634562Y27037959D01*
X22632796Y27037464D01*
X22632785Y27037461D01*
X22632784Y27037460D01*
X22629560Y27036368D01*
X22581504Y27020080D01*
X22581497Y27020077D01*
X22578781Y27018510D01*
X22560191Y27009758D01*
X22533670Y26999865D01*
X22518126Y26988230D01*
X22499234Y26974086D01*
X22496685Y26972178D01*
X22484328Y26964031D01*
X22456868Y26948194D01*
X21928525Y26533065D01*
X21863649Y26507124D01*
X21851915Y26506568D01*
X18614179Y26506568D01*
X18488511Y26481571D01*
X18488505Y26481569D01*
X18370124Y26432534D01*
X18263576Y26361342D01*
X15744727Y23842493D01*
X15744721Y23842486D01*
X15678373Y23743187D01*
X15678372Y23743184D01*
X15673536Y23735948D01*
X15624499Y23617563D01*
X15624497Y23617557D01*
X15599500Y23491890D01*
X15599500Y23491887D01*
X15599500Y22108113D01*
X15599500Y22108111D01*
X15599499Y22108111D01*
X15615730Y22026520D01*
X15620906Y22000500D01*
X15624499Y21982438D01*
X15673535Y21864055D01*
X15744723Y21757513D01*
X15744726Y21757509D01*
X15744727Y21757508D01*
X17913181Y19589055D01*
X17946666Y19527732D01*
X17949500Y19501374D01*
X17949500Y18100204D01*
X17945449Y18068767D01*
X17836433Y17652819D01*
X17830800Y17629554D01*
X17830682Y17629583D01*
X17826674Y17613672D01*
X17814632Y17579255D01*
X17814630Y17579250D01*
X17795468Y17409176D01*
X17768401Y17344762D01*
X17710807Y17305207D01*
X17640970Y17303070D01*
X17584567Y17335379D01*
X17555087Y17364859D01*
X17535722Y17389953D01*
X17529848Y17400000D01*
X17329689Y17742342D01*
X17326315Y17748684D01*
X17325789Y17749520D01*
X17325789Y17749522D01*
X17322553Y17754671D01*
X17320517Y17758029D01*
X17318683Y17761167D01*
X17308884Y17777233D01*
X17308880Y17777238D01*
X17308875Y17777246D01*
X17307590Y17779015D01*
X17302908Y17785936D01*
X17229815Y17902263D01*
X17102262Y18029816D01*
X16949523Y18125789D01*
X16779254Y18185369D01*
X16779249Y18185370D01*
X16600004Y18205565D01*
X16599996Y18205565D01*
X16420750Y18185370D01*
X16420745Y18185369D01*
X16250476Y18125789D01*
X16097737Y18029816D01*
X15970184Y17902263D01*
X15874211Y17749524D01*
X15814631Y17579255D01*
X15814630Y17579250D01*
X15794435Y17400004D01*
X15794435Y17399997D01*
X15814630Y17220751D01*
X15814631Y17220746D01*
X15874211Y17050477D01*
X15962447Y16910051D01*
X15970184Y16897738D01*
X16097738Y16770184D01*
X16233032Y16685174D01*
X16237131Y16682483D01*
X16238836Y16681315D01*
X16241936Y16679503D01*
X16245320Y16677453D01*
X16250478Y16674211D01*
X16250479Y16674211D01*
X16251319Y16673683D01*
X16257658Y16670311D01*
X16610049Y16464277D01*
X16635141Y16444913D01*
X17185325Y15894728D01*
X17185332Y15894722D01*
X17272271Y15836632D01*
X17291874Y15823534D01*
X17361221Y15794811D01*
X17410256Y15774499D01*
X17410259Y15774499D01*
X17410260Y15774498D01*
X17535928Y15749500D01*
X17535931Y15749500D01*
X19264071Y15749500D01*
X19348615Y15766318D01*
X19389744Y15774499D01*
X19508127Y15823535D01*
X19539577Y15844549D01*
X19614669Y15894723D01*
X20505277Y16785331D01*
X20576465Y16891873D01*
X20577682Y16894811D01*
X20625500Y17010253D01*
X20626662Y17016096D01*
X20626664Y17016105D01*
X20650500Y17135930D01*
X20650500Y19264072D01*
X20625502Y19389739D01*
X20625501Y19389740D01*
X20625501Y19389744D01*
X20576465Y19508127D01*
X20576464Y19508128D01*
X20576460Y19508136D01*
X20552189Y19544459D01*
X20552187Y19544461D01*
X20505276Y19614670D01*
X20505274Y19614672D01*
X20505272Y19614675D01*
X20505271Y19614676D01*
X17827943Y22292003D01*
X17794458Y22353326D01*
X17799442Y22423018D01*
X17841314Y22478951D01*
X17906778Y22503368D01*
X17975051Y22488516D01*
X17978208Y22486732D01*
X18284197Y22307828D01*
X18309289Y22288464D01*
X22096956Y18500796D01*
X22096963Y18500790D01*
X22199115Y18432535D01*
X22203501Y18429605D01*
X22203504Y18429603D01*
X22321887Y18380567D01*
X22321891Y18380567D01*
X22321892Y18380566D01*
X22447559Y18355568D01*
X22447562Y18355568D01*
X28495306Y18355568D01*
X28562345Y18335883D01*
X28582987Y18319249D01*
X32157506Y14744729D01*
X32157509Y14744727D01*
X32157512Y14744724D01*
X32256933Y14678294D01*
X32264055Y14673535D01*
X32264058Y14673533D01*
X32382433Y14624501D01*
X32382438Y14624499D01*
X32382442Y14624499D01*
X32382443Y14624498D01*
X32508110Y14599500D01*
X32508113Y14599500D01*
X38180192Y14599500D01*
X38247231Y14579815D01*
X38292986Y14527011D01*
X38302930Y14457853D01*
X38273905Y14394297D01*
X38267873Y14387819D01*
X37784727Y13904675D01*
X37784726Y13904674D01*
X37720912Y13809167D01*
X37720910Y13809165D01*
X37713537Y13798132D01*
X37713534Y13798126D01*
X37664499Y13679745D01*
X37664499Y13679744D01*
X37639500Y13554072D01*
X37639500Y13539695D01*
X37633722Y13502285D01*
X37534121Y13187526D01*
X37525531Y13157105D01*
X37524524Y13151816D01*
X37524000Y13151916D01*
X37519530Y13131833D01*
X37504631Y13089252D01*
X37504630Y13089249D01*
X37484435Y12910004D01*
X37484435Y12909997D01*
X37504630Y12730751D01*
X37504631Y12730746D01*
X37564211Y12560477D01*
X37660184Y12407738D01*
X37787738Y12280184D01*
X37861991Y12233528D01*
X37936325Y12186820D01*
X37940478Y12184211D01*
X38110745Y12124632D01*
X38110750Y12124631D01*
X38289996Y12104435D01*
X38290000Y12104435D01*
X38290004Y12104435D01*
X38469249Y12124631D01*
X38469252Y12124632D01*
X38469255Y12124632D01*
X38639522Y12184211D01*
X38792262Y12280184D01*
X38919816Y12407738D01*
X39015789Y12560478D01*
X39075368Y12730745D01*
X39075369Y12730751D01*
X39095565Y12909997D01*
X39095565Y12910004D01*
X39075369Y13089247D01*
X39075368Y13089252D01*
X39075368Y13089255D01*
X39039119Y13192848D01*
X39036185Y13202469D01*
X39030579Y13223955D01*
X39032702Y13293790D01*
X39062880Y13342936D01*
X39733127Y14013181D01*
X39794450Y14046666D01*
X39820808Y14049500D01*
X47719707Y14049500D01*
X47804251Y14066318D01*
X47845380Y14074499D01*
X47963763Y14123535D01*
X47989152Y14140499D01*
X47989153Y14140499D01*
X48049878Y14181075D01*
X48070305Y14194723D01*
X48983582Y15108000D01*
X57483551Y15108000D01*
X57503317Y14856849D01*
X57562126Y14611890D01*
X57658533Y14379141D01*
X57790160Y14164347D01*
X57790161Y14164344D01*
X57825016Y14123534D01*
X57953776Y13972776D01*
X58145341Y13809164D01*
X58145346Y13809161D01*
X58360140Y13677534D01*
X58577110Y13587663D01*
X58592889Y13581127D01*
X58837852Y13522317D01*
X59089000Y13502551D01*
X59340148Y13522317D01*
X59585111Y13581127D01*
X59817859Y13677534D01*
X60032659Y13809164D01*
X60224224Y13972776D01*
X60387836Y14164341D01*
X60519466Y14379141D01*
X60615873Y14611889D01*
X60674683Y14856852D01*
X60694449Y15108000D01*
X64484052Y15108000D01*
X64503812Y14856928D01*
X64562603Y14612044D01*
X64658980Y14379369D01*
X64790568Y14164638D01*
X64791266Y14163821D01*
X65373152Y14745707D01*
X65380049Y14729058D01*
X65467599Y14598030D01*
X65579030Y14486599D01*
X65710058Y14399049D01*
X65726705Y14392154D01*
X65144819Y13810268D01*
X65144819Y13810267D01*
X65145634Y13809571D01*
X65360368Y13677981D01*
X65593043Y13581604D01*
X65837927Y13522813D01*
X66089000Y13503053D01*
X66340072Y13522813D01*
X66584956Y13581604D01*
X66817631Y13677981D01*
X67032361Y13809568D01*
X67032363Y13809570D01*
X67033180Y13810268D01*
X66451294Y14392154D01*
X66467942Y14399049D01*
X66598970Y14486599D01*
X66710401Y14598030D01*
X66797951Y14729058D01*
X66804846Y14745706D01*
X67386732Y14163820D01*
X67387430Y14164637D01*
X67387432Y14164639D01*
X67519019Y14379369D01*
X67615396Y14612044D01*
X67674187Y14856928D01*
X67693947Y15108000D01*
X67674187Y15359073D01*
X67615396Y15603957D01*
X67519019Y15836632D01*
X67387429Y16051366D01*
X67386733Y16052181D01*
X67386732Y16052181D01*
X66804846Y15470295D01*
X66797951Y15486942D01*
X66710401Y15617970D01*
X66598970Y15729401D01*
X66467942Y15816951D01*
X66451293Y15823847D01*
X67033179Y16405734D01*
X67032362Y16406432D01*
X66817631Y16538020D01*
X66584956Y16634397D01*
X66340072Y16693188D01*
X66089000Y16712948D01*
X65837927Y16693188D01*
X65593043Y16634397D01*
X65360368Y16538020D01*
X65145637Y16406433D01*
X65144819Y16405734D01*
X65726706Y15823847D01*
X65710058Y15816951D01*
X65579030Y15729401D01*
X65467599Y15617970D01*
X65380049Y15486942D01*
X65373153Y15470294D01*
X64791266Y16052181D01*
X64790567Y16051363D01*
X64658980Y15836632D01*
X64562603Y15603957D01*
X64503812Y15359073D01*
X64484052Y15108000D01*
X60694449Y15108000D01*
X60674683Y15359148D01*
X60615873Y15604111D01*
X60600713Y15640710D01*
X60519466Y15836860D01*
X60388017Y16051363D01*
X60387838Y16051655D01*
X60387838Y16051657D01*
X60336445Y16111830D01*
X60224224Y16243224D01*
X60092787Y16355482D01*
X60032656Y16406839D01*
X60032653Y16406840D01*
X59817859Y16538467D01*
X59585110Y16634874D01*
X59340151Y16693683D01*
X59089000Y16713449D01*
X58837848Y16693683D01*
X58592889Y16634874D01*
X58360140Y16538467D01*
X58145346Y16406840D01*
X58145343Y16406839D01*
X57953776Y16243224D01*
X57790161Y16051657D01*
X57790160Y16051654D01*
X57658533Y15836860D01*
X57562126Y15604111D01*
X57503317Y15359152D01*
X57483551Y15108000D01*
X48983582Y15108000D01*
X50005277Y16129695D01*
X50076466Y16236238D01*
X50105189Y16305585D01*
X50125501Y16354620D01*
X50135338Y16404071D01*
X50150500Y16480293D01*
X50150500Y20400005D01*
X54489093Y20400005D01*
X54489093Y20399996D01*
X54508692Y20138455D01*
X54508693Y20138450D01*
X54567058Y19882730D01*
X54662883Y19638574D01*
X54662882Y19638574D01*
X54794027Y19411427D01*
X54841874Y19351429D01*
X55453522Y19963076D01*
X55544924Y19826283D01*
X55670283Y19700924D01*
X55807074Y19609523D01*
X55194830Y18997280D01*
X55366546Y18880207D01*
X55366550Y18880205D01*
X55602854Y18766406D01*
X55602858Y18766405D01*
X55853494Y18689093D01*
X55853500Y18689091D01*
X56112848Y18650001D01*
X56112857Y18650000D01*
X56375143Y18650000D01*
X56375151Y18650001D01*
X56634499Y18689091D01*
X56634505Y18689093D01*
X56885143Y18766405D01*
X57121445Y18880202D01*
X57121454Y18880207D01*
X57338167Y19027959D01*
X57338169Y19027960D01*
X57394379Y19080116D01*
X57456910Y19111286D01*
X57526367Y19103700D01*
X57580696Y19059767D01*
X57593282Y19036672D01*
X57658533Y18879141D01*
X57790160Y18664347D01*
X57790161Y18664344D01*
X57802412Y18650000D01*
X57953776Y18472776D01*
X58061738Y18380568D01*
X58145343Y18309162D01*
X58145346Y18309161D01*
X58360140Y18177534D01*
X58485065Y18125789D01*
X58592889Y18081127D01*
X58837852Y18022317D01*
X59089000Y18002551D01*
X59340148Y18022317D01*
X59585111Y18081127D01*
X59817859Y18177534D01*
X60032659Y18309164D01*
X60224224Y18472776D01*
X60387836Y18664341D01*
X60519466Y18879141D01*
X60615873Y19111889D01*
X60674683Y19356852D01*
X60694449Y19608000D01*
X64483551Y19608000D01*
X64503317Y19356849D01*
X64562126Y19111890D01*
X64658533Y18879141D01*
X64790160Y18664347D01*
X64790161Y18664344D01*
X64802412Y18650000D01*
X64953776Y18472776D01*
X65061738Y18380568D01*
X65145343Y18309162D01*
X65145346Y18309161D01*
X65360140Y18177534D01*
X65485065Y18125789D01*
X65592889Y18081127D01*
X65837852Y18022317D01*
X66089000Y18002551D01*
X66340148Y18022317D01*
X66585111Y18081127D01*
X66817859Y18177534D01*
X67032659Y18309164D01*
X67224224Y18472776D01*
X67387836Y18664341D01*
X67519466Y18879141D01*
X67519773Y18879881D01*
X67573612Y19009860D01*
X67617453Y19064264D01*
X67683747Y19086329D01*
X67751446Y19069050D01*
X67772514Y19053306D01*
X67799830Y19027960D01*
X67799832Y19027959D01*
X68016546Y18880207D01*
X68016550Y18880205D01*
X68252854Y18766406D01*
X68252858Y18766405D01*
X68503494Y18689093D01*
X68503500Y18689091D01*
X68762848Y18650001D01*
X68762857Y18650000D01*
X69025143Y18650000D01*
X69025151Y18650001D01*
X69284499Y18689091D01*
X69284505Y18689093D01*
X69535143Y18766405D01*
X69771445Y18880202D01*
X69771447Y18880203D01*
X69943168Y18997280D01*
X69330924Y19609523D01*
X69467717Y19700924D01*
X69593076Y19826283D01*
X69684477Y19963076D01*
X70296125Y19351428D01*
X70343971Y19411427D01*
X70475116Y19638574D01*
X70570941Y19882730D01*
X70629306Y20138450D01*
X70629307Y20138455D01*
X70648907Y20399996D01*
X70648907Y20400005D01*
X70629307Y20661546D01*
X70629306Y20661551D01*
X70570941Y20917271D01*
X70475116Y21161427D01*
X70475117Y21161427D01*
X70343972Y21388574D01*
X70296124Y21448573D01*
X69684477Y20836926D01*
X69593076Y20973717D01*
X69467717Y21099076D01*
X69330924Y21190478D01*
X69904451Y21764005D01*
X80951593Y21764005D01*
X80951593Y21763996D01*
X80971192Y21502455D01*
X80971193Y21502450D01*
X81029558Y21246730D01*
X81125383Y21002574D01*
X81125382Y21002574D01*
X81256527Y20775427D01*
X81304374Y20715429D01*
X81916022Y21327076D01*
X82007424Y21190283D01*
X82132783Y21064924D01*
X82269574Y20973523D01*
X81657330Y20361280D01*
X81829046Y20244207D01*
X81829050Y20244205D01*
X82065354Y20130406D01*
X82065358Y20130405D01*
X82315994Y20053093D01*
X82316000Y20053091D01*
X82575348Y20014001D01*
X82575357Y20014000D01*
X82837643Y20014000D01*
X82837651Y20014001D01*
X83096999Y20053091D01*
X83097005Y20053093D01*
X83347643Y20130405D01*
X83583945Y20244202D01*
X83583947Y20244203D01*
X83755668Y20361280D01*
X83143424Y20973523D01*
X83280217Y21064924D01*
X83405576Y21190283D01*
X83496977Y21327076D01*
X84108625Y20715428D01*
X84156471Y20775427D01*
X84287616Y21002574D01*
X84383441Y21246730D01*
X84441806Y21502450D01*
X84441807Y21502455D01*
X84461407Y21763996D01*
X84461407Y21764005D01*
X84441807Y22025546D01*
X84441806Y22025551D01*
X84383441Y22281271D01*
X84287616Y22525427D01*
X84287617Y22525427D01*
X84156472Y22752574D01*
X84108624Y22812573D01*
X83496977Y22200926D01*
X83405576Y22337717D01*
X83280217Y22463076D01*
X83143424Y22554478D01*
X83755668Y23166722D01*
X83583954Y23283794D01*
X83583945Y23283799D01*
X83347642Y23397596D01*
X83347644Y23397596D01*
X83097005Y23474908D01*
X83096999Y23474910D01*
X82837651Y23514000D01*
X82575348Y23514000D01*
X82316000Y23474910D01*
X82315994Y23474908D01*
X82065358Y23397596D01*
X82065354Y23397595D01*
X81829047Y23283795D01*
X81829039Y23283790D01*
X81657330Y23166723D01*
X82269575Y22554478D01*
X82132783Y22463076D01*
X82007424Y22337717D01*
X81916022Y22200925D01*
X81304374Y22812573D01*
X81256528Y22752575D01*
X81125383Y22525427D01*
X81029558Y22281271D01*
X80971193Y22025551D01*
X80971192Y22025546D01*
X80951593Y21764005D01*
X69904451Y21764005D01*
X69943168Y21802722D01*
X69771454Y21919794D01*
X69771445Y21919799D01*
X69535142Y22033596D01*
X69535144Y22033596D01*
X69284505Y22110908D01*
X69284499Y22110910D01*
X69025151Y22150000D01*
X68762848Y22150000D01*
X68503500Y22110910D01*
X68503494Y22110908D01*
X68252858Y22033596D01*
X68252854Y22033595D01*
X68016547Y21919795D01*
X68016539Y21919790D01*
X67844830Y21802723D01*
X68457075Y21190478D01*
X68320283Y21099076D01*
X68194924Y20973717D01*
X68103522Y20836925D01*
X67491875Y21448573D01*
X67491874Y21448573D01*
X67444028Y21388575D01*
X67312883Y21161427D01*
X67231294Y20953539D01*
X67188479Y20898325D01*
X67122609Y20875024D01*
X67054598Y20891035D01*
X67035338Y20904548D01*
X67032659Y20906836D01*
X67032657Y20906838D01*
X67032655Y20906839D01*
X67032653Y20906840D01*
X66817859Y21038467D01*
X66585110Y21134874D01*
X66340151Y21193683D01*
X66089000Y21213449D01*
X65837848Y21193683D01*
X65592889Y21134874D01*
X65360140Y21038467D01*
X65145346Y20906840D01*
X65145343Y20906839D01*
X64953776Y20743224D01*
X64790161Y20551657D01*
X64790160Y20551654D01*
X64658533Y20336860D01*
X64562126Y20104111D01*
X64503317Y19859152D01*
X64483551Y19608000D01*
X60694449Y19608000D01*
X60674683Y19859148D01*
X60615873Y20104111D01*
X60590346Y20165740D01*
X60519466Y20336860D01*
X60387839Y20551654D01*
X60387838Y20551657D01*
X60321197Y20629683D01*
X60224224Y20743224D01*
X60051160Y20891035D01*
X60032656Y20906839D01*
X60032653Y20906840D01*
X59817859Y21038467D01*
X59585110Y21134874D01*
X59340151Y21193683D01*
X59089000Y21213449D01*
X58837848Y21193683D01*
X58592889Y21134874D01*
X58360140Y21038467D01*
X58145343Y20906838D01*
X58145339Y20906836D01*
X58112707Y20878965D01*
X58048945Y20850395D01*
X57979859Y20860833D01*
X57927384Y20906964D01*
X57916748Y20927954D01*
X57825116Y21161427D01*
X57825117Y21161427D01*
X57693972Y21388574D01*
X57646124Y21448573D01*
X57034477Y20836926D01*
X56943076Y20973717D01*
X56817717Y21099076D01*
X56680924Y21190478D01*
X57293168Y21802722D01*
X57121454Y21919794D01*
X57121445Y21919799D01*
X56885142Y22033596D01*
X56885144Y22033596D01*
X56634505Y22110908D01*
X56634499Y22110910D01*
X56375151Y22150000D01*
X56112848Y22150000D01*
X55853500Y22110910D01*
X55853494Y22110908D01*
X55602858Y22033596D01*
X55602854Y22033595D01*
X55366547Y21919795D01*
X55366539Y21919790D01*
X55194830Y21802723D01*
X55807075Y21190478D01*
X55670283Y21099076D01*
X55544924Y20973717D01*
X55453522Y20836925D01*
X54841874Y21448573D01*
X54794028Y21388575D01*
X54662883Y21161427D01*
X54567058Y20917271D01*
X54508693Y20661551D01*
X54508692Y20661546D01*
X54489093Y20400005D01*
X50150500Y20400005D01*
X50150500Y28579192D01*
X50170185Y28646231D01*
X50186819Y28666873D01*
X51919951Y30400005D01*
X54489093Y30400005D01*
X54489093Y30399996D01*
X54508692Y30138455D01*
X54508693Y30138450D01*
X54567058Y29882730D01*
X54662883Y29638574D01*
X54662882Y29638574D01*
X54794027Y29411427D01*
X54841874Y29351429D01*
X55453522Y29963076D01*
X55544924Y29826283D01*
X55670283Y29700924D01*
X55807074Y29609523D01*
X55194830Y28997280D01*
X55366546Y28880207D01*
X55366550Y28880205D01*
X55602854Y28766406D01*
X55602858Y28766405D01*
X55853494Y28689093D01*
X55853500Y28689091D01*
X56112848Y28650001D01*
X56112857Y28650000D01*
X56375143Y28650000D01*
X56375151Y28650001D01*
X56634499Y28689091D01*
X56634505Y28689093D01*
X56885143Y28766405D01*
X57121445Y28880202D01*
X57121447Y28880203D01*
X57293168Y28997280D01*
X56680924Y29609523D01*
X56817717Y29700924D01*
X56943076Y29826283D01*
X57034477Y29963076D01*
X57646125Y29351428D01*
X57693971Y29411427D01*
X57825116Y29638574D01*
X57920941Y29882730D01*
X57979306Y30138450D01*
X57979307Y30138455D01*
X57998907Y30399996D01*
X57998907Y30400005D01*
X67139093Y30400005D01*
X67139093Y30399996D01*
X67158692Y30138455D01*
X67158693Y30138450D01*
X67217058Y29882730D01*
X67312883Y29638574D01*
X67312882Y29638574D01*
X67444027Y29411427D01*
X67491874Y29351429D01*
X68103522Y29963076D01*
X68194924Y29826283D01*
X68320283Y29700924D01*
X68457074Y29609523D01*
X67844830Y28997280D01*
X68016546Y28880207D01*
X68016550Y28880205D01*
X68252854Y28766406D01*
X68252858Y28766405D01*
X68503494Y28689093D01*
X68503500Y28689091D01*
X68762848Y28650001D01*
X68762857Y28650000D01*
X69025143Y28650000D01*
X69025151Y28650001D01*
X69284499Y28689091D01*
X69284505Y28689093D01*
X69535143Y28766405D01*
X69771445Y28880202D01*
X69771447Y28880203D01*
X69943168Y28997280D01*
X69330924Y29609523D01*
X69467717Y29700924D01*
X69593076Y29826283D01*
X69684477Y29963076D01*
X70296125Y29351428D01*
X70343971Y29411427D01*
X70475116Y29638574D01*
X70570941Y29882730D01*
X70629306Y30138450D01*
X70629307Y30138455D01*
X70648907Y30399996D01*
X70648907Y30400005D01*
X70629307Y30661546D01*
X70629306Y30661551D01*
X70570941Y30917271D01*
X70475116Y31161427D01*
X70475117Y31161427D01*
X70343972Y31388574D01*
X70296124Y31448573D01*
X69684477Y30836926D01*
X69593076Y30973717D01*
X69467717Y31099076D01*
X69330924Y31190478D01*
X69943168Y31802722D01*
X69771454Y31919794D01*
X69771445Y31919799D01*
X69535142Y32033596D01*
X69535144Y32033596D01*
X69284505Y32110908D01*
X69284499Y32110910D01*
X69025151Y32150000D01*
X68762848Y32150000D01*
X68503500Y32110910D01*
X68503494Y32110908D01*
X68252858Y32033596D01*
X68252854Y32033595D01*
X68016547Y31919795D01*
X68016539Y31919790D01*
X67844830Y31802723D01*
X68457075Y31190478D01*
X68320283Y31099076D01*
X68194924Y30973717D01*
X68103522Y30836926D01*
X67491875Y31448573D01*
X67491874Y31448573D01*
X67444028Y31388575D01*
X67312883Y31161427D01*
X67217058Y30917271D01*
X67158693Y30661551D01*
X67158692Y30661546D01*
X67139093Y30400005D01*
X57998907Y30400005D01*
X57979307Y30661546D01*
X57979306Y30661551D01*
X57920941Y30917271D01*
X57825116Y31161427D01*
X57825117Y31161427D01*
X57693972Y31388574D01*
X57646124Y31448573D01*
X57034477Y30836926D01*
X56943076Y30973717D01*
X56817717Y31099076D01*
X56680924Y31190478D01*
X57293168Y31802722D01*
X57121454Y31919794D01*
X57121445Y31919799D01*
X56885142Y32033596D01*
X56885144Y32033596D01*
X56634505Y32110908D01*
X56634499Y32110910D01*
X56375151Y32150000D01*
X56112848Y32150000D01*
X55853500Y32110910D01*
X55853494Y32110908D01*
X55602858Y32033596D01*
X55602854Y32033595D01*
X55366547Y31919795D01*
X55366539Y31919790D01*
X55194830Y31802723D01*
X55807075Y31190478D01*
X55670283Y31099076D01*
X55544924Y30973717D01*
X55453522Y30836925D01*
X54841874Y31448573D01*
X54794028Y31388575D01*
X54662883Y31161427D01*
X54567058Y30917271D01*
X54508693Y30661551D01*
X54508692Y30661546D01*
X54489093Y30400005D01*
X51919951Y30400005D01*
X53983127Y32463181D01*
X54044450Y32496666D01*
X54070808Y32499500D01*
X57657772Y32499500D01*
X57724811Y32479815D01*
X57764818Y32438087D01*
X57870307Y32257662D01*
X57873680Y32251322D01*
X57877434Y32245349D01*
X57879489Y32241958D01*
X57881306Y32238850D01*
X57891117Y32222764D01*
X57892404Y32220993D01*
X57897083Y32214076D01*
X57965551Y32105111D01*
X57970184Y32097738D01*
X58097738Y31970184D01*
X58132469Y31948361D01*
X58246871Y31876477D01*
X58250478Y31874211D01*
X58341529Y31842351D01*
X58420745Y31814632D01*
X58420750Y31814631D01*
X58599996Y31794435D01*
X58600000Y31794435D01*
X58600004Y31794435D01*
X58779249Y31814631D01*
X58779252Y31814632D01*
X58779255Y31814632D01*
X58949522Y31874211D01*
X59102262Y31970184D01*
X59229816Y32097738D01*
X59325789Y32250478D01*
X59385368Y32420745D01*
X59387322Y32438087D01*
X59405565Y32599997D01*
X59405565Y32600003D01*
X59395007Y32693706D01*
X59407061Y32762528D01*
X59454410Y32813908D01*
X59522021Y32831532D01*
X59558490Y32824871D01*
X59725015Y32767703D01*
X59725017Y32767703D01*
X59725019Y32767702D01*
X59953951Y32729500D01*
X59953952Y32729500D01*
X60186048Y32729500D01*
X60186049Y32729500D01*
X60414981Y32767702D01*
X60634503Y32843064D01*
X60838626Y32953530D01*
X60839170Y32953953D01*
X60900129Y33001400D01*
X61021784Y33096087D01*
X61178979Y33266847D01*
X61215691Y33323040D01*
X61268837Y33368396D01*
X61338068Y33377820D01*
X61401404Y33348318D01*
X61423309Y33323039D01*
X61460016Y33266853D01*
X61460019Y33266849D01*
X61460021Y33266847D01*
X61617216Y33096087D01*
X61617219Y33096085D01*
X61617222Y33096082D01*
X61800365Y32953536D01*
X61800371Y32953532D01*
X61800374Y32953530D01*
X61967860Y32862891D01*
X62003652Y32843521D01*
X62004497Y32843064D01*
X62089426Y32813908D01*
X62224015Y32767703D01*
X62224017Y32767703D01*
X62224019Y32767702D01*
X62452951Y32729500D01*
X62452952Y32729500D01*
X62685048Y32729500D01*
X62685049Y32729500D01*
X62913981Y32767702D01*
X63133503Y32843064D01*
X63337626Y32953530D01*
X63338170Y32953953D01*
X63399129Y33001400D01*
X63520784Y33096087D01*
X63677979Y33266847D01*
X63715990Y33325029D01*
X63769134Y33370384D01*
X63838365Y33379808D01*
X63901701Y33350307D01*
X63917092Y33332545D01*
X63918812Y33332367D01*
X64505387Y33918942D01*
X64510889Y33898409D01*
X64589881Y33761592D01*
X64701592Y33649881D01*
X64838409Y33570889D01*
X64858940Y33565388D01*
X64271201Y32977649D01*
X64301649Y32953950D01*
X64505697Y32843524D01*
X64505706Y32843521D01*
X64725139Y32768189D01*
X64953993Y32730000D01*
X65186007Y32730000D01*
X65414860Y32768189D01*
X65634293Y32843521D01*
X65634301Y32843524D01*
X65838355Y32953953D01*
X65868797Y32977649D01*
X65868798Y32977650D01*
X65281060Y33565388D01*
X65301591Y33570889D01*
X65438408Y33649881D01*
X65550119Y33761592D01*
X65629111Y33898409D01*
X65634612Y33918941D01*
X66221186Y33332367D01*
X66305482Y33461389D01*
X66398682Y33673865D01*
X66455638Y33898782D01*
X66474798Y34129995D01*
X66474798Y34130006D01*
X66455638Y34361219D01*
X66398682Y34586136D01*
X66305484Y34798607D01*
X66221186Y34927635D01*
X65634612Y34341061D01*
X65629111Y34361591D01*
X65550119Y34498408D01*
X65438408Y34610119D01*
X65301591Y34689111D01*
X65281058Y34694613D01*
X65868797Y35282353D01*
X65868797Y35282355D01*
X65838360Y35306045D01*
X65838354Y35306049D01*
X65634302Y35416477D01*
X65634293Y35416480D01*
X65414860Y35491812D01*
X65186007Y35530000D01*
X64953993Y35530000D01*
X64725139Y35491812D01*
X64505706Y35416480D01*
X64505697Y35416477D01*
X64301650Y35306051D01*
X64271200Y35282353D01*
X64858941Y34694613D01*
X64838409Y34689111D01*
X64701592Y34610119D01*
X64589881Y34498408D01*
X64510889Y34361591D01*
X64505387Y34341059D01*
X63918811Y34927635D01*
X63914480Y34927186D01*
X63870459Y34889617D01*
X63801227Y34880194D01*
X63737892Y34909697D01*
X63715989Y34934974D01*
X63677981Y34993150D01*
X63677980Y34993151D01*
X63677979Y34993153D01*
X63520784Y35163913D01*
X63520779Y35163917D01*
X63520777Y35163919D01*
X63337634Y35306465D01*
X63337628Y35306469D01*
X63133504Y35416936D01*
X63133495Y35416939D01*
X62913984Y35492298D01*
X62713280Y35525789D01*
X62685049Y35530500D01*
X62452951Y35530500D01*
X62424720Y35525789D01*
X62224015Y35492298D01*
X62004504Y35416939D01*
X62004495Y35416936D01*
X61800371Y35306469D01*
X61800365Y35306465D01*
X61617222Y35163919D01*
X61617219Y35163916D01*
X61617216Y35163914D01*
X61617216Y35163913D01*
X61563617Y35105689D01*
X61460018Y34993150D01*
X61423309Y34936961D01*
X61370162Y34891605D01*
X61300931Y34882181D01*
X61237595Y34911683D01*
X61215691Y34936961D01*
X61178981Y34993150D01*
X61178980Y34993151D01*
X61178979Y34993153D01*
X61021784Y35163913D01*
X61021779Y35163917D01*
X61021777Y35163919D01*
X60838634Y35306465D01*
X60838628Y35306469D01*
X60634504Y35416936D01*
X60634495Y35416939D01*
X60414984Y35492298D01*
X60214280Y35525789D01*
X60186049Y35530500D01*
X59953951Y35530500D01*
X59925720Y35525789D01*
X59725015Y35492298D01*
X59505504Y35416939D01*
X59505495Y35416936D01*
X59301371Y35306469D01*
X59301365Y35306465D01*
X59118222Y35163919D01*
X59118219Y35163916D01*
X59118216Y35163914D01*
X59118216Y35163913D01*
X59086821Y35129809D01*
X58961016Y34993148D01*
X58834075Y34798849D01*
X58740842Y34586301D01*
X58683866Y34361309D01*
X58683864Y34361298D01*
X58664700Y34130007D01*
X58664700Y34129994D01*
X58683864Y33898703D01*
X58683866Y33898692D01*
X58730190Y33715764D01*
X58727565Y33645944D01*
X58687608Y33588626D01*
X58623007Y33562010D01*
X58554271Y33574545D01*
X58522305Y33597641D01*
X58464669Y33655277D01*
X58358127Y33726465D01*
X58301103Y33750085D01*
X58239744Y33775501D01*
X58239738Y33775503D01*
X58114071Y33800500D01*
X58114069Y33800500D01*
X53685931Y33800500D01*
X53685929Y33800500D01*
X53560261Y33775503D01*
X53560251Y33775500D01*
X53511220Y33755190D01*
X53441881Y33726470D01*
X53441863Y33726460D01*
X53335332Y33655279D01*
X53335325Y33655273D01*
X48994726Y29314674D01*
X48941178Y29234531D01*
X48923533Y29208124D01*
X48874499Y29089745D01*
X48874497Y29089739D01*
X48849500Y28964072D01*
X48849500Y28683178D01*
X48829815Y28616139D01*
X48777011Y28570384D01*
X48707853Y28560440D01*
X48662913Y28576132D01*
X48389949Y28735726D01*
X48364855Y28755091D01*
X45886529Y31233418D01*
X45886528Y31233419D01*
X45877427Y31239500D01*
X45779982Y31304610D01*
X45733682Y31323788D01*
X45661599Y31353646D01*
X45661593Y31353648D01*
X45535926Y31378645D01*
X45535924Y31378645D01*
X38375770Y31378645D01*
X38308731Y31398330D01*
X38262976Y31451134D01*
X38253032Y31520292D01*
X38282057Y31583848D01*
X38288089Y31590326D01*
X43682799Y36985036D01*
X43744122Y37018521D01*
X43770480Y37021355D01*
X69229518Y37021355D01*
X69296557Y37001670D01*
X69317199Y36985036D01*
X72963181Y33339054D01*
X72996666Y33277731D01*
X72999500Y33251373D01*
X72999500Y29148626D01*
X72979815Y29081587D01*
X72963181Y29060945D01*
X68339055Y24436819D01*
X68277732Y24403334D01*
X68251374Y24400500D01*
X67796916Y24400500D01*
X67729877Y24420185D01*
X67684122Y24472989D01*
X67674178Y24542147D01*
X67703203Y24605703D01*
X67709235Y24612181D01*
X67722844Y24625790D01*
X67747553Y24650499D01*
X67853996Y24797006D01*
X67936211Y24958361D01*
X67992171Y25130591D01*
X68018749Y25298397D01*
X68020500Y25309449D01*
X68020500Y25490552D01*
X67998205Y25631309D01*
X67992171Y25669409D01*
X67936211Y25841639D01*
X67936211Y25841640D01*
X67898293Y25916057D01*
X67853996Y26002994D01*
X67761449Y26130375D01*
X67747558Y26149495D01*
X67747554Y26149500D01*
X67619499Y26277555D01*
X67619494Y26277559D01*
X67472997Y26383994D01*
X67472996Y26383995D01*
X67472994Y26383996D01*
X67421300Y26410336D01*
X67311639Y26466212D01*
X67311636Y26466213D01*
X67139410Y26522171D01*
X66960551Y26550500D01*
X66960546Y26550500D01*
X66779454Y26550500D01*
X66779449Y26550500D01*
X66600589Y26522171D01*
X66428363Y26466213D01*
X66428360Y26466212D01*
X66267002Y26383994D01*
X66120505Y26277559D01*
X66120500Y26277555D01*
X65992445Y26149500D01*
X65992441Y26149495D01*
X65886006Y26002998D01*
X65803788Y25841640D01*
X65803787Y25841637D01*
X65747829Y25669411D01*
X65719500Y25490552D01*
X65719500Y25309449D01*
X65747829Y25130590D01*
X65803787Y24958364D01*
X65803788Y24958361D01*
X65826526Y24913737D01*
X65885232Y24798521D01*
X65886006Y24797003D01*
X65992441Y24650506D01*
X65992445Y24650501D01*
X66030765Y24612181D01*
X66064250Y24550858D01*
X66059266Y24481166D01*
X66017394Y24425233D01*
X65951930Y24400816D01*
X65943084Y24400500D01*
X65760574Y24400500D01*
X65694359Y24419660D01*
X65413312Y24597165D01*
X65399444Y24605132D01*
X65395245Y24607656D01*
X65366390Y24625788D01*
X65366384Y24625790D01*
X65310046Y24645504D01*
X65304533Y24647581D01*
X65285515Y24655268D01*
X65278384Y24657203D01*
X65278486Y24657582D01*
X65268511Y24660038D01*
X65196117Y24685369D01*
X65016869Y24705565D01*
X65016861Y24705565D01*
X64837615Y24685370D01*
X64837610Y24685369D01*
X64667341Y24625789D01*
X64514602Y24529816D01*
X64387049Y24402263D01*
X64291076Y24249524D01*
X64231496Y24079255D01*
X64231495Y24079251D01*
X64218129Y23960616D01*
X64191062Y23896202D01*
X64133468Y23856647D01*
X64094909Y23850500D01*
X56360808Y23850500D01*
X56293769Y23870185D01*
X56273127Y23886819D01*
X55679356Y24480590D01*
X55650450Y24526041D01*
X55639567Y24556085D01*
X55301085Y25490552D01*
X57119500Y25490552D01*
X57119500Y25309449D01*
X57147829Y25130590D01*
X57203787Y24958364D01*
X57203788Y24958361D01*
X57226526Y24913737D01*
X57285232Y24798521D01*
X57286006Y24797003D01*
X57392441Y24650506D01*
X57392445Y24650501D01*
X57520500Y24522446D01*
X57520505Y24522442D01*
X57615748Y24453245D01*
X57667006Y24416004D01*
X57764973Y24366087D01*
X57828360Y24333789D01*
X57828363Y24333788D01*
X57914476Y24305809D01*
X58000591Y24277829D01*
X58083429Y24264709D01*
X58179449Y24249500D01*
X58179454Y24249500D01*
X58360551Y24249500D01*
X58447259Y24263235D01*
X58539409Y24277829D01*
X58711639Y24333789D01*
X58872994Y24416004D01*
X59019501Y24522447D01*
X59147553Y24650499D01*
X59253996Y24797006D01*
X59336211Y24958361D01*
X59392171Y25130591D01*
X59418749Y25298397D01*
X59420500Y25309449D01*
X59420500Y25490552D01*
X59398205Y25631309D01*
X59392171Y25669409D01*
X59336211Y25841639D01*
X59336211Y25841640D01*
X59298293Y25916057D01*
X59253996Y26002994D01*
X59161449Y26130375D01*
X59147558Y26149495D01*
X59147554Y26149500D01*
X59019499Y26277555D01*
X59019494Y26277559D01*
X58872997Y26383994D01*
X58872996Y26383995D01*
X58872994Y26383996D01*
X58821300Y26410336D01*
X58711639Y26466212D01*
X58711636Y26466213D01*
X58539410Y26522171D01*
X58360551Y26550500D01*
X58360546Y26550500D01*
X58179454Y26550500D01*
X58179449Y26550500D01*
X58000589Y26522171D01*
X57828363Y26466213D01*
X57828360Y26466212D01*
X57667002Y26383994D01*
X57520505Y26277559D01*
X57520500Y26277555D01*
X57392445Y26149500D01*
X57392441Y26149495D01*
X57286006Y26002998D01*
X57203788Y25841640D01*
X57203787Y25841637D01*
X57147829Y25669411D01*
X57119500Y25490552D01*
X55301085Y25490552D01*
X55172544Y25845421D01*
X55169617Y25854957D01*
X55169160Y25856286D01*
X55169157Y25856300D01*
X55167621Y25859802D01*
X55164589Y25867383D01*
X55150939Y25905068D01*
X55149899Y25907839D01*
X55146803Y25916087D01*
X55146616Y25916568D01*
X55119384Y25975204D01*
X55119381Y25975207D01*
X55116095Y25980714D01*
X55116600Y25981016D01*
X55107901Y25995949D01*
X55075925Y26068847D01*
X54948983Y26263148D01*
X54948980Y26263151D01*
X54948979Y26263153D01*
X54791784Y26433913D01*
X54639876Y26552148D01*
X54599064Y26608857D01*
X54595389Y26678630D01*
X54630020Y26739313D01*
X54639876Y26747853D01*
X54791784Y26866087D01*
X54948979Y27036847D01*
X54949380Y27037460D01*
X54974724Y27076253D01*
X55075924Y27231151D01*
X55169157Y27443700D01*
X55226134Y27668695D01*
X55234374Y27768134D01*
X55245300Y27899994D01*
X55245300Y27900007D01*
X55226135Y28131298D01*
X55226133Y28131309D01*
X55169157Y28356301D01*
X55075924Y28568849D01*
X54948983Y28763148D01*
X54948980Y28763151D01*
X54948979Y28763153D01*
X54791784Y28933913D01*
X54791779Y28933917D01*
X54791777Y28933919D01*
X54608634Y29076465D01*
X54608628Y29076469D01*
X54404504Y29186936D01*
X54404495Y29186939D01*
X54184984Y29262298D01*
X54013282Y29290950D01*
X53956049Y29300500D01*
X53723951Y29300500D01*
X53678164Y29292860D01*
X53495015Y29262298D01*
X53275504Y29186939D01*
X53275495Y29186936D01*
X53071371Y29076469D01*
X53071365Y29076465D01*
X52888222Y28933919D01*
X52888219Y28933916D01*
X52731016Y28763148D01*
X52604075Y28568849D01*
X52510842Y28356301D01*
X52453866Y28131309D01*
X52453864Y28131298D01*
X52434700Y27900007D01*
X52434700Y27899994D01*
X52453864Y27668703D01*
X52453866Y27668692D01*
X52510842Y27443700D01*
X52604075Y27231152D01*
X52731016Y27036853D01*
X52731019Y27036849D01*
X52731021Y27036847D01*
X52888216Y26866087D01*
X52888219Y26866085D01*
X52888222Y26866082D01*
X53040122Y26747853D01*
X53080935Y26691143D01*
X53084610Y26621370D01*
X53049978Y26560687D01*
X53040122Y26552147D01*
X52888222Y26433919D01*
X52888219Y26433916D01*
X52731016Y26263148D01*
X52604075Y26068849D01*
X52510842Y25856301D01*
X52453866Y25631309D01*
X52453864Y25631298D01*
X52434700Y25400007D01*
X52434700Y25399994D01*
X52453864Y25168703D01*
X52453866Y25168692D01*
X52510842Y24943700D01*
X52604075Y24731152D01*
X52731016Y24536853D01*
X52731019Y24536849D01*
X52731021Y24536847D01*
X52888216Y24366087D01*
X52888219Y24366085D01*
X52888222Y24366082D01*
X53040528Y24247537D01*
X53081341Y24190827D01*
X53085016Y24121054D01*
X53050384Y24060371D01*
X53041205Y24052418D01*
X53041200Y24052353D01*
X53628940Y23464613D01*
X53608409Y23459111D01*
X53471592Y23380119D01*
X53359881Y23268408D01*
X53280889Y23131591D01*
X53275387Y23111059D01*
X52688811Y23697635D01*
X52604516Y23568610D01*
X52511317Y23356136D01*
X52454361Y23131219D01*
X52435202Y22900006D01*
X52435202Y22899995D01*
X52454361Y22668782D01*
X52511317Y22443865D01*
X52604515Y22231394D01*
X52688812Y22102367D01*
X53275387Y22688942D01*
X53280889Y22668409D01*
X53359881Y22531592D01*
X53471592Y22419881D01*
X53608409Y22340889D01*
X53628940Y22335388D01*
X53041201Y21747649D01*
X53071649Y21723950D01*
X53275697Y21613524D01*
X53275706Y21613521D01*
X53495139Y21538189D01*
X53723993Y21500000D01*
X53956007Y21500000D01*
X54184860Y21538189D01*
X54404293Y21613521D01*
X54404301Y21613524D01*
X54608355Y21723953D01*
X54638797Y21747649D01*
X54638798Y21747650D01*
X54051060Y22335388D01*
X54071591Y22340889D01*
X54208408Y22419881D01*
X54320119Y22531592D01*
X54399111Y22668409D01*
X54404612Y22688941D01*
X54991186Y22102367D01*
X55075482Y22231389D01*
X55168682Y22443865D01*
X55225638Y22668782D01*
X55236117Y22795238D01*
X55261270Y22860423D01*
X55317672Y22901661D01*
X55387415Y22905859D01*
X55447374Y22872679D01*
X55625325Y22694728D01*
X55625332Y22694722D01*
X55711204Y22637345D01*
X55725014Y22628119D01*
X55731873Y22623535D01*
X55850256Y22574499D01*
X55850260Y22574499D01*
X55850261Y22574498D01*
X55975928Y22549500D01*
X55975931Y22549500D01*
X68864071Y22549500D01*
X68948615Y22566318D01*
X68989744Y22574499D01*
X69108127Y22623535D01*
X69123509Y22633813D01*
X69128796Y22637345D01*
X69185915Y22675511D01*
X69214669Y22694723D01*
X74705276Y28185330D01*
X74776465Y28291873D01*
X74825501Y28410256D01*
X74827532Y28420466D01*
X74832295Y28444410D01*
X74850500Y28535929D01*
X74850500Y33864072D01*
X74825502Y33989739D01*
X74825501Y33989740D01*
X74825501Y33989744D01*
X74791945Y34070755D01*
X74776466Y34108126D01*
X74756257Y34138370D01*
X74756256Y34138371D01*
X74723884Y34186820D01*
X74705276Y34214670D01*
X74705274Y34214672D01*
X74705272Y34214675D01*
X74705271Y34214676D01*
X71010272Y37909674D01*
X70976787Y37970997D01*
X70981771Y38040689D01*
X71023643Y38096622D01*
X71089107Y38121039D01*
X71097953Y38121355D01*
X80671924Y38121355D01*
X80738963Y38101670D01*
X80739474Y38101340D01*
X80898289Y37998057D01*
X80908030Y37990164D01*
X80908411Y37990641D01*
X80913853Y37986301D01*
X80913854Y37986300D01*
X80938209Y37970997D01*
X80987359Y37940114D01*
X80988993Y37939069D01*
X81013958Y37922833D01*
X81013959Y37922832D01*
X81026448Y37915489D01*
X81029551Y37913603D01*
X81066594Y37890327D01*
X81066595Y37890327D01*
X81066598Y37890325D01*
X81127749Y37868928D01*
X81133618Y37866706D01*
X81147536Y37861024D01*
X81147542Y37861024D01*
X81154783Y37859045D01*
X81154656Y37858583D01*
X81163571Y37856394D01*
X81236861Y37830748D01*
X81236865Y37830748D01*
X81236867Y37830747D01*
X81236864Y37830747D01*
X81416112Y37810551D01*
X81416116Y37810551D01*
X81416120Y37810551D01*
X81595365Y37830747D01*
X81595368Y37830748D01*
X81595371Y37830748D01*
X81765638Y37890327D01*
X81918378Y37986300D01*
X81929476Y37997398D01*
X81990799Y38030883D01*
X82060491Y38025899D01*
X82104838Y37997398D01*
X84163181Y35939055D01*
X84196666Y35877732D01*
X84199500Y35851374D01*
X84199500Y35588629D01*
X84179815Y35521590D01*
X84127011Y35475835D01*
X84120697Y35474646D01*
X83496977Y34850926D01*
X83405576Y34987717D01*
X83280217Y35113076D01*
X83143424Y35204478D01*
X83755668Y35816722D01*
X83583954Y35933794D01*
X83583945Y35933799D01*
X83347642Y36047596D01*
X83347644Y36047596D01*
X83097005Y36124908D01*
X83096999Y36124910D01*
X82837651Y36164000D01*
X82575348Y36164000D01*
X82316000Y36124910D01*
X82315994Y36124908D01*
X82065358Y36047596D01*
X82065354Y36047595D01*
X81829047Y35933795D01*
X81829039Y35933790D01*
X81657330Y35816723D01*
X82269575Y35204478D01*
X82132783Y35113076D01*
X82007424Y34987717D01*
X81916022Y34850925D01*
X81304374Y35462573D01*
X81256528Y35402575D01*
X81125383Y35175427D01*
X81029558Y34931271D01*
X80971193Y34675551D01*
X80971192Y34675546D01*
X80951593Y34414005D01*
X80951593Y34413996D01*
X80971192Y34152455D01*
X80971193Y34152450D01*
X81029558Y33896730D01*
X81125383Y33652574D01*
X81125382Y33652574D01*
X81256527Y33425427D01*
X81304374Y33365429D01*
X81916022Y33977076D01*
X82007424Y33840283D01*
X82132783Y33714924D01*
X82269574Y33623523D01*
X81657330Y33011280D01*
X81829046Y32894207D01*
X81829050Y32894205D01*
X82065354Y32780406D01*
X82065358Y32780405D01*
X82315994Y32703093D01*
X82316000Y32703091D01*
X82575348Y32664001D01*
X82575357Y32664000D01*
X82837643Y32664000D01*
X82837651Y32664001D01*
X83096999Y32703091D01*
X83097005Y32703093D01*
X83347643Y32780405D01*
X83583945Y32894202D01*
X83583947Y32894203D01*
X83755668Y33011280D01*
X83143424Y33623523D01*
X83280217Y33714924D01*
X83405576Y33840283D01*
X83496977Y33977076D01*
X84123776Y33350277D01*
X84136581Y33347286D01*
X84185226Y33297132D01*
X84199500Y33239373D01*
X84199500Y30970808D01*
X84179815Y30903769D01*
X84163181Y30883127D01*
X82055873Y28775819D01*
X81994550Y28742334D01*
X81968192Y28739500D01*
X80927247Y28739500D01*
X80874669Y28751199D01*
X80860465Y28757849D01*
X80711254Y28827709D01*
X79820846Y29244590D01*
X79768478Y29290843D01*
X79749430Y29358066D01*
X79769749Y29424916D01*
X79774850Y29430448D01*
X79775298Y29437650D01*
X79187560Y30025388D01*
X79208091Y30030889D01*
X79344908Y30109881D01*
X79456619Y30221592D01*
X79535611Y30358409D01*
X79541112Y30378941D01*
X80127686Y29792367D01*
X80211982Y29921389D01*
X80305182Y30133866D01*
X80305184Y30133870D01*
X80362138Y30358782D01*
X80381298Y30589995D01*
X80381298Y30590006D01*
X80362138Y30821219D01*
X80305182Y31046136D01*
X80211984Y31258607D01*
X80127686Y31387635D01*
X79541112Y30801061D01*
X79535611Y30821591D01*
X79456619Y30958408D01*
X79344908Y31070119D01*
X79208091Y31149111D01*
X79187558Y31154613D01*
X79775297Y31742353D01*
X79775297Y31742355D01*
X79744860Y31766045D01*
X79744854Y31766049D01*
X79540802Y31876477D01*
X79540793Y31876480D01*
X79321360Y31951812D01*
X79092507Y31990000D01*
X78860493Y31990000D01*
X78631639Y31951812D01*
X78412206Y31876480D01*
X78412197Y31876477D01*
X78208150Y31766051D01*
X78177700Y31742353D01*
X78765441Y31154613D01*
X78744909Y31149111D01*
X78608092Y31070119D01*
X78496381Y30958408D01*
X78417389Y30821591D01*
X78411887Y30801059D01*
X77825311Y31387635D01*
X77741016Y31258610D01*
X77647817Y31046136D01*
X77590861Y30821219D01*
X77571702Y30590006D01*
X77571702Y30589995D01*
X77590861Y30358782D01*
X77647816Y30133870D01*
X77647817Y30133866D01*
X77741015Y29921394D01*
X77825312Y29792367D01*
X78411887Y30378942D01*
X78417389Y30358409D01*
X78496381Y30221592D01*
X78608092Y30109881D01*
X78744909Y30030889D01*
X78765440Y30025388D01*
X78177701Y29437649D01*
X78177702Y29437630D01*
X78218485Y29380962D01*
X78222160Y29311189D01*
X78187529Y29250505D01*
X78177673Y29241965D01*
X78024718Y29122915D01*
X77867516Y28952148D01*
X77740575Y28757849D01*
X77647342Y28545301D01*
X77590366Y28320309D01*
X77590364Y28320298D01*
X77571200Y28089007D01*
X77571200Y28088994D01*
X77590364Y27857703D01*
X77590366Y27857692D01*
X77647342Y27632700D01*
X77740575Y27420152D01*
X77867516Y27225853D01*
X77867519Y27225849D01*
X77867521Y27225847D01*
X78024716Y27055087D01*
X78069697Y27020077D01*
X78175980Y26937353D01*
X78216793Y26880643D01*
X78220467Y26810870D01*
X78185835Y26750187D01*
X78175980Y26741647D01*
X78024718Y26623915D01*
X77867516Y26453148D01*
X77740575Y26258849D01*
X77647342Y26046301D01*
X77590366Y25821309D01*
X77590364Y25821298D01*
X77571200Y25590007D01*
X77571200Y25589994D01*
X77590364Y25358703D01*
X77590366Y25358692D01*
X77647342Y25133700D01*
X77740575Y24921152D01*
X77867516Y24726853D01*
X77867519Y24726849D01*
X77867521Y24726847D01*
X78024716Y24556087D01*
X78024719Y24556085D01*
X78024722Y24556082D01*
X78207865Y24413536D01*
X78207871Y24413532D01*
X78207874Y24413530D01*
X78411997Y24303064D01*
X78485504Y24277829D01*
X78631515Y24227703D01*
X78631517Y24227703D01*
X78631519Y24227702D01*
X78860451Y24189500D01*
X78860452Y24189500D01*
X79092548Y24189500D01*
X79092549Y24189500D01*
X79321481Y24227702D01*
X79541003Y24303064D01*
X79745126Y24413530D01*
X79748309Y24416007D01*
X79856350Y24500099D01*
X79928284Y24556087D01*
X80085479Y24726847D01*
X80212424Y24921151D01*
X80305657Y25133700D01*
X80362634Y25358695D01*
X80367185Y25413616D01*
X80381800Y25589994D01*
X80381800Y25590007D01*
X80362635Y25821298D01*
X80362633Y25821309D01*
X80305657Y26046301D01*
X80212424Y26258849D01*
X80085483Y26453148D01*
X80085480Y26453151D01*
X80085479Y26453153D01*
X79928284Y26623913D01*
X79877356Y26663552D01*
X79799374Y26724248D01*
X79758561Y26780958D01*
X79754887Y26850731D01*
X79789519Y26911414D01*
X79822955Y26934400D01*
X80874668Y27426802D01*
X80927246Y27438500D01*
X82353071Y27438500D01*
X82449400Y27457662D01*
X82478744Y27463499D01*
X82597127Y27512535D01*
X82614759Y27524316D01*
X82703669Y27583723D01*
X84537819Y29417873D01*
X84599142Y29451358D01*
X84668834Y29446374D01*
X84724767Y29404502D01*
X84749184Y29339038D01*
X84749500Y29330192D01*
X84749500Y21602429D01*
X84766535Y21516792D01*
X84766535Y21516791D01*
X84774496Y21476763D01*
X84774498Y21476758D01*
X84804656Y21403952D01*
X84823535Y21358373D01*
X84894723Y21251831D01*
X84894726Y21251827D01*
X84894727Y21251826D01*
X85174373Y20972181D01*
X85207858Y20910858D01*
X85202874Y20841167D01*
X85161003Y20785233D01*
X85095538Y20760816D01*
X85093289Y20760736D01*
X85090459Y20760502D01*
X84861515Y20722298D01*
X84642004Y20646939D01*
X84641995Y20646936D01*
X84437871Y20536469D01*
X84437865Y20536465D01*
X84254722Y20393919D01*
X84254719Y20393916D01*
X84097516Y20223148D01*
X83970575Y20028849D01*
X83877342Y19816301D01*
X83820366Y19591309D01*
X83820364Y19591298D01*
X83801200Y19360007D01*
X83801200Y19359994D01*
X83820364Y19128703D01*
X83820366Y19128692D01*
X83877342Y18903700D01*
X83970575Y18691152D01*
X84097516Y18496853D01*
X84097519Y18496849D01*
X84097521Y18496847D01*
X84254716Y18326087D01*
X84254719Y18326085D01*
X84254722Y18326082D01*
X84437865Y18183536D01*
X84437871Y18183532D01*
X84437874Y18183530D01*
X84448954Y18177534D01*
X84641152Y18073521D01*
X84641997Y18073064D01*
X84755987Y18033932D01*
X84861515Y17997703D01*
X84861517Y17997703D01*
X84861519Y17997702D01*
X85090451Y17959500D01*
X85090452Y17959500D01*
X85322548Y17959500D01*
X85322549Y17959500D01*
X85551481Y17997702D01*
X85771003Y18073064D01*
X85975126Y18183530D01*
X85975670Y18183953D01*
X86136537Y18309161D01*
X86158284Y18326087D01*
X86315479Y18496847D01*
X86337018Y18529815D01*
X86352691Y18553804D01*
X86405837Y18599161D01*
X86475069Y18608585D01*
X86538404Y18579083D01*
X86560309Y18553804D01*
X86597516Y18496853D01*
X86597519Y18496849D01*
X86597521Y18496847D01*
X86754716Y18326087D01*
X86754719Y18326085D01*
X86754722Y18326082D01*
X86937865Y18183536D01*
X86937871Y18183532D01*
X86937874Y18183530D01*
X86948954Y18177534D01*
X87141152Y18073521D01*
X87141997Y18073064D01*
X87255987Y18033932D01*
X87361515Y17997703D01*
X87361517Y17997703D01*
X87361519Y17997702D01*
X87590451Y17959500D01*
X87590452Y17959500D01*
X87822548Y17959500D01*
X87822549Y17959500D01*
X88051481Y17997702D01*
X88271003Y18073064D01*
X88475126Y18183530D01*
X88475670Y18183953D01*
X88636537Y18309161D01*
X88658284Y18326087D01*
X88815479Y18496847D01*
X88852991Y18554264D01*
X88906134Y18599618D01*
X88975365Y18609043D01*
X89038701Y18579542D01*
X89053414Y18562564D01*
X89055312Y18562367D01*
X89641887Y19148942D01*
X89647389Y19128409D01*
X89726381Y18991592D01*
X89838092Y18879881D01*
X89974909Y18800889D01*
X89995440Y18795388D01*
X89407701Y18207649D01*
X89438149Y18183950D01*
X89642197Y18073524D01*
X89642206Y18073521D01*
X89861639Y17998189D01*
X90090493Y17960000D01*
X90322507Y17960000D01*
X90551360Y17998189D01*
X90770793Y18073521D01*
X90770801Y18073524D01*
X90974855Y18183953D01*
X91005297Y18207649D01*
X91005298Y18207650D01*
X90417560Y18795388D01*
X90438091Y18800889D01*
X90574908Y18879881D01*
X90686619Y18991592D01*
X90765611Y19128409D01*
X90771112Y19148941D01*
X91357686Y18562367D01*
X91441982Y18691389D01*
X91535182Y18903865D01*
X91592138Y19128782D01*
X91611298Y19359995D01*
X91611298Y19360006D01*
X91592138Y19591219D01*
X91535182Y19816136D01*
X91441984Y20028607D01*
X91357686Y20157635D01*
X90771112Y19571061D01*
X90765611Y19591591D01*
X90686619Y19728408D01*
X90574908Y19840119D01*
X90438091Y19919111D01*
X90417558Y19924613D01*
X91005297Y20512353D01*
X91005297Y20512355D01*
X90974860Y20536045D01*
X90974854Y20536049D01*
X90770802Y20646477D01*
X90770793Y20646480D01*
X90551360Y20721812D01*
X90322507Y20760000D01*
X90090493Y20760000D01*
X89861639Y20721812D01*
X89642206Y20646480D01*
X89642197Y20646477D01*
X89438150Y20536051D01*
X89407700Y20512353D01*
X89995441Y19924613D01*
X89974909Y19919111D01*
X89838092Y19840119D01*
X89726381Y19728408D01*
X89647389Y19591591D01*
X89641887Y19571059D01*
X89055311Y20157635D01*
X89050529Y20157139D01*
X89007459Y20120382D01*
X88938228Y20110959D01*
X88874892Y20140462D01*
X88852989Y20165740D01*
X88815483Y20223148D01*
X88815480Y20223151D01*
X88815479Y20223153D01*
X88658284Y20393913D01*
X88658279Y20393917D01*
X88658277Y20393919D01*
X88475134Y20536465D01*
X88475123Y20536472D01*
X88270996Y20646940D01*
X88239846Y20657633D01*
X88221723Y20665521D01*
X88211573Y20670938D01*
X88211570Y20670939D01*
X88211567Y20670941D01*
X87316885Y20995012D01*
X86832538Y21170453D01*
X86787087Y21199359D01*
X86222441Y21764005D01*
X90951593Y21764005D01*
X90951593Y21763996D01*
X90971192Y21502455D01*
X90971193Y21502450D01*
X91029558Y21246730D01*
X91125383Y21002574D01*
X91125382Y21002574D01*
X91256527Y20775427D01*
X91304374Y20715429D01*
X91916022Y21327076D01*
X92007424Y21190283D01*
X92132783Y21064924D01*
X92269574Y20973523D01*
X91657330Y20361280D01*
X91829046Y20244207D01*
X91829050Y20244205D01*
X92065354Y20130406D01*
X92065358Y20130405D01*
X92315994Y20053093D01*
X92316000Y20053091D01*
X92575348Y20014001D01*
X92575357Y20014000D01*
X92837643Y20014000D01*
X92837651Y20014001D01*
X93096999Y20053091D01*
X93097005Y20053093D01*
X93347643Y20130405D01*
X93583945Y20244202D01*
X93583947Y20244203D01*
X93755668Y20361280D01*
X93143424Y20973523D01*
X93280217Y21064924D01*
X93405576Y21190283D01*
X93496977Y21327076D01*
X94108625Y20715428D01*
X94156471Y20775427D01*
X94287616Y21002574D01*
X94383441Y21246730D01*
X94441806Y21502450D01*
X94441807Y21502455D01*
X94461407Y21763996D01*
X94461407Y21764005D01*
X94441807Y22025546D01*
X94441806Y22025551D01*
X94383441Y22281271D01*
X94287616Y22525427D01*
X94287617Y22525427D01*
X94156471Y22752574D01*
X94021459Y22921875D01*
X93995050Y22986562D01*
X94007807Y23055257D01*
X94055677Y23106151D01*
X94070954Y23113749D01*
X94227355Y23178532D01*
X94227356Y23178533D01*
X94227359Y23178534D01*
X94442159Y23310164D01*
X94633724Y23473776D01*
X94797336Y23665341D01*
X94928966Y23880141D01*
X95025373Y24112889D01*
X95084183Y24357852D01*
X95103949Y24609000D01*
X96393051Y24609000D01*
X96412817Y24357849D01*
X96471626Y24112890D01*
X96568033Y23880141D01*
X96699660Y23665347D01*
X96699661Y23665344D01*
X96748464Y23608204D01*
X96863276Y23473776D01*
X96975564Y23377873D01*
X97054843Y23310162D01*
X97054846Y23310161D01*
X97269640Y23178534D01*
X97471156Y23095064D01*
X97502389Y23082127D01*
X97747352Y23023317D01*
X97998500Y23003551D01*
X98249648Y23023317D01*
X98494611Y23082127D01*
X98727359Y23178534D01*
X98942159Y23310164D01*
X99133724Y23473776D01*
X99297336Y23665341D01*
X99428966Y23880141D01*
X99525373Y24112889D01*
X99584183Y24357852D01*
X99603949Y24609000D01*
X99584183Y24860148D01*
X99525373Y25105111D01*
X99513531Y25133700D01*
X99428966Y25337860D01*
X99297339Y25552654D01*
X99297338Y25552657D01*
X99230166Y25631305D01*
X99133724Y25744224D01*
X98994025Y25863538D01*
X98942156Y25907839D01*
X98942153Y25907840D01*
X98727359Y26039467D01*
X98494610Y26135874D01*
X98249651Y26194683D01*
X97998500Y26214449D01*
X97747348Y26194683D01*
X97502389Y26135874D01*
X97269640Y26039467D01*
X97054846Y25907840D01*
X97054843Y25907839D01*
X96863276Y25744224D01*
X96699661Y25552657D01*
X96699660Y25552654D01*
X96568033Y25337860D01*
X96471626Y25105111D01*
X96412817Y24860152D01*
X96393051Y24609000D01*
X95103949Y24609000D01*
X95084183Y24860148D01*
X95025373Y25105111D01*
X95013531Y25133700D01*
X94928966Y25337860D01*
X94797339Y25552654D01*
X94797338Y25552657D01*
X94730166Y25631305D01*
X94633724Y25744224D01*
X94494025Y25863538D01*
X94442156Y25907839D01*
X94442153Y25907840D01*
X94227359Y26039467D01*
X93994610Y26135874D01*
X93749651Y26194683D01*
X93498500Y26214449D01*
X93247348Y26194683D01*
X93002389Y26135874D01*
X92769640Y26039467D01*
X92554846Y25907840D01*
X92554843Y25907839D01*
X92363276Y25744224D01*
X92199661Y25552657D01*
X92199660Y25552654D01*
X92068033Y25337860D01*
X91971626Y25105111D01*
X91912817Y24860152D01*
X91893051Y24609000D01*
X91912817Y24357849D01*
X91971626Y24112890D01*
X92068033Y23880141D01*
X92199660Y23665347D01*
X92199661Y23665345D01*
X92199662Y23665344D01*
X92199664Y23665341D01*
X92230155Y23629641D01*
X92258725Y23565880D01*
X92248288Y23496794D01*
X92202157Y23444318D01*
X92172414Y23430619D01*
X92065358Y23397596D01*
X92065354Y23397595D01*
X91829047Y23283795D01*
X91829039Y23283790D01*
X91657330Y23166723D01*
X92269575Y22554478D01*
X92132783Y22463076D01*
X92007424Y22337717D01*
X91916022Y22200925D01*
X91304374Y22812573D01*
X91256528Y22752575D01*
X91125383Y22525427D01*
X91029558Y22281271D01*
X90971193Y22025551D01*
X90971192Y22025546D01*
X90951593Y21764005D01*
X86222441Y21764005D01*
X86086819Y21899627D01*
X86053334Y21960950D01*
X86050500Y21987308D01*
X86050500Y23880552D01*
X86556000Y23880552D01*
X86556000Y23699449D01*
X86584329Y23520590D01*
X86640287Y23348364D01*
X86640288Y23348361D01*
X86681027Y23268408D01*
X86713587Y23204506D01*
X86722506Y23187003D01*
X86828941Y23040506D01*
X86828945Y23040501D01*
X86957000Y22912446D01*
X86957005Y22912442D01*
X86999913Y22881268D01*
X87103506Y22806004D01*
X87205677Y22753945D01*
X87264860Y22723789D01*
X87264863Y22723788D01*
X87325517Y22704081D01*
X87437091Y22667829D01*
X87519929Y22654709D01*
X87615949Y22639500D01*
X87615954Y22639500D01*
X87797051Y22639500D01*
X87883759Y22653235D01*
X87975909Y22667829D01*
X88148139Y22723789D01*
X88309494Y22806004D01*
X88456001Y22912447D01*
X88584053Y23040499D01*
X88690496Y23187006D01*
X88772711Y23348361D01*
X88828671Y23520591D01*
X88844890Y23622992D01*
X88857000Y23699449D01*
X88857000Y23880552D01*
X88833500Y24028920D01*
X88828671Y24059409D01*
X88786403Y24189500D01*
X88772712Y24231637D01*
X88772711Y24231640D01*
X88720663Y24333788D01*
X88690496Y24392994D01*
X88661327Y24433142D01*
X88584058Y24539495D01*
X88584054Y24539500D01*
X88455999Y24667555D01*
X88455994Y24667559D01*
X88309497Y24773994D01*
X88309496Y24773995D01*
X88309494Y24773996D01*
X88257800Y24800336D01*
X88148139Y24856212D01*
X88148136Y24856213D01*
X87975910Y24912171D01*
X87797051Y24940500D01*
X87797046Y24940500D01*
X87615954Y24940500D01*
X87615949Y24940500D01*
X87437089Y24912171D01*
X87264863Y24856213D01*
X87264860Y24856212D01*
X87103502Y24773994D01*
X86957005Y24667559D01*
X86957000Y24667555D01*
X86828945Y24539500D01*
X86828941Y24539495D01*
X86722506Y24392998D01*
X86640288Y24231640D01*
X86640287Y24231637D01*
X86584329Y24059411D01*
X86556000Y23880552D01*
X86050500Y23880552D01*
X86050500Y32480552D01*
X86556000Y32480552D01*
X86556000Y32299449D01*
X86584329Y32120590D01*
X86640287Y31948364D01*
X86640288Y31948361D01*
X86685234Y31860152D01*
X86714496Y31802722D01*
X86722506Y31787003D01*
X86828941Y31640506D01*
X86828945Y31640501D01*
X86957000Y31512446D01*
X86957005Y31512442D01*
X87044914Y31448573D01*
X87103506Y31406004D01*
X87163081Y31375649D01*
X87264860Y31323789D01*
X87264863Y31323788D01*
X87323889Y31304610D01*
X87437091Y31267829D01*
X87515268Y31255447D01*
X87615949Y31239500D01*
X87615954Y31239500D01*
X87797051Y31239500D01*
X87883759Y31253235D01*
X87975909Y31267829D01*
X88148139Y31323789D01*
X88309494Y31406004D01*
X88456001Y31512447D01*
X88584053Y31640499D01*
X88690496Y31787006D01*
X88772711Y31948361D01*
X88828671Y32120591D01*
X88847399Y32238834D01*
X88857000Y32299449D01*
X88857000Y32480552D01*
X88838080Y32600003D01*
X88828671Y32659409D01*
X88772711Y32831639D01*
X88772711Y32831640D01*
X88718431Y32938168D01*
X88690496Y32992994D01*
X88615599Y33096082D01*
X88584058Y33139495D01*
X88584054Y33139500D01*
X88455999Y33267555D01*
X88455994Y33267559D01*
X88309497Y33373994D01*
X88309496Y33373995D01*
X88309494Y33373996D01*
X88257800Y33400336D01*
X88148139Y33456212D01*
X88148136Y33456213D01*
X87975910Y33512171D01*
X87797051Y33540500D01*
X87797046Y33540500D01*
X87615954Y33540500D01*
X87615949Y33540500D01*
X87437089Y33512171D01*
X87264863Y33456213D01*
X87264860Y33456212D01*
X87103502Y33373994D01*
X86957005Y33267559D01*
X86957000Y33267555D01*
X86828945Y33139500D01*
X86828941Y33139495D01*
X86722506Y32992998D01*
X86640288Y32831640D01*
X86640287Y32831637D01*
X86584329Y32659411D01*
X86556000Y32480552D01*
X86050500Y32480552D01*
X86050500Y34414005D01*
X90951593Y34414005D01*
X90951593Y34413996D01*
X90971192Y34152455D01*
X90971193Y34152450D01*
X91029558Y33896730D01*
X91125383Y33652574D01*
X91125382Y33652574D01*
X91256527Y33425427D01*
X91304374Y33365429D01*
X91916022Y33977076D01*
X92007424Y33840283D01*
X92132783Y33714924D01*
X92269574Y33623523D01*
X91657330Y33011280D01*
X91829046Y32894207D01*
X91829050Y32894205D01*
X92065354Y32780406D01*
X92065361Y32780403D01*
X92145373Y32755723D01*
X92203632Y32717153D01*
X92231790Y32653209D01*
X92220908Y32584192D01*
X92203119Y32556705D01*
X92199663Y32552659D01*
X92199662Y32552657D01*
X92068033Y32337860D01*
X91971626Y32105111D01*
X91912817Y31860152D01*
X91893051Y31609000D01*
X91912817Y31357849D01*
X91971626Y31112890D01*
X92068033Y30880141D01*
X92199660Y30665347D01*
X92199661Y30665344D01*
X92214312Y30648190D01*
X92363276Y30473776D01*
X92492332Y30363552D01*
X92554843Y30310162D01*
X92554845Y30310162D01*
X92564996Y30303941D01*
X92769640Y30178534D01*
X92952854Y30102645D01*
X93002389Y30082127D01*
X93247352Y30023317D01*
X93498500Y30003551D01*
X93749648Y30023317D01*
X93994611Y30082127D01*
X94227359Y30178534D01*
X94442159Y30310164D01*
X94633724Y30473776D01*
X94797336Y30665341D01*
X94928966Y30880141D01*
X95025373Y31112889D01*
X95084183Y31357852D01*
X95103949Y31609000D01*
X96393552Y31609000D01*
X96413312Y31357928D01*
X96472103Y31113044D01*
X96568480Y30880369D01*
X96700068Y30665638D01*
X96700766Y30664821D01*
X97282652Y31246707D01*
X97289549Y31230058D01*
X97377099Y31099030D01*
X97488530Y30987599D01*
X97619558Y30900049D01*
X97636205Y30893154D01*
X97054319Y30311268D01*
X97054319Y30311267D01*
X97055134Y30310571D01*
X97269868Y30178981D01*
X97502543Y30082604D01*
X97747427Y30023813D01*
X97998500Y30004053D01*
X98249572Y30023813D01*
X98494456Y30082604D01*
X98727131Y30178981D01*
X98941861Y30310568D01*
X98941863Y30310570D01*
X98942680Y30311268D01*
X98360794Y30893154D01*
X98377442Y30900049D01*
X98508470Y30987599D01*
X98619901Y31099030D01*
X98707451Y31230058D01*
X98714346Y31246706D01*
X99296232Y30664820D01*
X99296930Y30665637D01*
X99296932Y30665639D01*
X99428519Y30880369D01*
X99524896Y31113044D01*
X99583687Y31357928D01*
X99603447Y31609000D01*
X99583687Y31860073D01*
X99524896Y32104957D01*
X99428519Y32337632D01*
X99296929Y32552366D01*
X99296233Y32553181D01*
X99296232Y32553181D01*
X98714346Y31971295D01*
X98707451Y31987942D01*
X98619901Y32118970D01*
X98508470Y32230401D01*
X98377442Y32317951D01*
X98360793Y32324847D01*
X98942679Y32906734D01*
X98941862Y32907432D01*
X98727131Y33039020D01*
X98494456Y33135397D01*
X98249572Y33194188D01*
X97998500Y33213948D01*
X97747427Y33194188D01*
X97502543Y33135397D01*
X97269868Y33039020D01*
X97055137Y32907433D01*
X97054319Y32906734D01*
X97636206Y32324847D01*
X97619558Y32317951D01*
X97488530Y32230401D01*
X97377099Y32118970D01*
X97289549Y31987942D01*
X97282653Y31971294D01*
X96700766Y32553181D01*
X96700067Y32552363D01*
X96568480Y32337632D01*
X96472103Y32104957D01*
X96413312Y31860073D01*
X96393552Y31609000D01*
X95103949Y31609000D01*
X95084183Y31860148D01*
X95025373Y32105111D01*
X95018961Y32120591D01*
X94928966Y32337860D01*
X94797517Y32552363D01*
X94797338Y32552655D01*
X94797338Y32552657D01*
X94760375Y32595934D01*
X94633724Y32744224D01*
X94507071Y32852396D01*
X94442156Y32907839D01*
X94442153Y32907840D01*
X94227359Y33039467D01*
X94094931Y33094320D01*
X94040528Y33138161D01*
X94018463Y33204455D01*
X94035742Y33272155D01*
X94045437Y33286194D01*
X94156472Y33425427D01*
X94287616Y33652574D01*
X94383441Y33896730D01*
X94441806Y34152450D01*
X94441807Y34152455D01*
X94461407Y34413996D01*
X94461407Y34414005D01*
X94441807Y34675546D01*
X94441806Y34675551D01*
X94383441Y34931271D01*
X94287616Y35175427D01*
X94287617Y35175427D01*
X94156472Y35402574D01*
X94108624Y35462573D01*
X93496977Y34850926D01*
X93405576Y34987717D01*
X93280217Y35113076D01*
X93143424Y35204478D01*
X93755668Y35816722D01*
X93583954Y35933794D01*
X93583945Y35933799D01*
X93347642Y36047596D01*
X93347644Y36047596D01*
X93097005Y36124908D01*
X93096999Y36124910D01*
X92837651Y36164000D01*
X92575348Y36164000D01*
X92316000Y36124910D01*
X92315994Y36124908D01*
X92065358Y36047596D01*
X92065354Y36047595D01*
X91829047Y35933795D01*
X91829039Y35933790D01*
X91657330Y35816723D01*
X92269575Y35204478D01*
X92132783Y35113076D01*
X92007424Y34987717D01*
X91916022Y34850925D01*
X91304374Y35462573D01*
X91256528Y35402575D01*
X91125383Y35175427D01*
X91029558Y34931271D01*
X90971193Y34675551D01*
X90971192Y34675546D01*
X90951593Y34414005D01*
X86050500Y34414005D01*
X86050500Y36464072D01*
X86025502Y36589739D01*
X86025501Y36589740D01*
X86025501Y36589744D01*
X85976465Y36708127D01*
X85966139Y36723581D01*
X85966139Y36723582D01*
X85905277Y36814669D01*
X85905271Y36814676D01*
X82782126Y39937820D01*
X82748641Y39999143D01*
X82753625Y40068835D01*
X82795497Y40124768D01*
X82860961Y40149185D01*
X82869807Y40149501D01*
X94555830Y40149501D01*
X94595572Y40149501D01*
X94604418Y40149185D01*
X94840140Y40132327D01*
X94857641Y40129810D01*
X95084229Y40080519D01*
X95101188Y40075540D01*
X95238672Y40024261D01*
X95318462Y39994500D01*
X95334555Y39987150D01*
X95413033Y39944298D01*
X95535888Y39877214D01*
X95538068Y39876024D01*
X95552951Y39866459D01*
X95738579Y39727500D01*
X95751950Y39715914D01*
X95915910Y39551954D01*
X95927496Y39538583D01*
X96066460Y39352949D01*
X96076025Y39338066D01*
X96187149Y39134557D01*
X96194499Y39118464D01*
X96275536Y38901198D01*
X96280520Y38884222D01*
X96329807Y38657649D01*
X96332325Y38640138D01*
X96340456Y38526465D01*
X96348830Y38409377D01*
X96349184Y38404435D01*
X96349500Y38395588D01*
X96349500Y37403401D01*
X96349499Y37403005D01*
X96349077Y37271062D01*
X96349078Y37271055D01*
X96381132Y37000127D01*
X96381134Y37000115D01*
X96445683Y36735025D01*
X96445685Y36735019D01*
X96445686Y36735016D01*
X96541773Y36479687D01*
X96541777Y36479677D01*
X96541779Y36479673D01*
X96668016Y36237798D01*
X96707864Y36179815D01*
X96822541Y36012948D01*
X96822543Y36012946D01*
X96822545Y36012943D01*
X96995754Y35816723D01*
X97003104Y35808397D01*
X97207033Y35627173D01*
X97207039Y35627169D01*
X97207045Y35627163D01*
X97207051Y35627159D01*
X97207056Y35627155D01*
X97402600Y35491812D01*
X97431386Y35471888D01*
X97672840Y35344848D01*
X97927871Y35247904D01*
X98192745Y35182475D01*
X98463582Y35149519D01*
X98537318Y35149510D01*
X98537398Y35149501D01*
X98550172Y35149501D01*
X98600000Y35149501D01*
X98644170Y35149501D01*
X99555830Y35149501D01*
X99595572Y35149501D01*
X99604418Y35149185D01*
X99840140Y35132327D01*
X99857641Y35129810D01*
X100084229Y35080519D01*
X100101188Y35075540D01*
X100224402Y35029583D01*
X100318462Y34994500D01*
X100334555Y34987150D01*
X100538068Y34876024D01*
X100552951Y34866459D01*
X100736011Y34729422D01*
X100738579Y34727500D01*
X100751950Y34715914D01*
X100915910Y34551954D01*
X100927496Y34538583D01*
X101066460Y34352949D01*
X101076025Y34338066D01*
X101187149Y34134557D01*
X101194499Y34118464D01*
X101275536Y33901198D01*
X101280520Y33884222D01*
X101329807Y33657649D01*
X101332325Y33640138D01*
X101345110Y33461389D01*
X101347726Y33424812D01*
X101349184Y33404435D01*
X101349500Y33395588D01*
X101349500Y3404437D01*
X101349184Y3395591D01*
X101332326Y3159875D01*
X101329808Y3142363D01*
X101280520Y2915785D01*
X101275536Y2898810D01*
X101194501Y2681544D01*
X101187151Y2665451D01*
X101076030Y2461946D01*
X101066466Y2447062D01*
X100927499Y2261421D01*
X100915912Y2248050D01*
X100751955Y2084093D01*
X100738584Y2072507D01*
X100552950Y1933543D01*
X100538067Y1923978D01*
X100334557Y1812852D01*
X100318464Y1805502D01*
X100101198Y1724466D01*
X100084222Y1719482D01*
X99857647Y1670194D01*
X99840136Y1667676D01*
X99630436Y1652677D01*
X99604584Y1650828D01*
X99595740Y1650512D01*
X99544970Y1650512D01*
X99544845Y1650501D01*
X73604442Y1650501D01*
X73595577Y1650818D01*
X73595437Y1650828D01*
X73360375Y1667676D01*
X73359357Y1667749D01*
X73341809Y1670278D01*
X73114779Y1719773D01*
X73097772Y1724778D01*
X73027181Y1751168D01*
X72880113Y1806148D01*
X72863993Y1813528D01*
X72660167Y1925105D01*
X72645264Y1934708D01*
X72459433Y2074214D01*
X72446051Y2085845D01*
X72282019Y2250423D01*
X72270433Y2263842D01*
X72131542Y2450139D01*
X72121988Y2465075D01*
X72011089Y2669270D01*
X72003763Y2685415D01*
X71987539Y2729256D01*
X71923113Y2903352D01*
X71918170Y2920361D01*
X71869428Y3147562D01*
X71866958Y3165114D01*
X71864529Y3200658D01*
X71850800Y3401575D01*
X71850514Y3410427D01*
X71850676Y3459394D01*
X71850500Y3461452D01*
X71850500Y6400003D01*
X73279630Y6400003D01*
X73279630Y6399998D01*
X73299094Y6041008D01*
X73299095Y6040991D01*
X73357255Y5686232D01*
X73357260Y5686211D01*
X73453438Y5339807D01*
X73453439Y5339805D01*
X73586509Y5005823D01*
X73586511Y5005820D01*
X73586514Y5005813D01*
X73754917Y4688170D01*
X73956676Y4390598D01*
X73956680Y4390593D01*
X73956681Y4390592D01*
X73956682Y4390590D01*
X74129766Y4186820D01*
X74189426Y4116583D01*
X74450438Y3869340D01*
X74736651Y3651766D01*
X75044711Y3466413D01*
X75044716Y3466411D01*
X75044719Y3466409D01*
X75197790Y3395591D01*
X75371004Y3315454D01*
X75711707Y3200658D01*
X76062824Y3123371D01*
X76420239Y3084500D01*
X76420245Y3084500D01*
X76779755Y3084500D01*
X76779761Y3084500D01*
X77137176Y3123371D01*
X77488293Y3200658D01*
X77828996Y3315454D01*
X78155289Y3466413D01*
X78463349Y3651766D01*
X78749562Y3869340D01*
X79010574Y4116583D01*
X79243324Y4390598D01*
X79445083Y4688170D01*
X79613486Y5005813D01*
X79746559Y5339801D01*
X79842742Y5686219D01*
X79900906Y6041005D01*
X79920370Y6400000D01*
X79920370Y6400003D01*
X93279630Y6400003D01*
X93279630Y6399998D01*
X93299094Y6041008D01*
X93299095Y6040991D01*
X93357255Y5686232D01*
X93357260Y5686211D01*
X93453438Y5339807D01*
X93453439Y5339805D01*
X93586509Y5005823D01*
X93586511Y5005820D01*
X93586514Y5005813D01*
X93754917Y4688170D01*
X93956676Y4390598D01*
X93956680Y4390593D01*
X93956681Y4390592D01*
X93956682Y4390590D01*
X94129766Y4186820D01*
X94189426Y4116583D01*
X94450438Y3869340D01*
X94736651Y3651766D01*
X95044711Y3466413D01*
X95044716Y3466411D01*
X95044719Y3466409D01*
X95197790Y3395591D01*
X95371004Y3315454D01*
X95711707Y3200658D01*
X96062824Y3123371D01*
X96420239Y3084500D01*
X96420245Y3084500D01*
X96779755Y3084500D01*
X96779761Y3084500D01*
X97137176Y3123371D01*
X97488293Y3200658D01*
X97828996Y3315454D01*
X98155289Y3466413D01*
X98463349Y3651766D01*
X98749562Y3869340D01*
X99010574Y4116583D01*
X99243324Y4390598D01*
X99445083Y4688170D01*
X99613486Y5005813D01*
X99746559Y5339801D01*
X99842742Y5686219D01*
X99900906Y6041005D01*
X99920370Y6400000D01*
X99900906Y6758995D01*
X99842742Y7113781D01*
X99776618Y7351937D01*
X99746561Y7460194D01*
X99746560Y7460196D01*
X99744075Y7466432D01*
X99613486Y7794187D01*
X99445083Y8111830D01*
X99243324Y8409402D01*
X99243317Y8409410D01*
X99243317Y8409411D01*
X99010581Y8683409D01*
X99010576Y8683415D01*
X98749566Y8930656D01*
X98749567Y8930656D01*
X98749562Y8930660D01*
X98463349Y9148234D01*
X98463345Y9148237D01*
X98463343Y9148238D01*
X98314128Y9238017D01*
X98155289Y9333587D01*
X98155286Y9333589D01*
X98155280Y9333592D01*
X97829006Y9484542D01*
X97829001Y9484544D01*
X97828996Y9484546D01*
X97662921Y9540503D01*
X97488292Y9599343D01*
X97137174Y9676630D01*
X96779762Y9715500D01*
X96779761Y9715500D01*
X96420239Y9715500D01*
X96420237Y9715500D01*
X96062825Y9676630D01*
X95711707Y9599343D01*
X95448337Y9510603D01*
X95371004Y9484546D01*
X95371001Y9484545D01*
X95370993Y9484542D01*
X95044719Y9333592D01*
X94736656Y9148238D01*
X94450433Y8930656D01*
X94189423Y8683415D01*
X94189418Y8683409D01*
X93956682Y8409411D01*
X93956681Y8409409D01*
X93956677Y8409404D01*
X93956676Y8409402D01*
X93950302Y8400001D01*
X93754923Y8111840D01*
X93754920Y8111835D01*
X93754917Y8111830D01*
X93652448Y7918552D01*
X93586511Y7794181D01*
X93586509Y7794178D01*
X93453439Y7460196D01*
X93453438Y7460194D01*
X93357260Y7113790D01*
X93357255Y7113769D01*
X93299095Y6759010D01*
X93299094Y6758993D01*
X93279630Y6400003D01*
X79920370Y6400003D01*
X79900906Y6758995D01*
X79842742Y7113781D01*
X79776618Y7351937D01*
X79746561Y7460194D01*
X79746560Y7460196D01*
X79744075Y7466432D01*
X79613486Y7794187D01*
X79445083Y8111830D01*
X79243324Y8409402D01*
X79243317Y8409410D01*
X79243317Y8409411D01*
X79010581Y8683409D01*
X79010576Y8683415D01*
X78749566Y8930656D01*
X78749567Y8930656D01*
X78749562Y8930660D01*
X78463349Y9148234D01*
X78463345Y9148237D01*
X78463343Y9148238D01*
X78314128Y9238017D01*
X78155289Y9333587D01*
X78155286Y9333589D01*
X78155280Y9333592D01*
X77829006Y9484542D01*
X77829001Y9484544D01*
X77828996Y9484546D01*
X77662921Y9540503D01*
X77488292Y9599343D01*
X77137174Y9676630D01*
X76779762Y9715500D01*
X76779761Y9715500D01*
X76420239Y9715500D01*
X76420237Y9715500D01*
X76062825Y9676630D01*
X75711707Y9599343D01*
X75448337Y9510603D01*
X75371004Y9484546D01*
X75371001Y9484545D01*
X75370993Y9484542D01*
X75044719Y9333592D01*
X74736656Y9148238D01*
X74450433Y8930656D01*
X74189423Y8683415D01*
X74189418Y8683409D01*
X73956682Y8409411D01*
X73956681Y8409409D01*
X73956677Y8409404D01*
X73956676Y8409402D01*
X73950302Y8400001D01*
X73754923Y8111840D01*
X73754920Y8111835D01*
X73754917Y8111830D01*
X73652448Y7918552D01*
X73586511Y7794181D01*
X73586509Y7794178D01*
X73453439Y7460196D01*
X73453438Y7460194D01*
X73357260Y7113790D01*
X73357255Y7113769D01*
X73299095Y6759010D01*
X73299094Y6758993D01*
X73279630Y6400003D01*
X71850500Y6400003D01*
X71850500Y8348638D01*
X71850501Y8348642D01*
X71850501Y8536134D01*
X71842178Y8604675D01*
X71817683Y8806407D01*
X71752527Y9070755D01*
X71655982Y9325323D01*
X71529456Y9566398D01*
X71374794Y9790464D01*
X71374789Y9790470D01*
X71194253Y9994253D01*
X71194251Y9994255D01*
X70990468Y10174791D01*
X70990465Y10174793D01*
X70990463Y10174795D01*
X70766397Y10329457D01*
X70525322Y10455982D01*
X70270759Y10552526D01*
X70207544Y10568107D01*
X70006405Y10617683D01*
X69844240Y10637374D01*
X69736132Y10650501D01*
X69736130Y10650501D01*
X69649828Y10650501D01*
X4603482Y10650501D01*
X4596529Y10650696D01*
X4299106Y10667399D01*
X4285288Y10668956D01*
X3995046Y10718271D01*
X3981489Y10721365D01*
X3698586Y10802868D01*
X3685462Y10807461D01*
X3413472Y10920122D01*
X3400943Y10926155D01*
X3143273Y11068565D01*
X3131499Y11075963D01*
X2891395Y11246325D01*
X2880523Y11254995D01*
X2661002Y11451171D01*
X2651169Y11461004D01*
X2646339Y11466409D01*
X2454985Y11680535D01*
X2446325Y11691396D01*
X2275959Y11931504D01*
X2268572Y11943259D01*
X2126150Y12200952D01*
X2120124Y12213466D01*
X2007459Y12485463D01*
X2002866Y12498588D01*
X1929011Y12754944D01*
X1921362Y12781493D01*
X1918269Y12795048D01*
X1905683Y12869126D01*
X1868953Y13085299D01*
X1867399Y13099099D01*
X1853882Y13339805D01*
X1850695Y13396553D01*
X1850500Y13403505D01*
X1850500Y14400003D01*
X21279630Y14400003D01*
X21279630Y14399998D01*
X21280761Y14379141D01*
X21298633Y14049500D01*
X21299094Y14041008D01*
X21299095Y14040991D01*
X21357255Y13686232D01*
X21357260Y13686211D01*
X21453438Y13339807D01*
X21453439Y13339805D01*
X21586509Y13005823D01*
X21586511Y13005820D01*
X21586514Y13005813D01*
X21754917Y12688170D01*
X21956676Y12390598D01*
X21956680Y12390593D01*
X21956681Y12390592D01*
X21956682Y12390590D01*
X22131982Y12184211D01*
X22189426Y12116583D01*
X22450438Y11869340D01*
X22736651Y11651766D01*
X23044711Y11466413D01*
X23044716Y11466411D01*
X23044719Y11466409D01*
X23370993Y11315459D01*
X23371004Y11315454D01*
X23711707Y11200658D01*
X24062824Y11123371D01*
X24420239Y11084500D01*
X24420245Y11084500D01*
X24779755Y11084500D01*
X24779761Y11084500D01*
X25137176Y11123371D01*
X25488293Y11200658D01*
X25828996Y11315454D01*
X26155289Y11466413D01*
X26463349Y11651766D01*
X26749562Y11869340D01*
X27010574Y12116583D01*
X27243324Y12390598D01*
X27445083Y12688170D01*
X27613486Y13005813D01*
X27746559Y13339801D01*
X27764247Y13403505D01*
X27791673Y13502285D01*
X27842742Y13686219D01*
X27882601Y13929348D01*
X27900904Y14040991D01*
X27900904Y14040994D01*
X27900906Y14041005D01*
X27920061Y14394297D01*
X27920370Y14399998D01*
X27920370Y14400003D01*
X27915675Y14486599D01*
X27900906Y14758995D01*
X27884863Y14856852D01*
X27842744Y15113769D01*
X27842743Y15113770D01*
X27842742Y15113781D01*
X27776618Y15351937D01*
X27746561Y15460194D01*
X27746560Y15460196D01*
X27746019Y15461553D01*
X27621331Y15774498D01*
X27613490Y15794178D01*
X27613488Y15794181D01*
X27613486Y15794187D01*
X27445083Y16111830D01*
X27243324Y16409402D01*
X27243317Y16409410D01*
X27243317Y16409411D01*
X27010581Y16683409D01*
X27010576Y16683415D01*
X26979398Y16712948D01*
X26749562Y16930660D01*
X26463349Y17148234D01*
X26463345Y17148237D01*
X26463343Y17148238D01*
X26245011Y17279603D01*
X26155289Y17333587D01*
X26155286Y17333589D01*
X26155280Y17333592D01*
X25829006Y17484542D01*
X25829001Y17484544D01*
X25828996Y17484546D01*
X25662921Y17540503D01*
X25488292Y17599343D01*
X25137174Y17676630D01*
X24779762Y17715500D01*
X24779761Y17715500D01*
X24420239Y17715500D01*
X24420237Y17715500D01*
X24062825Y17676630D01*
X23711707Y17599343D01*
X23448337Y17510603D01*
X23371004Y17484546D01*
X23371001Y17484545D01*
X23370993Y17484542D01*
X23044719Y17333592D01*
X22736656Y17148238D01*
X22652216Y17084048D01*
X22451166Y16931213D01*
X22450433Y16930656D01*
X22189423Y16683415D01*
X22189418Y16683409D01*
X21956682Y16409411D01*
X21956681Y16409409D01*
X21956677Y16409404D01*
X21956676Y16409402D01*
X21907145Y16336351D01*
X21754923Y16111840D01*
X21754920Y16111835D01*
X21754917Y16111830D01*
X21639816Y15894725D01*
X21586511Y15794181D01*
X21586509Y15794178D01*
X21453439Y15460196D01*
X21453438Y15460194D01*
X21357260Y15113790D01*
X21357255Y15113769D01*
X21299095Y14759010D01*
X21299094Y14758997D01*
X21299094Y14758995D01*
X21298321Y14744729D01*
X21279630Y14400003D01*
X1850500Y14400003D01*
X1850500Y27906140D01*
X9949500Y27906140D01*
X9949500Y19134607D01*
X9953474Y19114631D01*
X9969046Y19036347D01*
X9974499Y19008933D01*
X10023535Y18890550D01*
X10031158Y18879141D01*
X10094726Y18784004D01*
X10094727Y18784003D01*
X11562853Y17315878D01*
X11582218Y17290784D01*
X11788249Y16938397D01*
X11791622Y16932057D01*
X11795376Y16926084D01*
X11797431Y16922693D01*
X11799248Y16919585D01*
X11809059Y16903499D01*
X11810346Y16901728D01*
X11815025Y16894811D01*
X11883819Y16785327D01*
X11888126Y16778473D01*
X12015680Y16650919D01*
X12168420Y16554946D01*
X12216792Y16538020D01*
X12338687Y16495367D01*
X12338692Y16495366D01*
X12517938Y16475170D01*
X12517942Y16475170D01*
X12517946Y16475170D01*
X12697191Y16495366D01*
X12697194Y16495367D01*
X12697197Y16495367D01*
X12867464Y16554946D01*
X13020204Y16650919D01*
X13147758Y16778473D01*
X13243731Y16931213D01*
X13303310Y17101480D01*
X13308578Y17148234D01*
X13323507Y17280732D01*
X13323507Y17280739D01*
X13303311Y17459985D01*
X13303310Y17459990D01*
X13261577Y17579255D01*
X13243731Y17630257D01*
X13229554Y17652819D01*
X13168792Y17749522D01*
X13147758Y17782997D01*
X13020204Y17910551D01*
X13020202Y17910553D01*
X13020200Y17910554D01*
X12884930Y17995551D01*
X12880861Y17998220D01*
X12879111Y17999418D01*
X12879108Y17999420D01*
X12875942Y18001271D01*
X12872584Y18003306D01*
X12867464Y18006524D01*
X12867461Y18006525D01*
X12866621Y18007053D01*
X12860297Y18010419D01*
X12507891Y18216461D01*
X12482797Y18235826D01*
X11286819Y19431804D01*
X11253334Y19493127D01*
X11250500Y19519485D01*
X11250500Y24531569D01*
X11270185Y24598608D01*
X11322989Y24644363D01*
X11374496Y24655569D01*
X12074856Y24655569D01*
X12099419Y24652454D01*
X12099509Y24652942D01*
X12103843Y24652151D01*
X12103863Y24652145D01*
X13435715Y24505781D01*
X13500202Y24478891D01*
X13509850Y24470204D01*
X13831123Y24148931D01*
X13864608Y24087608D01*
X13867442Y24061250D01*
X13867442Y17980939D01*
X13863391Y17949502D01*
X13754375Y17533554D01*
X13748742Y17510289D01*
X13748624Y17510318D01*
X13744616Y17494407D01*
X13732574Y17459990D01*
X13732572Y17459984D01*
X13712377Y17280739D01*
X13712377Y17280732D01*
X13732572Y17101486D01*
X13732573Y17101481D01*
X13792153Y16931212D01*
X13816872Y16891873D01*
X13888126Y16778473D01*
X14015680Y16650919D01*
X14168420Y16554946D01*
X14216792Y16538020D01*
X14338687Y16495367D01*
X14338692Y16495366D01*
X14517938Y16475170D01*
X14517942Y16475170D01*
X14517946Y16475170D01*
X14697191Y16495366D01*
X14697194Y16495367D01*
X14697197Y16495367D01*
X14867464Y16554946D01*
X15020204Y16650919D01*
X15147758Y16778473D01*
X15243731Y16931213D01*
X15303310Y17101480D01*
X15308578Y17148234D01*
X15323507Y17280732D01*
X15323507Y17280739D01*
X15303311Y17459982D01*
X15303310Y17459989D01*
X15303310Y17459990D01*
X15287999Y17503745D01*
X15281839Y17530657D01*
X15281511Y17533538D01*
X15172493Y17949500D01*
X15168442Y17980937D01*
X15168442Y24446130D01*
X15143444Y24571797D01*
X15143443Y24571798D01*
X15143443Y24571802D01*
X15094407Y24690185D01*
X15084449Y24705088D01*
X15023219Y24796727D01*
X15023217Y24796729D01*
X15023215Y24796732D01*
X15023214Y24796733D01*
X14332948Y25486998D01*
X14316362Y25507564D01*
X14288944Y25550159D01*
X13915471Y26130375D01*
X13915471Y26130376D01*
X13834231Y26256588D01*
X13814499Y26323613D01*
X13814499Y26603939D01*
X13814498Y26603945D01*
X13812351Y26623915D01*
X13808091Y26663551D01*
X13785720Y26723530D01*
X13757797Y26798397D01*
X13757793Y26798404D01*
X13671547Y26913613D01*
X13671544Y26913616D01*
X13556335Y26999862D01*
X13556328Y26999866D01*
X13421482Y27050160D01*
X13421483Y27050160D01*
X13361883Y27056567D01*
X13361881Y27056568D01*
X13361873Y27056568D01*
X13361865Y27056568D01*
X11374500Y27056568D01*
X11307461Y27076253D01*
X11261706Y27129057D01*
X11250500Y27180568D01*
X11250500Y27521261D01*
X11270185Y27588300D01*
X11286815Y27608938D01*
X11485704Y27807828D01*
X11523832Y27833813D01*
X12249652Y28150195D01*
X12697108Y28345239D01*
X12746656Y28355569D01*
X13361871Y28355569D01*
X13361872Y28355569D01*
X13421483Y28361977D01*
X13556331Y28412272D01*
X13671546Y28498522D01*
X13757796Y28613737D01*
X13808091Y28748585D01*
X13814500Y28808195D01*
X13814499Y30303940D01*
X13808091Y30363551D01*
X13794496Y30400000D01*
X13757797Y30498397D01*
X13757793Y30498404D01*
X13671547Y30613613D01*
X13671544Y30613616D01*
X13556335Y30699862D01*
X13556328Y30699866D01*
X13421482Y30750160D01*
X13421483Y30750160D01*
X13361883Y30756567D01*
X13361881Y30756568D01*
X13361873Y30756568D01*
X13361864Y30756568D01*
X11266129Y30756568D01*
X11266123Y30756567D01*
X11206516Y30750160D01*
X11071671Y30699866D01*
X11071664Y30699862D01*
X10956455Y30613616D01*
X10956452Y30613613D01*
X10870206Y30498404D01*
X10870202Y30498397D01*
X10819908Y30363551D01*
X10813501Y30303952D01*
X10813501Y30303945D01*
X10813500Y30303933D01*
X10813500Y29650122D01*
X10808937Y29616795D01*
X10634579Y28991932D01*
X10634579Y28991931D01*
X10567721Y28752334D01*
X10535965Y28697981D01*
X10094725Y28256740D01*
X10094719Y28256732D01*
X10052627Y28193737D01*
X10052628Y28193736D01*
X10023534Y28150194D01*
X9974499Y28031813D01*
X9974497Y28031807D01*
X9949500Y27906140D01*
X1850500Y27906140D01*
X1850500Y37396520D01*
X1850695Y37403472D01*
X1851286Y37414007D01*
X1867398Y37700903D01*
X1868952Y37714702D01*
X1918269Y38004959D01*
X1921363Y38018511D01*
X1923492Y38025899D01*
X2002867Y38301418D01*
X2007459Y38314538D01*
X2046742Y38409377D01*
X2120123Y38586538D01*
X2126149Y38599051D01*
X2268564Y38856728D01*
X2275961Y38868501D01*
X2287116Y38884222D01*
X2446331Y39108616D01*
X2454986Y39119470D01*
X2651179Y39339009D01*
X2660991Y39348821D01*
X2880531Y39545015D01*
X2891385Y39553670D01*
X3131504Y39724043D01*
X3143267Y39731434D01*
X3400957Y39873855D01*
X3413463Y39879877D01*
X3685462Y39992541D01*
X3698582Y39997133D01*
X3981494Y40078639D01*
X3995041Y40081731D01*
X4285301Y40131048D01*
X4299096Y40132602D01*
X4493824Y40143538D01*
X4596552Y40149306D01*
X4603504Y40149501D01*
X4644171Y40149501D01*
X29730193Y40149501D01*
X29797232Y40129816D01*
G37*
%TD.AperFunction*%
%TA.AperFunction,Conductor*%
G36*
X32950231Y19435883D02*
G01*
X32970873Y19419249D01*
X33695393Y18694728D01*
X33695400Y18694722D01*
X33801931Y18623541D01*
X33801933Y18623540D01*
X33801942Y18623534D01*
X33821905Y18615265D01*
X33849238Y18603943D01*
X33849243Y18603942D01*
X33849245Y18603941D01*
X33920324Y18574499D01*
X33920328Y18574499D01*
X33920329Y18574498D01*
X34045996Y18549500D01*
X34045999Y18549500D01*
X36229192Y18549500D01*
X36296231Y18529815D01*
X36316873Y18513181D01*
X37479257Y17350796D01*
X37479264Y17350790D01*
X37567131Y17292080D01*
X37579608Y17283744D01*
X37585805Y17279603D01*
X37704188Y17230567D01*
X37704192Y17230567D01*
X37704193Y17230566D01*
X37829860Y17205568D01*
X37829863Y17205568D01*
X44691916Y17205568D01*
X44758955Y17185883D01*
X44768526Y17179071D01*
X45296864Y16763948D01*
X45296877Y16763939D01*
X45331800Y16742851D01*
X45342016Y16735968D01*
X45373669Y16712272D01*
X45386005Y16707671D01*
X45400136Y16701370D01*
X45402796Y16699980D01*
X45402810Y16699971D01*
X45406123Y16698490D01*
X45407999Y16697650D01*
X45417732Y16693683D01*
X45428417Y16689328D01*
X45483068Y16645796D01*
X45505508Y16579628D01*
X45488613Y16511832D01*
X45437746Y16463932D01*
X45381614Y16450500D01*
X33120808Y16450500D01*
X33053769Y16470185D01*
X33033127Y16486819D01*
X30276059Y19243887D01*
X30242574Y19305210D01*
X30247558Y19374902D01*
X30289430Y19430835D01*
X30354894Y19455252D01*
X30363740Y19455568D01*
X32883192Y19455568D01*
X32950231Y19435883D01*
G37*
%TD.AperFunction*%
%TD*%
%TA.AperFunction,Conductor*%
%TO.N,/PINKEYKEY-FOWORD*%
G36*
X42439244Y20496573D02*
G01*
X42442289Y20491266D01*
X42564584Y20024646D01*
X42563366Y20015775D01*
X42557777Y20010884D01*
X42294511Y19900885D01*
X42285556Y19900858D01*
X42285489Y19900885D01*
X42022222Y20010884D01*
X42015910Y20017236D01*
X42015415Y20024646D01*
X42137711Y20491266D01*
X42143124Y20498400D01*
X42149029Y20500000D01*
X42430971Y20500000D01*
X42439244Y20496573D01*
G37*
%TD.AperFunction*%
%TD*%
%TA.AperFunction,Conductor*%
%TO.N,/MID-KEY*%
G36*
X26550857Y23354466D02*
G01*
X26556446Y23349575D01*
X26799921Y22933147D01*
X26801139Y22924277D01*
X26798094Y22918970D01*
X26598729Y22719605D01*
X26590456Y22716178D01*
X26584552Y22717778D01*
X26168124Y22961253D01*
X26162711Y22968387D01*
X26163205Y22975795D01*
X26271584Y23239737D01*
X26277894Y23246087D01*
X26541904Y23354493D01*
X26550857Y23354466D01*
G37*
%TD.AperFunction*%
%TD*%
%TA.AperFunction,Conductor*%
%TO.N,/MID-FORW*%
G36*
X45623108Y18551097D02*
G01*
X46398802Y18008654D01*
X46603289Y17865656D01*
X46608105Y17858107D01*
X46606172Y17849363D01*
X46603289Y17846480D01*
X45623111Y17161041D01*
X45614367Y17159108D01*
X45609177Y17161429D01*
X44920471Y17702556D01*
X44916083Y17710362D01*
X44916000Y17711756D01*
X44916000Y18000381D01*
X44919427Y18008654D01*
X44920471Y18009581D01*
X45609178Y18550709D01*
X45617800Y18553125D01*
X45623108Y18551097D01*
G37*
%TD.AperFunction*%
%TD*%
%TA.AperFunction,Conductor*%
%TO.N,/MID-KEY*%
G36*
X35162032Y24347654D02*
G01*
X35162038Y24347646D01*
X35162041Y24347643D01*
X35710673Y23664537D01*
X35713182Y23655941D01*
X35709534Y23648658D01*
X34986949Y22974267D01*
X34978563Y22971127D01*
X34970693Y22974547D01*
X34766576Y23178664D01*
X34293409Y23646852D01*
X34289938Y23655107D01*
X34293321Y23663398D01*
X34294292Y23664276D01*
X35145583Y24349433D01*
X35154177Y24351949D01*
X35162032Y24347654D01*
G37*
%TD.AperFunction*%
%TD*%
%TA.AperFunction,Conductor*%
%TO.N,/MID-HAND*%
G36*
X18550857Y23354466D02*
G01*
X18556446Y23349575D01*
X18799921Y22933147D01*
X18801139Y22924277D01*
X18798094Y22918970D01*
X18598729Y22719605D01*
X18590456Y22716178D01*
X18584552Y22717778D01*
X18168124Y22961253D01*
X18162711Y22968387D01*
X18163205Y22975795D01*
X18271584Y23239737D01*
X18277894Y23246087D01*
X18541904Y23354493D01*
X18550857Y23354466D01*
G37*
%TD.AperFunction*%
%TD*%
%TA.AperFunction,Conductor*%
%TO.N,/MAD-LEFT*%
G36*
X22783108Y26551097D02*
G01*
X23558802Y26008654D01*
X23763289Y25865656D01*
X23768105Y25858107D01*
X23766172Y25849363D01*
X23763289Y25846480D01*
X22783111Y25161041D01*
X22774367Y25159108D01*
X22769177Y25161429D01*
X22080471Y25702556D01*
X22076083Y25710362D01*
X22076000Y25711756D01*
X22076000Y26000381D01*
X22079427Y26008654D01*
X22080471Y26009581D01*
X22769178Y26550709D01*
X22777800Y26553125D01*
X22783108Y26551097D01*
G37*
%TD.AperFunction*%
%TD*%
%TA.AperFunction,Conductor*%
%TO.N,/MAD-FORW*%
G36*
X22533792Y24244989D02*
G01*
X24018070Y23759815D01*
X24024868Y23753988D01*
X24025555Y23745060D01*
X24025440Y23744725D01*
X23779561Y23063168D01*
X23773530Y23056548D01*
X23769477Y23055474D01*
X22785734Y22977676D01*
X22777217Y22980440D01*
X22773501Y22986347D01*
X22755206Y23055474D01*
X22718751Y23193214D01*
X22718745Y23199164D01*
X22721737Y23210580D01*
X22722864Y23222443D01*
X22723700Y23225802D01*
X22736330Y23256291D01*
X22755250Y23400000D01*
X22736330Y23543709D01*
X22694768Y23644051D01*
X22680865Y23677617D01*
X22680862Y23677621D01*
X22680861Y23677625D01*
X22592621Y23792621D01*
X22572032Y23808420D01*
X22554994Y23821494D01*
X22550807Y23827781D01*
X22518850Y23948531D01*
X22518461Y23951524D01*
X22518461Y24233867D01*
X22521888Y24242140D01*
X22530161Y24245567D01*
X22533792Y24244989D01*
G37*
%TD.AperFunction*%
%TD*%
%TA.AperFunction,Conductor*%
%TO.N,/TDC-RV1*%
G36*
X86546769Y20736324D02*
G01*
X87144729Y20519731D01*
X88039417Y20195657D01*
X88046028Y20189617D01*
X88046433Y20180671D01*
X88046246Y20180190D01*
X87709062Y19363786D01*
X87702736Y19357447D01*
X87702714Y19357438D01*
X86886310Y19020254D01*
X86877356Y19020263D01*
X86871030Y19026602D01*
X86870843Y19027083D01*
X86748882Y19363786D01*
X86646515Y19646396D01*
X86330176Y20519731D01*
X86330581Y20528677D01*
X86332901Y20531986D01*
X86534512Y20733597D01*
X86542784Y20737023D01*
X86546769Y20736324D01*
G37*
%TD.AperFunction*%
%TD*%
%TA.AperFunction,Conductor*%
%TO.N,/MAD-RIGHT*%
G36*
X14667186Y17877308D02*
G01*
X14670231Y17872001D01*
X14792526Y17405381D01*
X14791308Y17396510D01*
X14785719Y17391619D01*
X14522453Y17281620D01*
X14513498Y17281593D01*
X14513431Y17281620D01*
X14250164Y17391619D01*
X14243852Y17397971D01*
X14243357Y17405381D01*
X14365653Y17872001D01*
X14371066Y17879135D01*
X14376971Y17880735D01*
X14658913Y17880735D01*
X14667186Y17877308D01*
G37*
%TD.AperFunction*%
%TD*%
%TA.AperFunction,Conductor*%
%TO.N,/PINKEY-FOWORD*%
G36*
X58289592Y33125775D02*
G01*
X58706023Y32882299D01*
X58711436Y32875165D01*
X58710941Y32867755D01*
X58602563Y32603816D01*
X58596251Y32597464D01*
X58596184Y32597437D01*
X58332245Y32489059D01*
X58323290Y32489086D01*
X58317701Y32493977D01*
X58074225Y32910407D01*
X58073008Y32919275D01*
X58076051Y32924580D01*
X58275419Y33123948D01*
X58283691Y33127374D01*
X58289592Y33125775D01*
G37*
%TD.AperFunction*%
%TD*%
%TA.AperFunction,Conductor*%
%TO.N,/MAD-LEFT*%
G36*
X18749244Y17996573D02*
G01*
X18752289Y17991266D01*
X18874584Y17524646D01*
X18873366Y17515775D01*
X18867777Y17510884D01*
X18604511Y17400885D01*
X18595556Y17400858D01*
X18595489Y17400885D01*
X18332222Y17510884D01*
X18325910Y17517236D01*
X18325415Y17524646D01*
X18447711Y17991266D01*
X18453124Y17998400D01*
X18459029Y18000000D01*
X18740971Y18000000D01*
X18749244Y17996573D01*
G37*
%TD.AperFunction*%
%TD*%
%TA.AperFunction,Conductor*%
%TO.N,/TDC-RV1*%
G36*
X20724581Y35323947D02*
G01*
X20923946Y35124582D01*
X20927373Y35116309D01*
X20925773Y35110404D01*
X20682298Y34693977D01*
X20675164Y34688564D01*
X20667754Y34689059D01*
X20403815Y34797437D01*
X20397463Y34803749D01*
X20397436Y34803816D01*
X20289058Y35067755D01*
X20289085Y35076710D01*
X20293974Y35082298D01*
X20710406Y35325775D01*
X20719274Y35326992D01*
X20724581Y35323947D01*
G37*
%TD.AperFunction*%
%TD*%
%TA.AperFunction,Conductor*%
%TO.N,/TDC-RV2*%
G36*
X79331516Y28915516D02*
G01*
X79331989Y28915307D01*
X79345035Y28909199D01*
X80769762Y28242155D01*
X80775801Y28235545D01*
X80776500Y28231560D01*
X80776500Y27946441D01*
X80773073Y27938168D01*
X80769761Y27935845D01*
X79331989Y27262694D01*
X79323043Y27262289D01*
X79316432Y27268329D01*
X79316223Y27268802D01*
X78977364Y28084512D01*
X78977355Y28093466D01*
X78977364Y28093488D01*
X79316224Y28909201D01*
X79322562Y28915525D01*
X79331516Y28915516D01*
G37*
%TD.AperFunction*%
%TD*%
%TA.AperFunction,Conductor*%
%TO.N,/MID-HAND*%
G36*
X47607218Y24346113D02*
G01*
X47615453Y24342598D01*
X47618360Y24337559D01*
X47915202Y23273745D01*
X47914125Y23264855D01*
X47912206Y23262327D01*
X47710546Y23060667D01*
X47702273Y23057240D01*
X47697598Y23058215D01*
X46336567Y23651484D01*
X46330352Y23657931D01*
X46330426Y23666672D01*
X46612271Y24349456D01*
X46618595Y24355795D01*
X46623211Y24356690D01*
X47607218Y24346113D01*
G37*
%TD.AperFunction*%
%TD*%
%TA.AperFunction,Conductor*%
%TO.N,/PINKEYKEY-AHEAD*%
G36*
X33617368Y28252289D02*
G01*
X33624501Y28246877D01*
X33626101Y28240972D01*
X33626101Y27959029D01*
X33622674Y27950756D01*
X33617367Y27947711D01*
X33150746Y27825416D01*
X33141875Y27826634D01*
X33136984Y27832223D01*
X33126003Y27858503D01*
X33026984Y28095491D01*
X33026958Y28104444D01*
X33026963Y28104458D01*
X33136984Y28367779D01*
X33143336Y28374090D01*
X33150746Y28374585D01*
X33617368Y28252289D01*
G37*
%TD.AperFunction*%
%TD*%
%TA.AperFunction,Conductor*%
%TO.N,/ROW-KEY1*%
G36*
X65141639Y24170675D02*
G01*
X65143373Y24169773D01*
X65565060Y23903443D01*
X65570225Y23896129D01*
X65570512Y23893552D01*
X65570512Y23612200D01*
X65567085Y23603927D01*
X65558812Y23600500D01*
X65028524Y23600500D01*
X65020251Y23603927D01*
X65016824Y23612161D01*
X65015886Y23893552D01*
X65015872Y23897638D01*
X65016774Y23902178D01*
X65126333Y24164392D01*
X65132684Y24170702D01*
X65141639Y24170675D01*
G37*
%TD.AperFunction*%
%TD*%
%TA.AperFunction,Conductor*%
%TO.N,+3V3*%
G36*
X17586609Y34490815D02*
G01*
X17592198Y34485924D01*
X17835673Y34069496D01*
X17836891Y34060626D01*
X17833846Y34055319D01*
X17634481Y33855954D01*
X17626208Y33852527D01*
X17620304Y33854127D01*
X17203876Y34097602D01*
X17198463Y34104736D01*
X17198957Y34112144D01*
X17307336Y34376086D01*
X17313646Y34382436D01*
X17577656Y34490842D01*
X17586609Y34490815D01*
G37*
%TD.AperFunction*%
%TD*%
%TA.AperFunction,Conductor*%
%TO.N,/PINKEYKEY-FOWORD*%
G36*
X32991267Y28952289D02*
G01*
X32998400Y28946877D01*
X33000000Y28940972D01*
X33000000Y28662075D01*
X32996573Y28653802D01*
X32989827Y28650475D01*
X32882394Y28636331D01*
X32882385Y28636328D01*
X32770368Y28589930D01*
X32768857Y28589421D01*
X32524645Y28525416D01*
X32515774Y28526634D01*
X32510883Y28532223D01*
X32486772Y28589930D01*
X32400883Y28795491D01*
X32400857Y28804444D01*
X32400862Y28804458D01*
X32510883Y29067779D01*
X32517235Y29074090D01*
X32524645Y29074585D01*
X32991267Y28952289D01*
G37*
%TD.AperFunction*%
%TD*%
%TA.AperFunction,Conductor*%
%TO.N,/MID-LEFT*%
G36*
X20551307Y23354650D02*
G01*
X20556599Y23350240D01*
X20813938Y22955214D01*
X20815583Y22946412D01*
X20812408Y22940555D01*
X20613032Y22741179D01*
X20604759Y22737752D01*
X20599389Y22739057D01*
X20168868Y22961467D01*
X20163091Y22968309D01*
X20163414Y22976304D01*
X20271584Y23239737D01*
X20277894Y23246087D01*
X20542352Y23354677D01*
X20551307Y23354650D01*
G37*
%TD.AperFunction*%
%TD*%
%TA.AperFunction,Conductor*%
%TO.N,+3V3*%
G36*
X48089592Y28325775D02*
G01*
X48506023Y28082299D01*
X48511436Y28075165D01*
X48510941Y28067755D01*
X48402563Y27803816D01*
X48396251Y27797464D01*
X48396184Y27797437D01*
X48132245Y27689059D01*
X48123290Y27689086D01*
X48117701Y27693977D01*
X47874225Y28110407D01*
X47873008Y28119275D01*
X47876051Y28124580D01*
X48075419Y28323948D01*
X48083691Y28327374D01*
X48089592Y28325775D01*
G37*
%TD.AperFunction*%
%TD*%
%TA.AperFunction,Conductor*%
%TO.N,/MID-RIGHT*%
G36*
X34161108Y21351097D02*
G01*
X34936802Y20808654D01*
X35141289Y20665656D01*
X35146105Y20658107D01*
X35144172Y20649363D01*
X35141289Y20646480D01*
X34161111Y19961041D01*
X34152367Y19959108D01*
X34147177Y19961429D01*
X33458471Y20502556D01*
X33454083Y20510362D01*
X33454000Y20511756D01*
X33454000Y20800381D01*
X33457427Y20808654D01*
X33458471Y20809581D01*
X34147178Y21350709D01*
X34155800Y21353125D01*
X34161108Y21351097D01*
G37*
%TD.AperFunction*%
%TD*%
%TA.AperFunction,Conductor*%
%TO.N,/ROW-RV1*%
G36*
X26724581Y35323947D02*
G01*
X26923946Y35124582D01*
X26927373Y35116309D01*
X26925773Y35110404D01*
X26682298Y34693977D01*
X26675164Y34688564D01*
X26667754Y34689059D01*
X26403815Y34797437D01*
X26397463Y34803749D01*
X26397436Y34803816D01*
X26289058Y35067755D01*
X26289085Y35076710D01*
X26293974Y35082298D01*
X26710406Y35325775D01*
X26719274Y35326992D01*
X26724581Y35323947D01*
G37*
%TD.AperFunction*%
%TD*%
%TA.AperFunction,Conductor*%
%TO.N,/MAD-KEY*%
G36*
X12315097Y29553353D02*
G01*
X12317728Y29549455D01*
X12599572Y28866673D01*
X12599561Y28857718D01*
X12593432Y28851484D01*
X11232401Y28258215D01*
X11223448Y28258050D01*
X11219453Y28260667D01*
X11017793Y28462327D01*
X11014366Y28470600D01*
X11014797Y28473745D01*
X11121479Y28856068D01*
X11311639Y29537561D01*
X11317163Y29544606D01*
X11322779Y29546113D01*
X12306787Y29556690D01*
X12315097Y29553353D01*
G37*
%TD.AperFunction*%
%TD*%
%TA.AperFunction,Conductor*%
%TO.N,/MID-RIGHT*%
G36*
X24550857Y21867364D02*
G01*
X24556446Y21862473D01*
X24799921Y21446045D01*
X24801139Y21437175D01*
X24798094Y21431868D01*
X24598729Y21232503D01*
X24590456Y21229076D01*
X24584552Y21230676D01*
X24168124Y21474151D01*
X24162711Y21481285D01*
X24163205Y21488693D01*
X24271584Y21752635D01*
X24277894Y21758985D01*
X24541904Y21867391D01*
X24550857Y21867364D01*
G37*
%TD.AperFunction*%
%TD*%
%TA.AperFunction,Conductor*%
%TO.N,/MAD-RIGHT*%
G36*
X13314602Y26127461D02*
G01*
X13318646Y26123629D01*
X13490415Y25856775D01*
X13909933Y25205026D01*
X13911529Y25196215D01*
X13908368Y25190421D01*
X13706878Y24988931D01*
X13698605Y24985504D01*
X13697327Y24985574D01*
X12159083Y25154620D01*
X12151234Y25158930D01*
X12148731Y25167528D01*
X12148978Y25168955D01*
X12311684Y25850043D01*
X12316939Y25857290D01*
X12319967Y25858603D01*
X13305718Y26128580D01*
X13314602Y26127461D01*
G37*
%TD.AperFunction*%
%TD*%
%TA.AperFunction,Conductor*%
%TO.N,/MAD-FORW*%
G36*
X16876709Y17510915D02*
G01*
X16882298Y17506024D01*
X17125773Y17089596D01*
X17126991Y17080726D01*
X17123946Y17075419D01*
X16924581Y16876054D01*
X16916308Y16872627D01*
X16910404Y16874227D01*
X16493976Y17117702D01*
X16488563Y17124836D01*
X16489057Y17132244D01*
X16597436Y17396186D01*
X16603746Y17402536D01*
X16867756Y17510942D01*
X16876709Y17510915D01*
G37*
%TD.AperFunction*%
%TD*%
%TA.AperFunction,Conductor*%
%TO.N,/MID-LEFT*%
G36*
X47621736Y21109505D02*
G01*
X48247597Y20365836D01*
X48250302Y20357299D01*
X48246918Y20350029D01*
X48043915Y20147026D01*
X48040392Y20144607D01*
X47622043Y19958754D01*
X47613091Y19958527D01*
X47610582Y19959862D01*
X46632005Y20645074D01*
X46627194Y20652626D01*
X46629132Y20661369D01*
X46633830Y20665288D01*
X47607903Y21112604D01*
X47616850Y21112942D01*
X47621736Y21109505D01*
G37*
%TD.AperFunction*%
%TD*%
%TA.AperFunction,Conductor*%
%TO.N,/MID-FORW*%
G36*
X22441497Y23300098D02*
G01*
X22467777Y23289117D01*
X22474089Y23282765D01*
X22474584Y23275355D01*
X22352289Y22808734D01*
X22346876Y22801600D01*
X22340971Y22800000D01*
X22059029Y22800000D01*
X22050756Y22803427D01*
X22047711Y22808734D01*
X21925415Y23275355D01*
X21926633Y23284226D01*
X21932221Y23289117D01*
X22195490Y23399117D01*
X22204444Y23399143D01*
X22441497Y23300098D01*
G37*
%TD.AperFunction*%
%TD*%
%TA.AperFunction,Conductor*%
%TO.N,/TDC-KEY1*%
G36*
X80914301Y38921354D02*
G01*
X81404577Y38916237D01*
X81412813Y38912724D01*
X81416154Y38904577D01*
X81417108Y38618484D01*
X81416204Y38613934D01*
X81306721Y38351901D01*
X81300369Y38345589D01*
X81291414Y38345616D01*
X81289546Y38346604D01*
X80871624Y38618395D01*
X80866557Y38625778D01*
X80866303Y38628203D01*
X80866303Y38909655D01*
X80869730Y38917928D01*
X80878003Y38921355D01*
X80914178Y38921355D01*
X80914301Y38921354D01*
G37*
%TD.AperFunction*%
%TD*%
%TA.AperFunction,Conductor*%
%TO.N,/PINKEYKEY-AHEAD*%
G36*
X40614581Y20423947D02*
G01*
X40813946Y20224582D01*
X40817373Y20216309D01*
X40815773Y20210404D01*
X40572298Y19793977D01*
X40565164Y19788564D01*
X40557754Y19789059D01*
X40293815Y19897437D01*
X40287463Y19903749D01*
X40287436Y19903816D01*
X40179058Y20167755D01*
X40179085Y20176710D01*
X40183974Y20182298D01*
X40600406Y20425775D01*
X40609274Y20426992D01*
X40614581Y20423947D01*
G37*
%TD.AperFunction*%
%TD*%
%TA.AperFunction,Conductor*%
%TO.N,/MAD-HAND*%
G36*
X28305713Y23980333D02*
G01*
X28308758Y23975026D01*
X28431053Y23508406D01*
X28429835Y23499535D01*
X28424246Y23494644D01*
X28160980Y23384645D01*
X28152025Y23384618D01*
X28151958Y23384645D01*
X27888691Y23494644D01*
X27882379Y23500996D01*
X27881884Y23508406D01*
X28004180Y23975026D01*
X28009593Y23982160D01*
X28015498Y23983760D01*
X28297440Y23983760D01*
X28305713Y23980333D01*
G37*
%TD.AperFunction*%
%TD*%
%TA.AperFunction,Conductor*%
%TO.N,/ROW-KEY1*%
G36*
X28191267Y34752289D02*
G01*
X28198400Y34746877D01*
X28200000Y34740972D01*
X28200000Y34459029D01*
X28196573Y34450756D01*
X28191266Y34447711D01*
X27724645Y34325416D01*
X27715774Y34326634D01*
X27710883Y34332223D01*
X27699902Y34358503D01*
X27600883Y34595491D01*
X27600857Y34604444D01*
X27600862Y34604458D01*
X27710883Y34867779D01*
X27717235Y34874090D01*
X27724645Y34874585D01*
X28191267Y34752289D01*
G37*
%TD.AperFunction*%
%TD*%
%TA.AperFunction,Conductor*%
%TO.N,/ROW-RV1*%
G36*
X54669143Y25739738D02*
G01*
X54675469Y25733399D01*
X54675656Y25732918D01*
X55216323Y24240270D01*
X55215918Y24231324D01*
X55213595Y24228012D01*
X55011988Y24026405D01*
X55003715Y24022978D01*
X54999730Y24023677D01*
X53507082Y24564344D01*
X53500471Y24570384D01*
X53500066Y24579330D01*
X53500253Y24579811D01*
X53837438Y25396217D01*
X53843761Y25402553D01*
X54660189Y25739747D01*
X54669143Y25739738D01*
G37*
%TD.AperFunction*%
%TD*%
%TA.AperFunction,Conductor*%
%TO.N,/MAD-KEY*%
G36*
X12207534Y17806510D02*
G01*
X12623965Y17563034D01*
X12629378Y17555900D01*
X12628883Y17548490D01*
X12520505Y17284551D01*
X12514193Y17278199D01*
X12514126Y17278172D01*
X12250187Y17169794D01*
X12241232Y17169821D01*
X12235643Y17174712D01*
X11992167Y17591142D01*
X11990950Y17600010D01*
X11993993Y17605315D01*
X12193361Y17804683D01*
X12201633Y17808109D01*
X12207534Y17806510D01*
G37*
%TD.AperFunction*%
%TD*%
%TA.AperFunction,Conductor*%
%TO.N,/TDC-KEY1*%
G36*
X24549244Y35396573D02*
G01*
X24552289Y35391266D01*
X24674584Y34924646D01*
X24673366Y34915775D01*
X24667777Y34910884D01*
X24404511Y34800885D01*
X24395556Y34800858D01*
X24395489Y34800885D01*
X24132222Y34910884D01*
X24125910Y34917236D01*
X24125415Y34924646D01*
X24247711Y35391266D01*
X24253124Y35398400D01*
X24259029Y35400000D01*
X24540971Y35400000D01*
X24549244Y35396573D01*
G37*
%TD.AperFunction*%
%TD*%
%TA.AperFunction,Conductor*%
%TO.N,/TDC-RV2*%
G36*
X22549244Y35396573D02*
G01*
X22552289Y35391266D01*
X22674584Y34924646D01*
X22673366Y34915775D01*
X22667777Y34910884D01*
X22404511Y34800885D01*
X22395556Y34800858D01*
X22395489Y34800885D01*
X22132222Y34910884D01*
X22125910Y34917236D01*
X22125415Y34924646D01*
X22247711Y35391266D01*
X22253124Y35398400D01*
X22259029Y35400000D01*
X22540971Y35400000D01*
X22549244Y35396573D01*
G37*
%TD.AperFunction*%
%TD*%
%TA.AperFunction,Conductor*%
%TO.N,/MAD-HAND*%
G36*
X24782822Y30250708D02*
G01*
X25471529Y29709581D01*
X25475917Y29701775D01*
X25476000Y29700381D01*
X25476000Y29411756D01*
X25472573Y29403483D01*
X25471529Y29402556D01*
X24782822Y28861429D01*
X24774199Y28859012D01*
X24768889Y28861041D01*
X23788709Y29546482D01*
X23783894Y29554029D01*
X23785827Y29562773D01*
X23788708Y29565655D01*
X24768890Y30251097D01*
X24777632Y30253029D01*
X24782822Y30250708D01*
G37*
%TD.AperFunction*%
%TD*%
%TA.AperFunction,Conductor*%
%TO.N,/PINKEY-FOWORD*%
G36*
X38211694Y13596591D02*
G01*
X38408585Y13399700D01*
X38411097Y13395962D01*
X38562610Y13035635D01*
X38562658Y13026680D01*
X38556360Y13020315D01*
X38556316Y13020296D01*
X38293795Y12911165D01*
X38284840Y12911154D01*
X38284810Y12911167D01*
X38187755Y12951719D01*
X38022707Y13020681D01*
X38016395Y13027033D01*
X38016063Y13035004D01*
X38192268Y13591851D01*
X38198029Y13598702D01*
X38206951Y13599473D01*
X38211694Y13596591D01*
G37*
%TD.AperFunction*%
%TD*%
M02*
