%TF.GenerationSoftware,KiCad,Pcbnew,8.0.2*%
%TF.CreationDate,2025-04-19T09:34:17+08:00*%
%TF.ProjectId,ternel_handel,7465726e-656c-45f6-9861-6e64656c2e6b,rev?*%
%TF.SameCoordinates,PX5636500PY71de640*%
%TF.FileFunction,Soldermask,Top*%
%TF.FilePolarity,Negative*%
%FSLAX46Y46*%
G04 Gerber Fmt 4.6, Leading zero omitted, Abs format (unit mm)*
G04 Created by KiCad (PCBNEW 8.0.2) date 2025-04-19 09:34:17*
%MOMM*%
%LPD*%
G01*
G04 APERTURE LIST*
G04 Aperture macros list*
%AMRoundRect*
0 Rectangle with rounded corners*
0 $1 Rounding radius*
0 $2 $3 $4 $5 $6 $7 $8 $9 X,Y pos of 4 corners*
0 Add a 4 corners polygon primitive as box body*
4,1,4,$2,$3,$4,$5,$6,$7,$8,$9,$2,$3,0*
0 Add four circle primitives for the rounded corners*
1,1,$1+$1,$2,$3*
1,1,$1+$1,$4,$5*
1,1,$1+$1,$6,$7*
1,1,$1+$1,$8,$9*
0 Add four rect primitives between the rounded corners*
20,1,$1+$1,$2,$3,$4,$5,0*
20,1,$1+$1,$4,$5,$6,$7,0*
20,1,$1+$1,$6,$7,$8,$9,0*
20,1,$1+$1,$8,$9,$2,$3,0*%
G04 Aperture macros list end*
%ADD10R,0.980000X0.930000*%
%ADD11R,0.930000X0.980000*%
%ADD12R,1.000000X5.500000*%
%ADD13R,1.600000X3.000000*%
%ADD14RoundRect,0.050000X-0.600000X-2.250000X0.600000X-2.250000X0.600000X2.250000X-0.600000X2.250000X0*%
%ADD15RoundRect,0.050000X-0.900000X-1.500000X0.900000X-1.500000X0.900000X1.500000X-0.900000X1.500000X0*%
%ADD16R,5.500000X1.000000*%
%ADD17R,3.000000X1.600000*%
%ADD18C,1.800000*%
%ADD19C,2.500000*%
%ADD20C,2.200000*%
G04 APERTURE END LIST*
D10*
%TO.C,C15*%
X23309900Y22500000D03*
X23309900Y24040000D03*
%TD*%
%TO.C,C3*%
X91600000Y27030000D03*
X91600000Y28570000D03*
%TD*%
D11*
%TO.C,C8*%
X35840000Y30220000D03*
X34300000Y30220000D03*
%TD*%
D10*
%TO.C,C19*%
X17400000Y16430000D03*
X17400000Y17970000D03*
%TD*%
%TO.C,C5*%
X72190000Y30420000D03*
X72190000Y28880000D03*
%TD*%
%TO.C,C4*%
X62600000Y19608000D03*
X62600000Y18068000D03*
%TD*%
%TO.C,C18*%
X19350000Y16430000D03*
X19350000Y17970000D03*
%TD*%
D12*
%TO.C,J1*%
X76190000Y34818500D03*
X74190000Y34818500D03*
X72190000Y34818500D03*
D13*
X69690000Y37068500D03*
X78690000Y37068500D03*
%TD*%
D10*
%TO.C,C10*%
X9680000Y28670000D03*
X9680000Y27130000D03*
%TD*%
D14*
%TO.C,P3*%
X38290000Y23220000D03*
X40290000Y23220000D03*
X42290000Y23220000D03*
X44290000Y23220000D03*
X46290000Y23220000D03*
X48290000Y23220000D03*
D15*
X50790100Y20670000D03*
X35790100Y20670000D03*
%TD*%
D10*
%TO.C,C7*%
X57550000Y33220000D03*
X57550000Y34760000D03*
%TD*%
%TO.C,C16*%
X25309900Y22500000D03*
X25309900Y24040000D03*
%TD*%
D16*
%TO.C,J3*%
X40858500Y30580000D03*
X40858500Y32580000D03*
X40858500Y34580000D03*
D17*
X43108500Y37080000D03*
X43108500Y28080000D03*
%TD*%
D11*
%TO.C,C23*%
X74630000Y28089000D03*
X76170000Y28089000D03*
%TD*%
%TO.C,C2*%
X62370000Y27900000D03*
X60830000Y27900000D03*
%TD*%
D10*
%TO.C,C6*%
X57550000Y38320000D03*
X57550000Y36780000D03*
%TD*%
%TO.C,C21*%
X13400000Y16430000D03*
X13400000Y17970000D03*
%TD*%
%TO.C,C14*%
X21309900Y22500000D03*
X21309900Y24040000D03*
%TD*%
%TO.C,C25*%
X11600000Y28670000D03*
X11600000Y27130000D03*
%TD*%
%TO.C,C17*%
X27309900Y22500000D03*
X27309900Y24040000D03*
%TD*%
D14*
%TO.C,P4*%
X38290000Y15860000D03*
X40290000Y15860000D03*
X42290000Y15860000D03*
X44290000Y15860000D03*
X46290000Y15860000D03*
X48290000Y15860000D03*
D15*
X50790100Y13310000D03*
X35790100Y13310000D03*
%TD*%
D11*
%TO.C,C24*%
X62350000Y23150000D03*
X60810000Y23150000D03*
%TD*%
D14*
%TO.C,P2*%
X17309900Y30225000D03*
X19309900Y30225000D03*
X21309900Y30225000D03*
X23309900Y30225000D03*
X25309900Y30225000D03*
X27309900Y30225000D03*
D15*
X29810000Y27675000D03*
X14810000Y27675000D03*
%TD*%
D11*
%TO.C,C1*%
X74630000Y25590000D03*
X76170000Y25590000D03*
%TD*%
D14*
%TO.C,P1*%
X17309900Y37505000D03*
X19309900Y37505000D03*
X21309900Y37505000D03*
X23309900Y37505000D03*
X25309900Y37505000D03*
X27309900Y37505000D03*
D15*
X29810000Y34955000D03*
X14810000Y34955000D03*
%TD*%
D10*
%TO.C,C13*%
X19309900Y22500000D03*
X19309900Y24040000D03*
%TD*%
%TO.C,C20*%
X15400000Y16430000D03*
X15400000Y17970000D03*
%TD*%
%TO.C,C26*%
X85206500Y14810000D03*
X85206500Y16350000D03*
%TD*%
%TO.C,C11*%
X5680000Y28670000D03*
X5680000Y27130000D03*
%TD*%
%TO.C,C22*%
X87706500Y14810000D03*
X87706500Y16350000D03*
%TD*%
D12*
%TO.C,J4*%
X9680000Y33548500D03*
X7680000Y33548500D03*
X5680000Y33548500D03*
D13*
X3180000Y35798500D03*
X12180000Y35798500D03*
%TD*%
D11*
%TO.C,C9*%
X35840000Y32120000D03*
X34300000Y32120000D03*
%TD*%
D10*
%TO.C,C12*%
X17309900Y22500000D03*
X17309900Y24040000D03*
%TD*%
D16*
%TO.C,J2*%
X52231500Y36400000D03*
X52231500Y34400000D03*
X52231500Y32400000D03*
D17*
X49981500Y29900000D03*
X49981500Y38900000D03*
%TD*%
D18*
%TO.C,SW1*%
X87706500Y32390000D03*
X87706500Y23790000D03*
X90206500Y19360000D03*
X87706500Y19360000D03*
X85206500Y19360000D03*
X78976500Y25590000D03*
X78976500Y28089000D03*
X78976500Y30590000D03*
D19*
X82706500Y34414000D03*
X92706500Y34414000D03*
X92706500Y21764000D03*
X82706500Y21764000D03*
D20*
X93498500Y31609000D03*
X97998500Y31609000D03*
X93498500Y24609000D03*
X97998500Y24609000D03*
%TD*%
D18*
%TO.C,SW2*%
X66870000Y25400000D03*
X58270000Y25400000D03*
X53840000Y22900000D03*
X53840000Y25400000D03*
X53840000Y27900000D03*
X60070000Y34130000D03*
X62569000Y34130000D03*
X65070000Y34130000D03*
D19*
X68894000Y30400000D03*
X68894000Y20400000D03*
X56244000Y20400000D03*
X56244000Y30400000D03*
D20*
X66089000Y19608000D03*
X66089000Y15108000D03*
X59089000Y19608000D03*
X59089000Y15108000D03*
%TD*%
M02*
