M48
; DRILL file {KiCad 8.0.2} date 2025-04-19T09:34:20+0800
; FORMAT={-:-/ absolute / metric / decimal}
; #@! TF.CreationDate,2025-04-19T09:34:20+08:00
; #@! TF.GenerationSoftware,Kicad,Pcbnew,8.0.2
; #@! TF.FileFunction,Plated,1,2,PTH
FMAT,2
METRIC
; #@! TA.AperFunction,Plated,PTH,ViaDrill
T1C0.300
; #@! TA.AperFunction,Plated,PTH,ComponentDrill
T2C1.200
; #@! TA.AperFunction,Plated,PTH,ComponentDrill
T3C1.600
; #@! TA.AperFunction,Plated,PTH,ComponentDrill
T4C1.800
%
G90
G05
T1
X3.6Y23.4
X3.6Y21.4
X3.6Y19.4
X4.6Y24.4
X4.6Y22.4
X4.6Y20.4
X4.6Y14.4
X4.6Y12.4
X5.6Y25.4
X5.6Y23.4
X5.6Y21.4
X5.6Y19.4
X5.6Y13.4
X6.6Y14.4
X6.6Y12.4
X6.85Y39.4
X6.85Y37.4
X7.85Y38.4
X8.85Y39.4
X8.85Y37.4
X9.3Y25.78
X9.3Y24.565
X9.3Y23.35
X9.3Y22.135
X9.3Y20.92
X12.518Y17.281
X14.518Y17.281
X16.6Y17.4
X17.31Y34.38
X18.274Y23.244
X18.6Y17.4
X20.274Y23.244
X20.4Y34.8
X22.2Y23.4
X22.4Y34.8
X24.274Y21.756
X24.4Y34.8
X26.274Y23.244
X26.4Y34.8
X27.6Y34.6
X28.156Y23.384
X28.6Y13.4
X28.6Y11.4
X29.35Y30.15
X29.6Y12.4
X30.6Y24.15
X30.6Y11.4
X31.85Y24.9
X32.35Y18.65
X32.4Y28.8
X32.6Y26.4
X33.026Y28.1
X33.1Y17.65
X33.35Y29.65
X36.85Y17.65
X37.85Y20.15
X38.29Y12.91
X38.6Y19.15
X39.1Y20.15
X40.29Y19.9
X42.29Y19.9
X44.1Y19.65
X44.6Y29.4
X44.6Y26.9
X45.1Y33.15
X45.6Y35.65
X48.4Y27.8
X53.6Y17.4
X53.6Y15.4
X54.6Y16.4
X55.6Y17.4
X55.6Y15.4
X58.6Y32.6
X59.6Y36.4
X61.35Y36.4
X61.6Y31.9
X61.6Y29.9
X62.6Y30.9
X63.35Y36.4
X63.6Y31.9
X63.6Y29.9
X65.017Y23.9
X72.6Y16.4
X72.6Y14.4
X73.6Y15.4
X74.6Y16.4
X74.6Y14.4
X81.416Y38.616
X86.6Y30.4
X86.6Y28.4
X87.6Y29.4
X88.6Y30.4
X88.6Y28.4
X92.6Y39.4
X92.6Y37.4
X93.6Y38.4
X94.6Y39.4
X94.6Y37.4
X94.6Y29.4
X94.6Y27.4
X95.6Y28.4
X95.6Y15.4
X95.6Y13.4
X96.6Y29.4
X96.6Y27.4
X96.6Y14.4
X97.6Y15.4
X97.6Y13.4
T2
X53.84Y27.9
X53.84Y25.4
X53.84Y22.9
X60.07Y34.13
X62.569Y34.13
X65.07Y34.13
X78.977Y30.59
X78.977Y28.089
X78.977Y25.59
X85.206Y19.36
X87.706Y19.36
X90.206Y19.36
T3
X59.089Y19.608
X59.089Y15.108
X66.089Y19.608
X66.089Y15.108
X93.498Y31.609
X93.498Y24.609
X97.998Y31.609
X97.998Y24.609
T4
X56.244Y30.4
X56.244Y20.4
X68.894Y30.4
X68.894Y20.4
X82.706Y34.414
X82.706Y21.764
X92.706Y34.414
X92.706Y21.764
M30
