%TF.GenerationSoftware,KiCad,Pcbnew,8.0.2*%
%TF.CreationDate,2025-04-19T09:34:17+08:00*%
%TF.ProjectId,ternel_handel,7465726e-656c-45f6-9861-6e64656c2e6b,rev?*%
%TF.SameCoordinates,PX5636500PY71de640*%
%TF.FileFunction,Legend,Top*%
%TF.FilePolarity,Positive*%
%FSLAX46Y46*%
G04 Gerber Fmt 4.6, Leading zero omitted, Abs format (unit mm)*
G04 Created by KiCad (PCBNEW 8.0.2) date 2025-04-19 09:34:17*
%MOMM*%
%LPD*%
G01*
G04 APERTURE LIST*
%ADD10C,0.130000*%
%ADD11C,0.200000*%
%ADD12C,0.254000*%
%ADD13C,0.010000*%
G04 APERTURE END LIST*
D10*
X99600000Y6400000D02*
G75*
G02*
X93600000Y6400000I-3000000J0D01*
G01*
X93600000Y6400000D02*
G75*
G02*
X99600000Y6400000I3000000J0D01*
G01*
X37600000Y36400000D02*
G75*
G02*
X31600000Y36400000I-3000000J0D01*
G01*
X31600000Y36400000D02*
G75*
G02*
X37600000Y36400000I3000000J0D01*
G01*
X27600000Y14400000D02*
G75*
G02*
X21600000Y14400000I-3000000J0D01*
G01*
X21600000Y14400000D02*
G75*
G02*
X27600000Y14400000I3000000J0D01*
G01*
D11*
X21200000Y19200000D02*
X21200000Y15000000D01*
X9850000Y25750000D02*
X9850000Y19550000D01*
D10*
X79600000Y6400000D02*
G75*
G02*
X73600000Y6400000I-3000000J0D01*
G01*
X73600000Y6400000D02*
G75*
G02*
X79600000Y6400000I3000000J0D01*
G01*
D11*
X10000000Y19200000D02*
X20800000Y19200000D01*
X80788720Y38779686D02*
X81003006Y38708258D01*
X81003006Y38708258D02*
X81074435Y38636829D01*
X81074435Y38636829D02*
X81145863Y38493972D01*
X81145863Y38493972D02*
X81145863Y38279686D01*
X81145863Y38279686D02*
X81074435Y38136829D01*
X81074435Y38136829D02*
X81003006Y38065400D01*
X81003006Y38065400D02*
X80860149Y37993972D01*
X80860149Y37993972D02*
X80288720Y37993972D01*
X80288720Y37993972D02*
X80288720Y39493972D01*
X80288720Y39493972D02*
X80788720Y39493972D01*
X80788720Y39493972D02*
X80931578Y39422543D01*
X80931578Y39422543D02*
X81003006Y39351115D01*
X81003006Y39351115D02*
X81074435Y39208258D01*
X81074435Y39208258D02*
X81074435Y39065400D01*
X81074435Y39065400D02*
X81003006Y38922543D01*
X81003006Y38922543D02*
X80931578Y38851115D01*
X80931578Y38851115D02*
X80788720Y38779686D01*
X80788720Y38779686D02*
X80288720Y38779686D01*
X82074435Y39493972D02*
X82360149Y39493972D01*
X82360149Y39493972D02*
X82503006Y39422543D01*
X82503006Y39422543D02*
X82645863Y39279686D01*
X82645863Y39279686D02*
X82717292Y38993972D01*
X82717292Y38993972D02*
X82717292Y38493972D01*
X82717292Y38493972D02*
X82645863Y38208258D01*
X82645863Y38208258D02*
X82503006Y38065400D01*
X82503006Y38065400D02*
X82360149Y37993972D01*
X82360149Y37993972D02*
X82074435Y37993972D01*
X82074435Y37993972D02*
X81931578Y38065400D01*
X81931578Y38065400D02*
X81788720Y38208258D01*
X81788720Y38208258D02*
X81717292Y38493972D01*
X81717292Y38493972D02*
X81717292Y38993972D01*
X81717292Y38993972D02*
X81788720Y39279686D01*
X81788720Y39279686D02*
X81931578Y39422543D01*
X81931578Y39422543D02*
X82074435Y39493972D01*
X83145864Y39493972D02*
X84003007Y39493972D01*
X83574435Y37993972D02*
X83574435Y39493972D01*
X84288721Y39493972D02*
X85145864Y39493972D01*
X84717292Y37993972D02*
X84717292Y39493972D01*
X85931578Y39493972D02*
X86217292Y39493972D01*
X86217292Y39493972D02*
X86360149Y39422543D01*
X86360149Y39422543D02*
X86503006Y39279686D01*
X86503006Y39279686D02*
X86574435Y38993972D01*
X86574435Y38993972D02*
X86574435Y38493972D01*
X86574435Y38493972D02*
X86503006Y38208258D01*
X86503006Y38208258D02*
X86360149Y38065400D01*
X86360149Y38065400D02*
X86217292Y37993972D01*
X86217292Y37993972D02*
X85931578Y37993972D01*
X85931578Y37993972D02*
X85788721Y38065400D01*
X85788721Y38065400D02*
X85645863Y38208258D01*
X85645863Y38208258D02*
X85574435Y38493972D01*
X85574435Y38493972D02*
X85574435Y38993972D01*
X85574435Y38993972D02*
X85645863Y39279686D01*
X85645863Y39279686D02*
X85788721Y39422543D01*
X85788721Y39422543D02*
X85931578Y39493972D01*
X87217292Y37993972D02*
X87217292Y39493972D01*
X87217292Y39493972D02*
X87717292Y38422543D01*
X87717292Y38422543D02*
X88217292Y39493972D01*
X88217292Y39493972D02*
X88217292Y37993972D01*
X4006028Y25088721D02*
X2506028Y25088721D01*
X2506028Y25088721D02*
X2506028Y25660150D01*
X2506028Y25660150D02*
X2577457Y25803007D01*
X2577457Y25803007D02*
X2648885Y25874436D01*
X2648885Y25874436D02*
X2791742Y25945864D01*
X2791742Y25945864D02*
X3006028Y25945864D01*
X3006028Y25945864D02*
X3148885Y25874436D01*
X3148885Y25874436D02*
X3220314Y25803007D01*
X3220314Y25803007D02*
X3291742Y25660150D01*
X3291742Y25660150D02*
X3291742Y25088721D01*
X4006028Y26588721D02*
X2506028Y26588721D01*
X4006028Y27303007D02*
X2506028Y27303007D01*
X2506028Y27303007D02*
X4006028Y28160150D01*
X4006028Y28160150D02*
X2506028Y28160150D01*
X4006028Y28874436D02*
X2506028Y28874436D01*
X4006028Y29731579D02*
X3148885Y29088722D01*
X2506028Y29731579D02*
X3363171Y28874436D01*
X3220314Y30374436D02*
X3220314Y30874436D01*
X4006028Y31088722D02*
X4006028Y30374436D01*
X4006028Y30374436D02*
X2506028Y30374436D01*
X2506028Y30374436D02*
X2506028Y31088722D01*
X3291742Y32017294D02*
X4006028Y32017294D01*
X2506028Y31517294D02*
X3291742Y32017294D01*
X3291742Y32017294D02*
X2506028Y32517294D01*
X30745863Y22136829D02*
X30674435Y22065400D01*
X30674435Y22065400D02*
X30460149Y21993972D01*
X30460149Y21993972D02*
X30317292Y21993972D01*
X30317292Y21993972D02*
X30103006Y22065400D01*
X30103006Y22065400D02*
X29960149Y22208258D01*
X29960149Y22208258D02*
X29888720Y22351115D01*
X29888720Y22351115D02*
X29817292Y22636829D01*
X29817292Y22636829D02*
X29817292Y22851115D01*
X29817292Y22851115D02*
X29888720Y23136829D01*
X29888720Y23136829D02*
X29960149Y23279686D01*
X29960149Y23279686D02*
X30103006Y23422543D01*
X30103006Y23422543D02*
X30317292Y23493972D01*
X30317292Y23493972D02*
X30460149Y23493972D01*
X30460149Y23493972D02*
X30674435Y23422543D01*
X30674435Y23422543D02*
X30745863Y23351115D01*
X31388720Y21993972D02*
X31388720Y23493972D01*
X31388720Y23493972D02*
X32245863Y21993972D01*
X32245863Y21993972D02*
X32245863Y23493972D01*
X32817292Y23493972D02*
X33745864Y23493972D01*
X33745864Y23493972D02*
X33245864Y22922543D01*
X33245864Y22922543D02*
X33460149Y22922543D01*
X33460149Y22922543D02*
X33603007Y22851115D01*
X33603007Y22851115D02*
X33674435Y22779686D01*
X33674435Y22779686D02*
X33745864Y22636829D01*
X33745864Y22636829D02*
X33745864Y22279686D01*
X33745864Y22279686D02*
X33674435Y22136829D01*
X33674435Y22136829D02*
X33603007Y22065400D01*
X33603007Y22065400D02*
X33460149Y21993972D01*
X33460149Y21993972D02*
X33031578Y21993972D01*
X33031578Y21993972D02*
X32888721Y22065400D01*
X32888721Y22065400D02*
X32817292Y22136829D01*
X94674435Y34893972D02*
X95531578Y34893972D01*
X95103006Y33393972D02*
X95103006Y34893972D01*
X96031577Y33393972D02*
X96031577Y34893972D01*
X96031577Y34893972D02*
X96388720Y34893972D01*
X96388720Y34893972D02*
X96603006Y34822543D01*
X96603006Y34822543D02*
X96745863Y34679686D01*
X96745863Y34679686D02*
X96817292Y34536829D01*
X96817292Y34536829D02*
X96888720Y34251115D01*
X96888720Y34251115D02*
X96888720Y34036829D01*
X96888720Y34036829D02*
X96817292Y33751115D01*
X96817292Y33751115D02*
X96745863Y33608258D01*
X96745863Y33608258D02*
X96603006Y33465400D01*
X96603006Y33465400D02*
X96388720Y33393972D01*
X96388720Y33393972D02*
X96031577Y33393972D01*
X98388720Y33536829D02*
X98317292Y33465400D01*
X98317292Y33465400D02*
X98103006Y33393972D01*
X98103006Y33393972D02*
X97960149Y33393972D01*
X97960149Y33393972D02*
X97745863Y33465400D01*
X97745863Y33465400D02*
X97603006Y33608258D01*
X97603006Y33608258D02*
X97531577Y33751115D01*
X97531577Y33751115D02*
X97460149Y34036829D01*
X97460149Y34036829D02*
X97460149Y34251115D01*
X97460149Y34251115D02*
X97531577Y34536829D01*
X97531577Y34536829D02*
X97603006Y34679686D01*
X97603006Y34679686D02*
X97745863Y34822543D01*
X97745863Y34822543D02*
X97960149Y34893972D01*
X97960149Y34893972D02*
X98103006Y34893972D01*
X98103006Y34893972D02*
X98317292Y34822543D01*
X98317292Y34822543D02*
X98388720Y34751115D01*
X30745863Y15336829D02*
X30674435Y15265400D01*
X30674435Y15265400D02*
X30460149Y15193972D01*
X30460149Y15193972D02*
X30317292Y15193972D01*
X30317292Y15193972D02*
X30103006Y15265400D01*
X30103006Y15265400D02*
X29960149Y15408258D01*
X29960149Y15408258D02*
X29888720Y15551115D01*
X29888720Y15551115D02*
X29817292Y15836829D01*
X29817292Y15836829D02*
X29817292Y16051115D01*
X29817292Y16051115D02*
X29888720Y16336829D01*
X29888720Y16336829D02*
X29960149Y16479686D01*
X29960149Y16479686D02*
X30103006Y16622543D01*
X30103006Y16622543D02*
X30317292Y16693972D01*
X30317292Y16693972D02*
X30460149Y16693972D01*
X30460149Y16693972D02*
X30674435Y16622543D01*
X30674435Y16622543D02*
X30745863Y16551115D01*
X31388720Y15193972D02*
X31388720Y16693972D01*
X31388720Y16693972D02*
X32245863Y15193972D01*
X32245863Y15193972D02*
X32245863Y16693972D01*
X33603007Y16193972D02*
X33603007Y15193972D01*
X33245864Y16765400D02*
X32888721Y15693972D01*
X32888721Y15693972D02*
X33817292Y15693972D01*
X72988720Y16609518D02*
X73203006Y16538090D01*
X73203006Y16538090D02*
X73274435Y16466661D01*
X73274435Y16466661D02*
X73345863Y16323804D01*
X73345863Y16323804D02*
X73345863Y16109518D01*
X73345863Y16109518D02*
X73274435Y15966661D01*
X73274435Y15966661D02*
X73203006Y15895232D01*
X73203006Y15895232D02*
X73060149Y15823804D01*
X73060149Y15823804D02*
X72488720Y15823804D01*
X72488720Y15823804D02*
X72488720Y17323804D01*
X72488720Y17323804D02*
X72988720Y17323804D01*
X72988720Y17323804D02*
X73131578Y17252375D01*
X73131578Y17252375D02*
X73203006Y17180947D01*
X73203006Y17180947D02*
X73274435Y17038090D01*
X73274435Y17038090D02*
X73274435Y16895232D01*
X73274435Y16895232D02*
X73203006Y16752375D01*
X73203006Y16752375D02*
X73131578Y16680947D01*
X73131578Y16680947D02*
X72988720Y16609518D01*
X72988720Y16609518D02*
X72488720Y16609518D01*
X74274435Y17323804D02*
X74560149Y17323804D01*
X74560149Y17323804D02*
X74703006Y17252375D01*
X74703006Y17252375D02*
X74845863Y17109518D01*
X74845863Y17109518D02*
X74917292Y16823804D01*
X74917292Y16823804D02*
X74917292Y16323804D01*
X74917292Y16323804D02*
X74845863Y16038090D01*
X74845863Y16038090D02*
X74703006Y15895232D01*
X74703006Y15895232D02*
X74560149Y15823804D01*
X74560149Y15823804D02*
X74274435Y15823804D01*
X74274435Y15823804D02*
X74131578Y15895232D01*
X74131578Y15895232D02*
X73988720Y16038090D01*
X73988720Y16038090D02*
X73917292Y16323804D01*
X73917292Y16323804D02*
X73917292Y16823804D01*
X73917292Y16823804D02*
X73988720Y17109518D01*
X73988720Y17109518D02*
X74131578Y17252375D01*
X74131578Y17252375D02*
X74274435Y17323804D01*
X75345864Y17323804D02*
X76203007Y17323804D01*
X75774435Y15823804D02*
X75774435Y17323804D01*
X76345864Y15680947D02*
X77488721Y15680947D01*
X77631578Y17323804D02*
X78131578Y15823804D01*
X78131578Y15823804D02*
X78631578Y17323804D01*
X79917292Y15823804D02*
X79060149Y15823804D01*
X79488720Y15823804D02*
X79488720Y17323804D01*
X79488720Y17323804D02*
X79345863Y17109518D01*
X79345863Y17109518D02*
X79203006Y16966661D01*
X79203006Y16966661D02*
X79060149Y16895232D01*
X72345863Y14908888D02*
X73274435Y14908888D01*
X73274435Y14908888D02*
X72774435Y14337459D01*
X72774435Y14337459D02*
X72988720Y14337459D01*
X72988720Y14337459D02*
X73131578Y14266031D01*
X73131578Y14266031D02*
X73203006Y14194602D01*
X73203006Y14194602D02*
X73274435Y14051745D01*
X73274435Y14051745D02*
X73274435Y13694602D01*
X73274435Y13694602D02*
X73203006Y13551745D01*
X73203006Y13551745D02*
X73131578Y13480316D01*
X73131578Y13480316D02*
X72988720Y13408888D01*
X72988720Y13408888D02*
X72560149Y13408888D01*
X72560149Y13408888D02*
X72417292Y13480316D01*
X72417292Y13480316D02*
X72345863Y13551745D01*
X73703006Y14908888D02*
X74203006Y13408888D01*
X74203006Y13408888D02*
X74703006Y14908888D01*
X75060148Y14908888D02*
X75988720Y14908888D01*
X75988720Y14908888D02*
X75488720Y14337459D01*
X75488720Y14337459D02*
X75703005Y14337459D01*
X75703005Y14337459D02*
X75845863Y14266031D01*
X75845863Y14266031D02*
X75917291Y14194602D01*
X75917291Y14194602D02*
X75988720Y14051745D01*
X75988720Y14051745D02*
X75988720Y13694602D01*
X75988720Y13694602D02*
X75917291Y13551745D01*
X75917291Y13551745D02*
X75845863Y13480316D01*
X75845863Y13480316D02*
X75703005Y13408888D01*
X75703005Y13408888D02*
X75274434Y13408888D01*
X75274434Y13408888D02*
X75131577Y13480316D01*
X75131577Y13480316D02*
X75060148Y13551745D01*
X72488720Y10993972D02*
X72488720Y12493972D01*
X72488720Y12493972D02*
X73345863Y10993972D01*
X73345863Y10993972D02*
X73345863Y12493972D01*
X74345864Y12493972D02*
X74631578Y12493972D01*
X74631578Y12493972D02*
X74774435Y12422543D01*
X74774435Y12422543D02*
X74917292Y12279686D01*
X74917292Y12279686D02*
X74988721Y11993972D01*
X74988721Y11993972D02*
X74988721Y11493972D01*
X74988721Y11493972D02*
X74917292Y11208258D01*
X74917292Y11208258D02*
X74774435Y11065400D01*
X74774435Y11065400D02*
X74631578Y10993972D01*
X74631578Y10993972D02*
X74345864Y10993972D01*
X74345864Y10993972D02*
X74203007Y11065400D01*
X74203007Y11065400D02*
X74060149Y11208258D01*
X74060149Y11208258D02*
X73988721Y11493972D01*
X73988721Y11493972D02*
X73988721Y11993972D01*
X73988721Y11993972D02*
X74060149Y12279686D01*
X74060149Y12279686D02*
X74203007Y12422543D01*
X74203007Y12422543D02*
X74345864Y12493972D01*
X76488721Y11136829D02*
X76417293Y11065400D01*
X76417293Y11065400D02*
X76203007Y10993972D01*
X76203007Y10993972D02*
X76060150Y10993972D01*
X76060150Y10993972D02*
X75845864Y11065400D01*
X75845864Y11065400D02*
X75703007Y11208258D01*
X75703007Y11208258D02*
X75631578Y11351115D01*
X75631578Y11351115D02*
X75560150Y11636829D01*
X75560150Y11636829D02*
X75560150Y11851115D01*
X75560150Y11851115D02*
X75631578Y12136829D01*
X75631578Y12136829D02*
X75703007Y12279686D01*
X75703007Y12279686D02*
X75845864Y12422543D01*
X75845864Y12422543D02*
X76060150Y12493972D01*
X76060150Y12493972D02*
X76203007Y12493972D01*
X76203007Y12493972D02*
X76417293Y12422543D01*
X76417293Y12422543D02*
X76488721Y12351115D01*
X37888720Y38393972D02*
X37888720Y39893972D01*
X37888720Y39893972D02*
X38245863Y39893972D01*
X38245863Y39893972D02*
X38460149Y39822543D01*
X38460149Y39822543D02*
X38603006Y39679686D01*
X38603006Y39679686D02*
X38674435Y39536829D01*
X38674435Y39536829D02*
X38745863Y39251115D01*
X38745863Y39251115D02*
X38745863Y39036829D01*
X38745863Y39036829D02*
X38674435Y38751115D01*
X38674435Y38751115D02*
X38603006Y38608258D01*
X38603006Y38608258D02*
X38460149Y38465400D01*
X38460149Y38465400D02*
X38245863Y38393972D01*
X38245863Y38393972D02*
X37888720Y38393972D01*
X39674435Y39893972D02*
X39960149Y39893972D01*
X39960149Y39893972D02*
X40103006Y39822543D01*
X40103006Y39822543D02*
X40245863Y39679686D01*
X40245863Y39679686D02*
X40317292Y39393972D01*
X40317292Y39393972D02*
X40317292Y38893972D01*
X40317292Y38893972D02*
X40245863Y38608258D01*
X40245863Y38608258D02*
X40103006Y38465400D01*
X40103006Y38465400D02*
X39960149Y38393972D01*
X39960149Y38393972D02*
X39674435Y38393972D01*
X39674435Y38393972D02*
X39531578Y38465400D01*
X39531578Y38465400D02*
X39388720Y38608258D01*
X39388720Y38608258D02*
X39317292Y38893972D01*
X39317292Y38893972D02*
X39317292Y39393972D01*
X39317292Y39393972D02*
X39388720Y39679686D01*
X39388720Y39679686D02*
X39531578Y39822543D01*
X39531578Y39822543D02*
X39674435Y39893972D01*
X40817292Y39893972D02*
X41174435Y38393972D01*
X41174435Y38393972D02*
X41460149Y39465400D01*
X41460149Y39465400D02*
X41745864Y38393972D01*
X41745864Y38393972D02*
X42103007Y39893972D01*
X42674435Y38393972D02*
X42674435Y39893972D01*
X42674435Y39893972D02*
X43174435Y38822543D01*
X43174435Y38822543D02*
X43674435Y39893972D01*
X43674435Y39893972D02*
X43674435Y38393972D01*
X11445863Y22401745D02*
X11374435Y22330316D01*
X11374435Y22330316D02*
X11160149Y22258888D01*
X11160149Y22258888D02*
X11017292Y22258888D01*
X11017292Y22258888D02*
X10803006Y22330316D01*
X10803006Y22330316D02*
X10660149Y22473174D01*
X10660149Y22473174D02*
X10588720Y22616031D01*
X10588720Y22616031D02*
X10517292Y22901745D01*
X10517292Y22901745D02*
X10517292Y23116031D01*
X10517292Y23116031D02*
X10588720Y23401745D01*
X10588720Y23401745D02*
X10660149Y23544602D01*
X10660149Y23544602D02*
X10803006Y23687459D01*
X10803006Y23687459D02*
X11017292Y23758888D01*
X11017292Y23758888D02*
X11160149Y23758888D01*
X11160149Y23758888D02*
X11374435Y23687459D01*
X11374435Y23687459D02*
X11445863Y23616031D01*
X12088720Y22258888D02*
X12088720Y23758888D01*
X12088720Y23758888D02*
X12945863Y22258888D01*
X12945863Y22258888D02*
X12945863Y23758888D01*
X14445864Y22258888D02*
X13588721Y22258888D01*
X14017292Y22258888D02*
X14017292Y23758888D01*
X14017292Y23758888D02*
X13874435Y23544602D01*
X13874435Y23544602D02*
X13731578Y23401745D01*
X13731578Y23401745D02*
X13588721Y23330316D01*
X11445863Y19986829D02*
X11374435Y19915400D01*
X11374435Y19915400D02*
X11160149Y19843972D01*
X11160149Y19843972D02*
X11017292Y19843972D01*
X11017292Y19843972D02*
X10803006Y19915400D01*
X10803006Y19915400D02*
X10660149Y20058258D01*
X10660149Y20058258D02*
X10588720Y20201115D01*
X10588720Y20201115D02*
X10517292Y20486829D01*
X10517292Y20486829D02*
X10517292Y20701115D01*
X10517292Y20701115D02*
X10588720Y20986829D01*
X10588720Y20986829D02*
X10660149Y21129686D01*
X10660149Y21129686D02*
X10803006Y21272543D01*
X10803006Y21272543D02*
X11017292Y21343972D01*
X11017292Y21343972D02*
X11160149Y21343972D01*
X11160149Y21343972D02*
X11374435Y21272543D01*
X11374435Y21272543D02*
X11445863Y21201115D01*
X12088720Y19843972D02*
X12088720Y21343972D01*
X12088720Y21343972D02*
X12945863Y19843972D01*
X12945863Y19843972D02*
X12945863Y21343972D01*
X13588721Y21201115D02*
X13660149Y21272543D01*
X13660149Y21272543D02*
X13803007Y21343972D01*
X13803007Y21343972D02*
X14160149Y21343972D01*
X14160149Y21343972D02*
X14303007Y21272543D01*
X14303007Y21272543D02*
X14374435Y21201115D01*
X14374435Y21201115D02*
X14445864Y21058258D01*
X14445864Y21058258D02*
X14445864Y20915400D01*
X14445864Y20915400D02*
X14374435Y20701115D01*
X14374435Y20701115D02*
X13517292Y19843972D01*
X13517292Y19843972D02*
X14445864Y19843972D01*
X90474435Y16893972D02*
X91331578Y16893972D01*
X90903006Y15393972D02*
X90903006Y16893972D01*
X91831577Y16179686D02*
X92331577Y16179686D01*
X92545863Y15393972D02*
X91831577Y15393972D01*
X91831577Y15393972D02*
X91831577Y16893972D01*
X91831577Y16893972D02*
X92545863Y16893972D01*
X93188720Y15393972D02*
X93188720Y16893972D01*
X93188720Y16893972D02*
X94045863Y15393972D01*
X94045863Y15393972D02*
X94045863Y16893972D01*
X94760149Y15965400D02*
X95903007Y15965400D01*
X96617292Y15393972D02*
X96617292Y16893972D01*
X96617292Y16179686D02*
X97474435Y16179686D01*
X97474435Y15393972D02*
X97474435Y16893972D01*
X98117293Y15822543D02*
X98831579Y15822543D01*
X97974436Y15393972D02*
X98474436Y16893972D01*
X98474436Y16893972D02*
X98974436Y15393972D01*
X99474435Y15393972D02*
X99474435Y16893972D01*
X99474435Y16893972D02*
X100331578Y15393972D01*
X100331578Y15393972D02*
X100331578Y16893972D01*
X58838720Y39543972D02*
X58838720Y38329686D01*
X58838720Y38329686D02*
X58910149Y38186829D01*
X58910149Y38186829D02*
X58981578Y38115400D01*
X58981578Y38115400D02*
X59124435Y38043972D01*
X59124435Y38043972D02*
X59410149Y38043972D01*
X59410149Y38043972D02*
X59553006Y38115400D01*
X59553006Y38115400D02*
X59624435Y38186829D01*
X59624435Y38186829D02*
X59695863Y38329686D01*
X59695863Y38329686D02*
X59695863Y39543972D01*
X60410149Y38043972D02*
X60410149Y39543972D01*
X60410149Y39543972D02*
X60981578Y39543972D01*
X60981578Y39543972D02*
X61124435Y39472543D01*
X61124435Y39472543D02*
X61195864Y39401115D01*
X61195864Y39401115D02*
X61267292Y39258258D01*
X61267292Y39258258D02*
X61267292Y39043972D01*
X61267292Y39043972D02*
X61195864Y38901115D01*
X61195864Y38901115D02*
X61124435Y38829686D01*
X61124435Y38829686D02*
X60981578Y38758258D01*
X60981578Y38758258D02*
X60410149Y38758258D01*
X61910149Y38829686D02*
X62410149Y38829686D01*
X62624435Y38043972D02*
X61910149Y38043972D01*
X61910149Y38043972D02*
X61910149Y39543972D01*
X61910149Y39543972D02*
X62624435Y39543972D01*
X64124435Y38043972D02*
X63624435Y38758258D01*
X63267292Y38043972D02*
X63267292Y39543972D01*
X63267292Y39543972D02*
X63838721Y39543972D01*
X63838721Y39543972D02*
X63981578Y39472543D01*
X63981578Y39472543D02*
X64053007Y39401115D01*
X64053007Y39401115D02*
X64124435Y39258258D01*
X64124435Y39258258D02*
X64124435Y39043972D01*
X64124435Y39043972D02*
X64053007Y38901115D01*
X64053007Y38901115D02*
X63981578Y38829686D01*
X63981578Y38829686D02*
X63838721Y38758258D01*
X63838721Y38758258D02*
X63267292Y38758258D01*
X61545863Y30993972D02*
X61045863Y31708258D01*
X60688720Y30993972D02*
X60688720Y32493972D01*
X60688720Y32493972D02*
X61260149Y32493972D01*
X61260149Y32493972D02*
X61403006Y32422543D01*
X61403006Y32422543D02*
X61474435Y32351115D01*
X61474435Y32351115D02*
X61545863Y32208258D01*
X61545863Y32208258D02*
X61545863Y31993972D01*
X61545863Y31993972D02*
X61474435Y31851115D01*
X61474435Y31851115D02*
X61403006Y31779686D01*
X61403006Y31779686D02*
X61260149Y31708258D01*
X61260149Y31708258D02*
X60688720Y31708258D01*
X62474435Y32493972D02*
X62760149Y32493972D01*
X62760149Y32493972D02*
X62903006Y32422543D01*
X62903006Y32422543D02*
X63045863Y32279686D01*
X63045863Y32279686D02*
X63117292Y31993972D01*
X63117292Y31993972D02*
X63117292Y31493972D01*
X63117292Y31493972D02*
X63045863Y31208258D01*
X63045863Y31208258D02*
X62903006Y31065400D01*
X62903006Y31065400D02*
X62760149Y30993972D01*
X62760149Y30993972D02*
X62474435Y30993972D01*
X62474435Y30993972D02*
X62331578Y31065400D01*
X62331578Y31065400D02*
X62188720Y31208258D01*
X62188720Y31208258D02*
X62117292Y31493972D01*
X62117292Y31493972D02*
X62117292Y31993972D01*
X62117292Y31993972D02*
X62188720Y32279686D01*
X62188720Y32279686D02*
X62331578Y32422543D01*
X62331578Y32422543D02*
X62474435Y32493972D01*
X63617292Y32493972D02*
X63974435Y30993972D01*
X63974435Y30993972D02*
X64260149Y32065400D01*
X64260149Y32065400D02*
X64545864Y30993972D01*
X64545864Y30993972D02*
X64903007Y32493972D01*
%TO.C,C15*%
X22509900Y23570000D02*
X22509900Y24570000D01*
X22509900Y22970000D02*
X22509900Y21970000D01*
X22809900Y21670000D02*
X23809900Y21670000D01*
X23809900Y24870000D02*
X22809900Y24870000D01*
X24109900Y23570000D02*
X24109900Y24570000D01*
X24109900Y22970000D02*
X24109900Y21970000D01*
X22509900Y24570000D02*
G75*
G02*
X22809900Y24870000I300000J0D01*
G01*
X22809900Y21670000D02*
G75*
G02*
X22509900Y21970000I0J300000D01*
G01*
X23809900Y24870000D02*
G75*
G02*
X24109900Y24570000I0J-300000D01*
G01*
X24109900Y21970000D02*
G75*
G02*
X23809900Y21670000I-300000J0D01*
G01*
%TO.C,C3*%
X90800000Y28100000D02*
X90800000Y29100000D01*
X90800000Y27500000D02*
X90800000Y26500000D01*
X91100000Y26200000D02*
X92100000Y26200000D01*
X92100000Y29400000D02*
X91100000Y29400000D01*
X92400000Y28100000D02*
X92400000Y29100000D01*
X92400000Y27500000D02*
X92400000Y26500000D01*
X90800000Y29100000D02*
G75*
G02*
X91100000Y29400000I300000J0D01*
G01*
X91100000Y26200000D02*
G75*
G02*
X90800000Y26500000I0J300000D01*
G01*
X92100000Y29400000D02*
G75*
G02*
X92400000Y29100000I0J-300000D01*
G01*
X92400000Y26500000D02*
G75*
G02*
X92100000Y26200000I-300000J0D01*
G01*
%TO.C,C8*%
X33470000Y30720000D02*
X33470000Y29720000D01*
X34770000Y31020000D02*
X33770000Y31020000D01*
X34770000Y29420000D02*
X33770000Y29420000D01*
X35370000Y31020000D02*
X36370000Y31020000D01*
X35370000Y29420000D02*
X36370000Y29420000D01*
X36670000Y29720000D02*
X36670000Y30720000D01*
X33470000Y30720000D02*
G75*
G02*
X33770000Y31020000I300000J0D01*
G01*
X33770000Y29420000D02*
G75*
G02*
X33470000Y29720000I0J300000D01*
G01*
X36370000Y31020000D02*
G75*
G02*
X36670000Y30720000I0J-300000D01*
G01*
X36670000Y29720000D02*
G75*
G02*
X36370000Y29420000I-300000J0D01*
G01*
%TO.C,C19*%
X16600000Y17500000D02*
X16600000Y18500000D01*
X16600000Y16900000D02*
X16600000Y15900000D01*
X16900000Y15600000D02*
X17900000Y15600000D01*
X17900000Y18800000D02*
X16900000Y18800000D01*
X18200000Y17500000D02*
X18200000Y18500000D01*
X18200000Y16900000D02*
X18200000Y15900000D01*
X16600000Y18500000D02*
G75*
G02*
X16900000Y18800000I300000J0D01*
G01*
X16900000Y15600000D02*
G75*
G02*
X16600000Y15900000I0J300000D01*
G01*
X17900000Y18800000D02*
G75*
G02*
X18200000Y18500000I0J-300000D01*
G01*
X18200000Y15900000D02*
G75*
G02*
X17900000Y15600000I-300000J0D01*
G01*
%TO.C,C5*%
X71390000Y29950000D02*
X71390000Y30950000D01*
X71390000Y29350000D02*
X71390000Y28350000D01*
X71690000Y28050000D02*
X72690000Y28050000D01*
X72690000Y31250000D02*
X71690000Y31250000D01*
X72990000Y29950000D02*
X72990000Y30950000D01*
X72990000Y29350000D02*
X72990000Y28350000D01*
X71390000Y30950000D02*
G75*
G02*
X71690000Y31250000I300000J0D01*
G01*
X71690000Y28050000D02*
G75*
G02*
X71390000Y28350000I0J300000D01*
G01*
X72690000Y31250000D02*
G75*
G02*
X72990000Y30950000I0J-300000D01*
G01*
X72990000Y28350000D02*
G75*
G02*
X72690000Y28050000I-300000J0D01*
G01*
%TO.C,C4*%
X61800000Y19138000D02*
X61800000Y20138000D01*
X61800000Y18538000D02*
X61800000Y17538000D01*
X62100000Y17238000D02*
X63100000Y17238000D01*
X63100000Y20438000D02*
X62100000Y20438000D01*
X63400000Y19138000D02*
X63400000Y20138000D01*
X63400000Y18538000D02*
X63400000Y17538000D01*
X61800000Y20138000D02*
G75*
G02*
X62100000Y20438000I300000J0D01*
G01*
X62100000Y17238000D02*
G75*
G02*
X61800000Y17538000I0J300000D01*
G01*
X63100000Y20438000D02*
G75*
G02*
X63400000Y20138000I0J-300000D01*
G01*
X63400000Y17538000D02*
G75*
G02*
X63100000Y17238000I-300000J0D01*
G01*
%TO.C,C18*%
X18550000Y17500000D02*
X18550000Y18500000D01*
X18550000Y16900000D02*
X18550000Y15900000D01*
X18850000Y15600000D02*
X19850000Y15600000D01*
X19850000Y18800000D02*
X18850000Y18800000D01*
X20150000Y17500000D02*
X20150000Y18500000D01*
X20150000Y16900000D02*
X20150000Y15900000D01*
X18550000Y18500000D02*
G75*
G02*
X18850000Y18800000I300000J0D01*
G01*
X18850000Y15600000D02*
G75*
G02*
X18550000Y15900000I0J300000D01*
G01*
X19850000Y18800000D02*
G75*
G02*
X20150000Y18500000I0J-300000D01*
G01*
X20150000Y15900000D02*
G75*
G02*
X19850000Y15600000I-300000J0D01*
G01*
D12*
%TO.C,J1*%
X69226000Y40104500D02*
X79354000Y40104500D01*
X69226000Y38707500D02*
X69226000Y40104500D01*
X69226000Y34516500D02*
X69226000Y35405500D01*
X71440000Y34516500D02*
X69226000Y34516500D01*
X73459000Y34516500D02*
X72921000Y34516500D01*
X75459000Y34516500D02*
X74921000Y34516500D01*
D11*
X76560000Y39215500D02*
X76560000Y40104500D01*
X77576000Y40104500D02*
X77576000Y39215500D01*
X77576000Y39215500D02*
X76560000Y39215500D01*
D12*
X79354000Y40104500D02*
X79354000Y38707500D01*
X79354000Y35405500D02*
X79354000Y34516500D01*
X79354000Y34516500D02*
X77021000Y34516500D01*
D11*
%TO.C,C10*%
X8880000Y28200000D02*
X8880000Y29200000D01*
X8880000Y27600000D02*
X8880000Y26600000D01*
X9180000Y26300000D02*
X10180000Y26300000D01*
X10180000Y29500000D02*
X9180000Y29500000D01*
X10480000Y28200000D02*
X10480000Y29200000D01*
X10480000Y27600000D02*
X10480000Y26600000D01*
X8880000Y29200000D02*
G75*
G02*
X9180000Y29500000I300000J0D01*
G01*
X9180000Y26300000D02*
G75*
G02*
X8880000Y26600000I0J300000D01*
G01*
X10180000Y29500000D02*
G75*
G02*
X10480000Y29200000I0J-300000D01*
G01*
X10480000Y26600000D02*
G75*
G02*
X10180000Y26300000I-300000J0D01*
G01*
D12*
%TO.C,P3*%
X35290000Y23720000D02*
X37290000Y23720000D01*
X35290000Y22401100D02*
X35290000Y23720000D01*
X35290000Y18520000D02*
X35290000Y18938900D01*
X37290000Y23720000D02*
X37290000Y22720000D01*
X37290000Y22720000D02*
X37458800Y22720000D01*
X39121100Y22720000D02*
X39458800Y22720000D01*
X41121100Y22720000D02*
X41458800Y22720000D01*
X43121100Y22720000D02*
X43458800Y22720000D01*
X45121100Y22720000D02*
X45458800Y22720000D01*
X47121100Y22720000D02*
X47458800Y22720000D01*
X49121100Y22720000D02*
X49290100Y22720000D01*
X49290000Y23720000D02*
X49290000Y22720000D01*
X51290000Y23720000D02*
X49290000Y23720000D01*
X51290000Y22401100D02*
X51290000Y23720000D01*
X51290000Y18520000D02*
X35290000Y18520000D01*
X51290000Y18520000D02*
X51290000Y18938800D01*
X37031400Y24320000D02*
G75*
G02*
X36748400Y24320000I-141500J0D01*
G01*
X36748400Y24320000D02*
G75*
G02*
X37031400Y24320000I141500J0D01*
G01*
D11*
%TO.C,C7*%
X56750000Y34290000D02*
X56750000Y35290000D01*
X56750000Y33690000D02*
X56750000Y32690000D01*
X57050000Y32390000D02*
X58050000Y32390000D01*
X58050000Y35590000D02*
X57050000Y35590000D01*
X58350000Y34290000D02*
X58350000Y35290000D01*
X58350000Y33690000D02*
X58350000Y32690000D01*
X56750000Y35290000D02*
G75*
G02*
X57050000Y35590000I300000J0D01*
G01*
X57050000Y32390000D02*
G75*
G02*
X56750000Y32690000I0J300000D01*
G01*
X58050000Y35590000D02*
G75*
G02*
X58350000Y35290000I0J-300000D01*
G01*
X58350000Y32690000D02*
G75*
G02*
X58050000Y32390000I-300000J0D01*
G01*
%TO.C,C16*%
X24509900Y23570000D02*
X24509900Y24570000D01*
X24509900Y22970000D02*
X24509900Y21970000D01*
X24809900Y21670000D02*
X25809900Y21670000D01*
X25809900Y24870000D02*
X24809900Y24870000D01*
X26109900Y23570000D02*
X26109900Y24570000D01*
X26109900Y22970000D02*
X26109900Y21970000D01*
X24509900Y24570000D02*
G75*
G02*
X24809900Y24870000I300000J0D01*
G01*
X24809900Y21670000D02*
G75*
G02*
X24509900Y21970000I0J300000D01*
G01*
X25809900Y24870000D02*
G75*
G02*
X26109900Y24570000I0J-300000D01*
G01*
X26109900Y21970000D02*
G75*
G02*
X25809900Y21670000I-300000J0D01*
G01*
D12*
%TO.C,J3*%
X40556500Y37544000D02*
X41445500Y37544000D01*
X40556500Y35330000D02*
X40556500Y37544000D01*
X40556500Y33311000D02*
X40556500Y33849000D01*
X40556500Y31311000D02*
X40556500Y31849000D01*
X40556500Y27416000D02*
X40556500Y29749000D01*
X41445500Y27416000D02*
X40556500Y27416000D01*
X44747500Y37544000D02*
X46144500Y37544000D01*
D11*
X45255500Y30210000D02*
X46144500Y30210000D01*
X45255500Y29194000D02*
X45255500Y30210000D01*
D12*
X46144500Y37544000D02*
X46144500Y27416000D01*
D11*
X46144500Y29194000D02*
X45255500Y29194000D01*
D12*
X46144500Y27416000D02*
X44747500Y27416000D01*
D11*
%TO.C,C23*%
X73800000Y28589000D02*
X73800000Y27589000D01*
X75100000Y28889000D02*
X74100000Y28889000D01*
X75100000Y27289000D02*
X74100000Y27289000D01*
X75700000Y28889000D02*
X76700000Y28889000D01*
X75700000Y27289000D02*
X76700000Y27289000D01*
X77000000Y27589000D02*
X77000000Y28589000D01*
X73800000Y28589000D02*
G75*
G02*
X74100000Y28889000I300000J0D01*
G01*
X74100000Y27289000D02*
G75*
G02*
X73800000Y27589000I0J300000D01*
G01*
X76700000Y28889000D02*
G75*
G02*
X77000000Y28589000I0J-300000D01*
G01*
X77000000Y27589000D02*
G75*
G02*
X76700000Y27289000I-300000J0D01*
G01*
%TO.C,C2*%
X60000000Y28400000D02*
X60000000Y27400000D01*
X61300000Y28700000D02*
X60300000Y28700000D01*
X61300000Y27100000D02*
X60300000Y27100000D01*
X61900000Y28700000D02*
X62900000Y28700000D01*
X61900000Y27100000D02*
X62900000Y27100000D01*
X63200000Y27400000D02*
X63200000Y28400000D01*
X60000000Y28400000D02*
G75*
G02*
X60300000Y28700000I300000J0D01*
G01*
X60300000Y27100000D02*
G75*
G02*
X60000000Y27400000I0J300000D01*
G01*
X62900000Y28700000D02*
G75*
G02*
X63200000Y28400000I0J-300000D01*
G01*
X63200000Y27400000D02*
G75*
G02*
X62900000Y27100000I-300000J0D01*
G01*
%TO.C,C6*%
X56750000Y37850000D02*
X56750000Y38850000D01*
X56750000Y37250000D02*
X56750000Y36250000D01*
X57050000Y35950000D02*
X58050000Y35950000D01*
X58050000Y39150000D02*
X57050000Y39150000D01*
X58350000Y37850000D02*
X58350000Y38850000D01*
X58350000Y37250000D02*
X58350000Y36250000D01*
X56750000Y38850000D02*
G75*
G02*
X57050000Y39150000I300000J0D01*
G01*
X57050000Y35950000D02*
G75*
G02*
X56750000Y36250000I0J300000D01*
G01*
X58050000Y39150000D02*
G75*
G02*
X58350000Y38850000I0J-300000D01*
G01*
X58350000Y36250000D02*
G75*
G02*
X58050000Y35950000I-300000J0D01*
G01*
%TO.C,C21*%
X12600000Y17500000D02*
X12600000Y18500000D01*
X12600000Y16900000D02*
X12600000Y15900000D01*
X12900000Y15600000D02*
X13900000Y15600000D01*
X13900000Y18800000D02*
X12900000Y18800000D01*
X14200000Y17500000D02*
X14200000Y18500000D01*
X14200000Y16900000D02*
X14200000Y15900000D01*
X12600000Y18500000D02*
G75*
G02*
X12900000Y18800000I300000J0D01*
G01*
X12900000Y15600000D02*
G75*
G02*
X12600000Y15900000I0J300000D01*
G01*
X13900000Y18800000D02*
G75*
G02*
X14200000Y18500000I0J-300000D01*
G01*
X14200000Y15900000D02*
G75*
G02*
X13900000Y15600000I-300000J0D01*
G01*
%TO.C,C14*%
X20509900Y23570000D02*
X20509900Y24570000D01*
X20509900Y22970000D02*
X20509900Y21970000D01*
X20809900Y21670000D02*
X21809900Y21670000D01*
X21809900Y24870000D02*
X20809900Y24870000D01*
X22109900Y23570000D02*
X22109900Y24570000D01*
X22109900Y22970000D02*
X22109900Y21970000D01*
X20509900Y24570000D02*
G75*
G02*
X20809900Y24870000I300000J0D01*
G01*
X20809900Y21670000D02*
G75*
G02*
X20509900Y21970000I0J300000D01*
G01*
X21809900Y24870000D02*
G75*
G02*
X22109900Y24570000I0J-300000D01*
G01*
X22109900Y21970000D02*
G75*
G02*
X21809900Y21670000I-300000J0D01*
G01*
%TO.C,C25*%
X10800000Y28200000D02*
X10800000Y29200000D01*
X10800000Y27600000D02*
X10800000Y26600000D01*
X11100000Y26300000D02*
X12100000Y26300000D01*
X12100000Y29500000D02*
X11100000Y29500000D01*
X12400000Y28200000D02*
X12400000Y29200000D01*
X12400000Y27600000D02*
X12400000Y26600000D01*
X10800000Y29200000D02*
G75*
G02*
X11100000Y29500000I300000J0D01*
G01*
X11100000Y26300000D02*
G75*
G02*
X10800000Y26600000I0J300000D01*
G01*
X12100000Y29500000D02*
G75*
G02*
X12400000Y29200000I0J-300000D01*
G01*
X12400000Y26600000D02*
G75*
G02*
X12100000Y26300000I-300000J0D01*
G01*
%TO.C,C17*%
X26509900Y23570000D02*
X26509900Y24570000D01*
X26509900Y22970000D02*
X26509900Y21970000D01*
X26809900Y21670000D02*
X27809900Y21670000D01*
X27809900Y24870000D02*
X26809900Y24870000D01*
X28109900Y23570000D02*
X28109900Y24570000D01*
X28109900Y22970000D02*
X28109900Y21970000D01*
X26509900Y24570000D02*
G75*
G02*
X26809900Y24870000I300000J0D01*
G01*
X26809900Y21670000D02*
G75*
G02*
X26509900Y21970000I0J300000D01*
G01*
X27809900Y24870000D02*
G75*
G02*
X28109900Y24570000I0J-300000D01*
G01*
X28109900Y21970000D02*
G75*
G02*
X27809900Y21670000I-300000J0D01*
G01*
D12*
%TO.C,P4*%
X35290000Y16360000D02*
X37290000Y16360000D01*
X35290000Y15041100D02*
X35290000Y16360000D01*
X35290000Y11160000D02*
X35290000Y11578900D01*
X37290000Y16360000D02*
X37290000Y15360000D01*
X37290000Y15360000D02*
X37458800Y15360000D01*
X39121100Y15360000D02*
X39458800Y15360000D01*
X41121100Y15360000D02*
X41458800Y15360000D01*
X43121100Y15360000D02*
X43458800Y15360000D01*
X45121100Y15360000D02*
X45458800Y15360000D01*
X47121100Y15360000D02*
X47458800Y15360000D01*
X49121100Y15360000D02*
X49290100Y15360000D01*
X49290000Y16360000D02*
X49290000Y15360000D01*
X51290000Y16360000D02*
X49290000Y16360000D01*
X51290000Y15041100D02*
X51290000Y16360000D01*
X51290000Y11160000D02*
X35290000Y11160000D01*
X51290000Y11160000D02*
X51290000Y11578800D01*
X37031400Y16960000D02*
G75*
G02*
X36748400Y16960000I-141500J0D01*
G01*
X36748400Y16960000D02*
G75*
G02*
X37031400Y16960000I141500J0D01*
G01*
D11*
%TO.C,C24*%
X59980000Y23650000D02*
X59980000Y22650000D01*
X61280000Y23950000D02*
X60280000Y23950000D01*
X61280000Y22350000D02*
X60280000Y22350000D01*
X61880000Y23950000D02*
X62880000Y23950000D01*
X61880000Y22350000D02*
X62880000Y22350000D01*
X63180000Y22650000D02*
X63180000Y23650000D01*
X59980000Y23650000D02*
G75*
G02*
X60280000Y23950000I300000J0D01*
G01*
X60280000Y22350000D02*
G75*
G02*
X59980000Y22650000I0J300000D01*
G01*
X62880000Y23950000D02*
G75*
G02*
X63180000Y23650000I0J-300000D01*
G01*
X63180000Y22650000D02*
G75*
G02*
X62880000Y22350000I-300000J0D01*
G01*
D12*
%TO.C,P2*%
X14309900Y30725000D02*
X16309900Y30725000D01*
X14309900Y29406100D02*
X14309900Y30725000D01*
X14309900Y25525000D02*
X14309900Y25943900D01*
X16309900Y30725000D02*
X16309900Y29725000D01*
X16309900Y29725000D02*
X16478700Y29725000D01*
X18141000Y29725000D02*
X18478700Y29725000D01*
X20141000Y29725000D02*
X20478700Y29725000D01*
X22141000Y29725000D02*
X22478700Y29725000D01*
X24141000Y29725000D02*
X24478700Y29725000D01*
X26141000Y29725000D02*
X26478700Y29725000D01*
X28141000Y29725000D02*
X28310000Y29725000D01*
X28309900Y30725000D02*
X28309900Y29725000D01*
X30309900Y30725000D02*
X28309900Y30725000D01*
X30309900Y29406100D02*
X30309900Y30725000D01*
X30309900Y25525000D02*
X14309900Y25525000D01*
X30309900Y25525000D02*
X30309900Y25943800D01*
X16051300Y31325000D02*
G75*
G02*
X15768300Y31325000I-141500J0D01*
G01*
X15768300Y31325000D02*
G75*
G02*
X16051300Y31325000I141500J0D01*
G01*
D11*
%TO.C,C1*%
X73800000Y26090000D02*
X73800000Y25090000D01*
X75100000Y26390000D02*
X74100000Y26390000D01*
X75100000Y24790000D02*
X74100000Y24790000D01*
X75700000Y26390000D02*
X76700000Y26390000D01*
X75700000Y24790000D02*
X76700000Y24790000D01*
X77000000Y25090000D02*
X77000000Y26090000D01*
X73800000Y26090000D02*
G75*
G02*
X74100000Y26390000I300000J0D01*
G01*
X74100000Y24790000D02*
G75*
G02*
X73800000Y25090000I0J300000D01*
G01*
X76700000Y26390000D02*
G75*
G02*
X77000000Y26090000I0J-300000D01*
G01*
X77000000Y25090000D02*
G75*
G02*
X76700000Y24790000I-300000J0D01*
G01*
D12*
%TO.C,P1*%
X14309900Y38005000D02*
X16309900Y38005000D01*
X14309900Y36686100D02*
X14309900Y38005000D01*
X14309900Y32805000D02*
X14309900Y33223900D01*
X16309900Y38005000D02*
X16309900Y37005000D01*
X16309900Y37005000D02*
X16478700Y37005000D01*
X18141000Y37005000D02*
X18478700Y37005000D01*
X20141000Y37005000D02*
X20478700Y37005000D01*
X22141000Y37005000D02*
X22478700Y37005000D01*
X24141000Y37005000D02*
X24478700Y37005000D01*
X26141000Y37005000D02*
X26478700Y37005000D01*
X28141000Y37005000D02*
X28310000Y37005000D01*
X28309900Y38005000D02*
X28309900Y37005000D01*
X30309900Y38005000D02*
X28309900Y38005000D01*
X30309900Y36686100D02*
X30309900Y38005000D01*
X30309900Y32805000D02*
X14309900Y32805000D01*
X30309900Y32805000D02*
X30309900Y33223800D01*
X16051300Y38605000D02*
G75*
G02*
X15768300Y38605000I-141500J0D01*
G01*
X15768300Y38605000D02*
G75*
G02*
X16051300Y38605000I141500J0D01*
G01*
D11*
%TO.C,C13*%
X18509900Y23570000D02*
X18509900Y24570000D01*
X18509900Y22970000D02*
X18509900Y21970000D01*
X18809900Y21670000D02*
X19809900Y21670000D01*
X19809900Y24870000D02*
X18809900Y24870000D01*
X20109900Y23570000D02*
X20109900Y24570000D01*
X20109900Y22970000D02*
X20109900Y21970000D01*
X18509900Y24570000D02*
G75*
G02*
X18809900Y24870000I300000J0D01*
G01*
X18809900Y21670000D02*
G75*
G02*
X18509900Y21970000I0J300000D01*
G01*
X19809900Y24870000D02*
G75*
G02*
X20109900Y24570000I0J-300000D01*
G01*
X20109900Y21970000D02*
G75*
G02*
X19809900Y21670000I-300000J0D01*
G01*
%TO.C,C20*%
X14600000Y17500000D02*
X14600000Y18500000D01*
X14600000Y16900000D02*
X14600000Y15900000D01*
X14900000Y15600000D02*
X15900000Y15600000D01*
X15900000Y18800000D02*
X14900000Y18800000D01*
X16200000Y17500000D02*
X16200000Y18500000D01*
X16200000Y16900000D02*
X16200000Y15900000D01*
X14600000Y18500000D02*
G75*
G02*
X14900000Y18800000I300000J0D01*
G01*
X14900000Y15600000D02*
G75*
G02*
X14600000Y15900000I0J300000D01*
G01*
X15900000Y18800000D02*
G75*
G02*
X16200000Y18500000I0J-300000D01*
G01*
X16200000Y15900000D02*
G75*
G02*
X15900000Y15600000I-300000J0D01*
G01*
%TO.C,C26*%
X84406500Y15880000D02*
X84406500Y16880000D01*
X84406500Y15280000D02*
X84406500Y14280000D01*
X84706500Y13980000D02*
X85706500Y13980000D01*
X85706500Y17180000D02*
X84706500Y17180000D01*
X86006500Y15880000D02*
X86006500Y16880000D01*
X86006500Y15280000D02*
X86006500Y14280000D01*
X84406500Y16880000D02*
G75*
G02*
X84706500Y17180000I300000J0D01*
G01*
X84706500Y13980000D02*
G75*
G02*
X84406500Y14280000I0J300000D01*
G01*
X85706500Y17180000D02*
G75*
G02*
X86006500Y16880000I0J-300000D01*
G01*
X86006500Y14280000D02*
G75*
G02*
X85706500Y13980000I-300000J0D01*
G01*
%TO.C,C11*%
X4880000Y28200000D02*
X4880000Y29200000D01*
X4880000Y27600000D02*
X4880000Y26600000D01*
X5180000Y26300000D02*
X6180000Y26300000D01*
X6180000Y29500000D02*
X5180000Y29500000D01*
X6480000Y28200000D02*
X6480000Y29200000D01*
X6480000Y27600000D02*
X6480000Y26600000D01*
X4880000Y29200000D02*
G75*
G02*
X5180000Y29500000I300000J0D01*
G01*
X5180000Y26300000D02*
G75*
G02*
X4880000Y26600000I0J300000D01*
G01*
X6180000Y29500000D02*
G75*
G02*
X6480000Y29200000I0J-300000D01*
G01*
X6480000Y26600000D02*
G75*
G02*
X6180000Y26300000I-300000J0D01*
G01*
%TO.C,C22*%
X86906500Y15880000D02*
X86906500Y16880000D01*
X86906500Y15280000D02*
X86906500Y14280000D01*
X87206500Y13980000D02*
X88206500Y13980000D01*
X88206500Y17180000D02*
X87206500Y17180000D01*
X88506500Y15880000D02*
X88506500Y16880000D01*
X88506500Y15280000D02*
X88506500Y14280000D01*
X86906500Y16880000D02*
G75*
G02*
X87206500Y17180000I300000J0D01*
G01*
X87206500Y13980000D02*
G75*
G02*
X86906500Y14280000I0J300000D01*
G01*
X88206500Y17180000D02*
G75*
G02*
X88506500Y16880000I0J-300000D01*
G01*
X88506500Y14280000D02*
G75*
G02*
X88206500Y13980000I-300000J0D01*
G01*
D13*
%TO.C,REF\u002A\u002A*%
X90175056Y7730762D02*
X90197816Y7692614D01*
X90248975Y7605157D01*
X90326004Y7472762D01*
X90426372Y7299796D01*
X90547549Y7090630D01*
X90687006Y6849633D01*
X90842213Y6581176D01*
X91010640Y6289626D01*
X91189757Y5979354D01*
X91373995Y5660000D01*
X91562152Y5333765D01*
X91742803Y5020582D01*
X91913330Y4724988D01*
X92071114Y4451520D01*
X92213538Y4204716D01*
X92337981Y3989111D01*
X92441826Y3809245D01*
X92522455Y3669653D01*
X92577248Y3574872D01*
X92603013Y3530427D01*
X92645014Y3455339D01*
X92667850Y3408337D01*
X92669102Y3400159D01*
X92641272Y3415516D01*
X92563881Y3459593D01*
X92440973Y3530058D01*
X92276595Y3624578D01*
X92074792Y3740822D01*
X91839609Y3876458D01*
X91575091Y4029152D01*
X91285284Y4196572D01*
X90974233Y4376387D01*
X90645984Y4566265D01*
X90521097Y4638536D01*
X90186974Y4831833D01*
X89868147Y5016123D01*
X89568709Y5189050D01*
X89292752Y5348257D01*
X89044370Y5491390D01*
X88827653Y5616090D01*
X88646696Y5720004D01*
X88505591Y5800773D01*
X88408430Y5856043D01*
X88359307Y5883456D01*
X88354170Y5886052D01*
X88369138Y5909559D01*
X88421227Y5972409D01*
X88505117Y6068812D01*
X88615492Y6192980D01*
X88747034Y6339121D01*
X88894424Y6501447D01*
X89052345Y6674168D01*
X89215479Y6851494D01*
X89378508Y7027635D01*
X89536114Y7196802D01*
X89682979Y7353205D01*
X89813786Y7491055D01*
X89923216Y7604561D01*
X90005953Y7687935D01*
X90034328Y7715274D01*
X90128359Y7803597D01*
X90175056Y7730762D01*
G36*
X90175056Y7730762D02*
G01*
X90197816Y7692614D01*
X90248975Y7605157D01*
X90326004Y7472762D01*
X90426372Y7299796D01*
X90547549Y7090630D01*
X90687006Y6849633D01*
X90842213Y6581176D01*
X91010640Y6289626D01*
X91189757Y5979354D01*
X91373995Y5660000D01*
X91562152Y5333765D01*
X91742803Y5020582D01*
X91913330Y4724988D01*
X92071114Y4451520D01*
X92213538Y4204716D01*
X92337981Y3989111D01*
X92441826Y3809245D01*
X92522455Y3669653D01*
X92577248Y3574872D01*
X92603013Y3530427D01*
X92645014Y3455339D01*
X92667850Y3408337D01*
X92669102Y3400159D01*
X92641272Y3415516D01*
X92563881Y3459593D01*
X92440973Y3530058D01*
X92276595Y3624578D01*
X92074792Y3740822D01*
X91839609Y3876458D01*
X91575091Y4029152D01*
X91285284Y4196572D01*
X90974233Y4376387D01*
X90645984Y4566265D01*
X90521097Y4638536D01*
X90186974Y4831833D01*
X89868147Y5016123D01*
X89568709Y5189050D01*
X89292752Y5348257D01*
X89044370Y5491390D01*
X88827653Y5616090D01*
X88646696Y5720004D01*
X88505591Y5800773D01*
X88408430Y5856043D01*
X88359307Y5883456D01*
X88354170Y5886052D01*
X88369138Y5909559D01*
X88421227Y5972409D01*
X88505117Y6068812D01*
X88615492Y6192980D01*
X88747034Y6339121D01*
X88894424Y6501447D01*
X89052345Y6674168D01*
X89215479Y6851494D01*
X89378508Y7027635D01*
X89536114Y7196802D01*
X89682979Y7353205D01*
X89813786Y7491055D01*
X89923216Y7604561D01*
X90005953Y7687935D01*
X90034328Y7715274D01*
X90128359Y7803597D01*
X90175056Y7730762D01*
G37*
X86528085Y14028329D02*
X86574129Y13953509D01*
X86645067Y13834972D01*
X86737991Y13677763D01*
X86849992Y13486924D01*
X86978162Y13267499D01*
X87119592Y13024531D01*
X87271373Y12763063D01*
X87430597Y12488140D01*
X87594356Y12204803D01*
X87759740Y11918098D01*
X87923842Y11633066D01*
X88083752Y11354752D01*
X88236562Y11088198D01*
X88379363Y10838448D01*
X88509247Y10610545D01*
X88623305Y10409534D01*
X88718629Y10240456D01*
X88792310Y10108355D01*
X88841439Y10018276D01*
X88863108Y9975260D01*
X88863902Y9972571D01*
X88837002Y9936070D01*
X88762227Y9880236D01*
X88648470Y9810550D01*
X88504623Y9732491D01*
X88354029Y9658313D01*
X88149119Y9568365D01*
X87933633Y9487547D01*
X87700146Y9414062D01*
X87441236Y9346116D01*
X87149479Y9281912D01*
X86817451Y9219654D01*
X86437731Y9157546D01*
X86044937Y9099710D01*
X85703668Y9048400D01*
X85417090Y8997603D01*
X85178015Y8944796D01*
X84979259Y8887454D01*
X84813635Y8823053D01*
X84673956Y8749069D01*
X84553036Y8662976D01*
X84443689Y8562250D01*
X84408428Y8524833D01*
X84332000Y8437721D01*
X84275463Y8366636D01*
X84249235Y8324833D01*
X84248536Y8321406D01*
X84239360Y8300388D01*
X84207515Y8300151D01*
X84146531Y8323491D01*
X84049935Y8373207D01*
X83911254Y8452095D01*
X83814878Y8508825D01*
X83671166Y8597506D01*
X83559483Y8673441D01*
X83487334Y8731168D01*
X83462226Y8765224D01*
X83462241Y8765471D01*
X83477811Y8797925D01*
X83521783Y8879200D01*
X83591605Y9004866D01*
X83684725Y9170495D01*
X83798589Y9371656D01*
X83930646Y9603920D01*
X84078343Y9862857D01*
X84239128Y10144039D01*
X84410448Y10443035D01*
X84589751Y10755416D01*
X84774485Y11076752D01*
X84962098Y11402614D01*
X85150036Y11728573D01*
X85335747Y12050199D01*
X85516680Y12363063D01*
X85690281Y12662734D01*
X85853999Y12944784D01*
X86005281Y13204782D01*
X86141574Y13438301D01*
X86260326Y13640909D01*
X86358985Y13808177D01*
X86434999Y13935676D01*
X86485814Y14018977D01*
X86508879Y14053650D01*
X86509845Y14054390D01*
X86528085Y14028329D01*
G36*
X86528085Y14028329D02*
G01*
X86574129Y13953509D01*
X86645067Y13834972D01*
X86737991Y13677763D01*
X86849992Y13486924D01*
X86978162Y13267499D01*
X87119592Y13024531D01*
X87271373Y12763063D01*
X87430597Y12488140D01*
X87594356Y12204803D01*
X87759740Y11918098D01*
X87923842Y11633066D01*
X88083752Y11354752D01*
X88236562Y11088198D01*
X88379363Y10838448D01*
X88509247Y10610545D01*
X88623305Y10409534D01*
X88718629Y10240456D01*
X88792310Y10108355D01*
X88841439Y10018276D01*
X88863108Y9975260D01*
X88863902Y9972571D01*
X88837002Y9936070D01*
X88762227Y9880236D01*
X88648470Y9810550D01*
X88504623Y9732491D01*
X88354029Y9658313D01*
X88149119Y9568365D01*
X87933633Y9487547D01*
X87700146Y9414062D01*
X87441236Y9346116D01*
X87149479Y9281912D01*
X86817451Y9219654D01*
X86437731Y9157546D01*
X86044937Y9099710D01*
X85703668Y9048400D01*
X85417090Y8997603D01*
X85178015Y8944796D01*
X84979259Y8887454D01*
X84813635Y8823053D01*
X84673956Y8749069D01*
X84553036Y8662976D01*
X84443689Y8562250D01*
X84408428Y8524833D01*
X84332000Y8437721D01*
X84275463Y8366636D01*
X84249235Y8324833D01*
X84248536Y8321406D01*
X84239360Y8300388D01*
X84207515Y8300151D01*
X84146531Y8323491D01*
X84049935Y8373207D01*
X83911254Y8452095D01*
X83814878Y8508825D01*
X83671166Y8597506D01*
X83559483Y8673441D01*
X83487334Y8731168D01*
X83462226Y8765224D01*
X83462241Y8765471D01*
X83477811Y8797925D01*
X83521783Y8879200D01*
X83591605Y9004866D01*
X83684725Y9170495D01*
X83798589Y9371656D01*
X83930646Y9603920D01*
X84078343Y9862857D01*
X84239128Y10144039D01*
X84410448Y10443035D01*
X84589751Y10755416D01*
X84774485Y11076752D01*
X84962098Y11402614D01*
X85150036Y11728573D01*
X85335747Y12050199D01*
X85516680Y12363063D01*
X85690281Y12662734D01*
X85853999Y12944784D01*
X86005281Y13204782D01*
X86141574Y13438301D01*
X86260326Y13640909D01*
X86358985Y13808177D01*
X86434999Y13935676D01*
X86485814Y14018977D01*
X86508879Y14053650D01*
X86509845Y14054390D01*
X86528085Y14028329D01*
G37*
X82844187Y7617683D02*
X82909237Y7592527D01*
X83008385Y7542575D01*
X83150747Y7464248D01*
X83161832Y7458023D01*
X83292947Y7383048D01*
X83403596Y7317362D01*
X83482910Y7267590D01*
X83520023Y7240359D01*
X83521061Y7239026D01*
X83512096Y7201220D01*
X83470971Y7116790D01*
X83400366Y6990335D01*
X83302960Y6826456D01*
X83181435Y6629755D01*
X83038471Y6404830D01*
X83002890Y6349669D01*
X82910186Y6196602D01*
X82842683Y6064888D01*
X82806305Y5966435D01*
X82802572Y5946986D01*
X82804229Y5861376D01*
X82822788Y5725582D01*
X82855936Y5548313D01*
X82901360Y5338281D01*
X82956746Y5104196D01*
X83019780Y4854768D01*
X83088150Y4598710D01*
X83159542Y4344731D01*
X83231641Y4101543D01*
X83302136Y3877855D01*
X83368712Y3682379D01*
X83429055Y3523826D01*
X83471121Y3429756D01*
X83520673Y3329549D01*
X83567460Y3233663D01*
X83569993Y3228414D01*
X83647397Y3131560D01*
X83760368Y3066344D01*
X83891878Y3035091D01*
X84024901Y3040125D01*
X84142410Y3083772D01*
X84208516Y3141236D01*
X84303718Y3298834D01*
X84373478Y3495244D01*
X84411753Y3710441D01*
X84417176Y3832439D01*
X84395339Y4060130D01*
X84331247Y4248680D01*
X84221451Y4407241D01*
X84187213Y4442533D01*
X84085322Y4541530D01*
X84071328Y5941022D01*
X84249635Y6210938D01*
X84333307Y6333109D01*
X84413889Y6443013D01*
X84479885Y6525327D01*
X84508252Y6555616D01*
X84588562Y6630379D01*
X84697330Y6571804D01*
X84766077Y6529832D01*
X84803692Y6497244D01*
X84806097Y6491385D01*
X84831806Y6466544D01*
X84875792Y6448046D01*
X84918299Y6431374D01*
X84983387Y6399701D01*
X85076644Y6349934D01*
X85203658Y6278982D01*
X85370016Y6183753D01*
X85581305Y6061156D01*
X85696124Y5994136D01*
X85831187Y5913857D01*
X85919770Y5856681D01*
X85969710Y5815922D01*
X85988846Y5784893D01*
X85985016Y5756908D01*
X85981822Y5750407D01*
X85950752Y5709467D01*
X85884271Y5632670D01*
X85790124Y5528607D01*
X85676056Y5405868D01*
X85577400Y5301820D01*
X85350059Y5054866D01*
X85172210Y4840817D01*
X85042267Y4657520D01*
X84958642Y4502824D01*
X84930434Y4424268D01*
X84918783Y4355502D01*
X84906749Y4238201D01*
X84895391Y4085766D01*
X84885767Y3911596D01*
X84881238Y3801463D01*
X84874918Y3611071D01*
X84872137Y3471876D01*
X84873715Y3373181D01*
X84880469Y3304292D01*
X84893216Y3254513D01*
X84912773Y3213150D01*
X84928134Y3187894D01*
X85016842Y3090547D01*
X85131147Y3022709D01*
X85251416Y2993124D01*
X85341545Y3003828D01*
X85423152Y3050139D01*
X85525447Y3133076D01*
X85634083Y3238175D01*
X85734713Y3350968D01*
X85812988Y3456990D01*
X85841809Y3508222D01*
X85884982Y3578372D01*
X85963505Y3685222D01*
X86070203Y3820422D01*
X86197903Y3975619D01*
X86339429Y4142464D01*
X86487607Y4312604D01*
X86635263Y4477689D01*
X86775222Y4629367D01*
X86900310Y4759287D01*
X86998520Y4854661D01*
X87107557Y4949935D01*
X87199284Y5020183D01*
X87263621Y5058102D01*
X87284978Y5062271D01*
X87317706Y5045452D01*
X87399341Y5000308D01*
X87525172Y4929551D01*
X87690488Y4835891D01*
X87890578Y4722038D01*
X88120732Y4590702D01*
X88376238Y4444594D01*
X88652387Y4286424D01*
X88944467Y4118903D01*
X89247768Y3944741D01*
X89557579Y3766648D01*
X89869189Y3587335D01*
X90177888Y3409513D01*
X90478964Y3235891D01*
X90767708Y3069181D01*
X91039408Y2912092D01*
X91289354Y2767334D01*
X91512834Y2637620D01*
X91705139Y2525658D01*
X91861557Y2434159D01*
X91977378Y2365833D01*
X92047891Y2323392D01*
X92068329Y2310073D01*
X92040803Y2307440D01*
X91954208Y2304882D01*
X91811428Y2302408D01*
X91615346Y2300034D01*
X91368844Y2297769D01*
X91074806Y2295627D01*
X90736114Y2293621D01*
X90355652Y2291762D01*
X89936301Y2290063D01*
X89480946Y2288536D01*
X88992469Y2287193D01*
X88473753Y2286048D01*
X87927681Y2285111D01*
X87357136Y2284396D01*
X86765000Y2283915D01*
X86154157Y2283681D01*
X85897848Y2283658D01*
X79697939Y2283658D01*
X80140106Y3050305D01*
X80233711Y3212640D01*
X80354204Y3421668D01*
X80497556Y3670397D01*
X80659738Y3951836D01*
X80836723Y4258993D01*
X81024480Y4584875D01*
X81218982Y4922491D01*
X81416200Y5264849D01*
X81612105Y5604957D01*
X81661649Y5690975D01*
X81842304Y6004285D01*
X82014578Y6302394D01*
X82175884Y6580864D01*
X82323632Y6835257D01*
X82455233Y7061136D01*
X82568099Y7254063D01*
X82659641Y7409599D01*
X82727270Y7523308D01*
X82768396Y7590750D01*
X82779905Y7607920D01*
X82804115Y7621621D01*
X82844187Y7617683D01*
G36*
X82844187Y7617683D02*
G01*
X82909237Y7592527D01*
X83008385Y7542575D01*
X83150747Y7464248D01*
X83161832Y7458023D01*
X83292947Y7383048D01*
X83403596Y7317362D01*
X83482910Y7267590D01*
X83520023Y7240359D01*
X83521061Y7239026D01*
X83512096Y7201220D01*
X83470971Y7116790D01*
X83400366Y6990335D01*
X83302960Y6826456D01*
X83181435Y6629755D01*
X83038471Y6404830D01*
X83002890Y6349669D01*
X82910186Y6196602D01*
X82842683Y6064888D01*
X82806305Y5966435D01*
X82802572Y5946986D01*
X82804229Y5861376D01*
X82822788Y5725582D01*
X82855936Y5548313D01*
X82901360Y5338281D01*
X82956746Y5104196D01*
X83019780Y4854768D01*
X83088150Y4598710D01*
X83159542Y4344731D01*
X83231641Y4101543D01*
X83302136Y3877855D01*
X83368712Y3682379D01*
X83429055Y3523826D01*
X83471121Y3429756D01*
X83520673Y3329549D01*
X83567460Y3233663D01*
X83569993Y3228414D01*
X83647397Y3131560D01*
X83760368Y3066344D01*
X83891878Y3035091D01*
X84024901Y3040125D01*
X84142410Y3083772D01*
X84208516Y3141236D01*
X84303718Y3298834D01*
X84373478Y3495244D01*
X84411753Y3710441D01*
X84417176Y3832439D01*
X84395339Y4060130D01*
X84331247Y4248680D01*
X84221451Y4407241D01*
X84187213Y4442533D01*
X84085322Y4541530D01*
X84071328Y5941022D01*
X84249635Y6210938D01*
X84333307Y6333109D01*
X84413889Y6443013D01*
X84479885Y6525327D01*
X84508252Y6555616D01*
X84588562Y6630379D01*
X84697330Y6571804D01*
X84766077Y6529832D01*
X84803692Y6497244D01*
X84806097Y6491385D01*
X84831806Y6466544D01*
X84875792Y6448046D01*
X84918299Y6431374D01*
X84983387Y6399701D01*
X85076644Y6349934D01*
X85203658Y6278982D01*
X85370016Y6183753D01*
X85581305Y6061156D01*
X85696124Y5994136D01*
X85831187Y5913857D01*
X85919770Y5856681D01*
X85969710Y5815922D01*
X85988846Y5784893D01*
X85985016Y5756908D01*
X85981822Y5750407D01*
X85950752Y5709467D01*
X85884271Y5632670D01*
X85790124Y5528607D01*
X85676056Y5405868D01*
X85577400Y5301820D01*
X85350059Y5054866D01*
X85172210Y4840817D01*
X85042267Y4657520D01*
X84958642Y4502824D01*
X84930434Y4424268D01*
X84918783Y4355502D01*
X84906749Y4238201D01*
X84895391Y4085766D01*
X84885767Y3911596D01*
X84881238Y3801463D01*
X84874918Y3611071D01*
X84872137Y3471876D01*
X84873715Y3373181D01*
X84880469Y3304292D01*
X84893216Y3254513D01*
X84912773Y3213150D01*
X84928134Y3187894D01*
X85016842Y3090547D01*
X85131147Y3022709D01*
X85251416Y2993124D01*
X85341545Y3003828D01*
X85423152Y3050139D01*
X85525447Y3133076D01*
X85634083Y3238175D01*
X85734713Y3350968D01*
X85812988Y3456990D01*
X85841809Y3508222D01*
X85884982Y3578372D01*
X85963505Y3685222D01*
X86070203Y3820422D01*
X86197903Y3975619D01*
X86339429Y4142464D01*
X86487607Y4312604D01*
X86635263Y4477689D01*
X86775222Y4629367D01*
X86900310Y4759287D01*
X86998520Y4854661D01*
X87107557Y4949935D01*
X87199284Y5020183D01*
X87263621Y5058102D01*
X87284978Y5062271D01*
X87317706Y5045452D01*
X87399341Y5000308D01*
X87525172Y4929551D01*
X87690488Y4835891D01*
X87890578Y4722038D01*
X88120732Y4590702D01*
X88376238Y4444594D01*
X88652387Y4286424D01*
X88944467Y4118903D01*
X89247768Y3944741D01*
X89557579Y3766648D01*
X89869189Y3587335D01*
X90177888Y3409513D01*
X90478964Y3235891D01*
X90767708Y3069181D01*
X91039408Y2912092D01*
X91289354Y2767334D01*
X91512834Y2637620D01*
X91705139Y2525658D01*
X91861557Y2434159D01*
X91977378Y2365833D01*
X92047891Y2323392D01*
X92068329Y2310073D01*
X92040803Y2307440D01*
X91954208Y2304882D01*
X91811428Y2302408D01*
X91615346Y2300034D01*
X91368844Y2297769D01*
X91074806Y2295627D01*
X90736114Y2293621D01*
X90355652Y2291762D01*
X89936301Y2290063D01*
X89480946Y2288536D01*
X88992469Y2287193D01*
X88473753Y2286048D01*
X87927681Y2285111D01*
X87357136Y2284396D01*
X86765000Y2283915D01*
X86154157Y2283681D01*
X85897848Y2283658D01*
X79697939Y2283658D01*
X80140106Y3050305D01*
X80233711Y3212640D01*
X80354204Y3421668D01*
X80497556Y3670397D01*
X80659738Y3951836D01*
X80836723Y4258993D01*
X81024480Y4584875D01*
X81218982Y4922491D01*
X81416200Y5264849D01*
X81612105Y5604957D01*
X81661649Y5690975D01*
X81842304Y6004285D01*
X82014578Y6302394D01*
X82175884Y6580864D01*
X82323632Y6835257D01*
X82455233Y7061136D01*
X82568099Y7254063D01*
X82659641Y7409599D01*
X82727270Y7523308D01*
X82768396Y7590750D01*
X82779905Y7607920D01*
X82804115Y7621621D01*
X82844187Y7617683D01*
G37*
D12*
%TO.C,J4*%
X2716000Y38834500D02*
X12844000Y38834500D01*
X2716000Y37437500D02*
X2716000Y38834500D01*
X2716000Y33246500D02*
X2716000Y34135500D01*
X4930000Y33246500D02*
X2716000Y33246500D01*
X6949000Y33246500D02*
X6411000Y33246500D01*
X8949000Y33246500D02*
X8411000Y33246500D01*
D11*
X10050000Y37945500D02*
X10050000Y38834500D01*
X11066000Y38834500D02*
X11066000Y37945500D01*
X11066000Y37945500D02*
X10050000Y37945500D01*
D12*
X12844000Y38834500D02*
X12844000Y37437500D01*
X12844000Y34135500D02*
X12844000Y33246500D01*
X12844000Y33246500D02*
X10511000Y33246500D01*
D11*
%TO.C,C9*%
X33470000Y32620000D02*
X33470000Y31620000D01*
X34770000Y32920000D02*
X33770000Y32920000D01*
X34770000Y31320000D02*
X33770000Y31320000D01*
X35370000Y32920000D02*
X36370000Y32920000D01*
X35370000Y31320000D02*
X36370000Y31320000D01*
X36670000Y31620000D02*
X36670000Y32620000D01*
X33470000Y32620000D02*
G75*
G02*
X33770000Y32920000I300000J0D01*
G01*
X33770000Y31320000D02*
G75*
G02*
X33470000Y31620000I0J300000D01*
G01*
X36370000Y32920000D02*
G75*
G02*
X36670000Y32620000I0J-300000D01*
G01*
X36670000Y31620000D02*
G75*
G02*
X36370000Y31320000I-300000J0D01*
G01*
%TO.C,C12*%
X16509900Y23570000D02*
X16509900Y24570000D01*
X16509900Y22970000D02*
X16509900Y21970000D01*
X16809900Y21670000D02*
X17809900Y21670000D01*
X17809900Y24870000D02*
X16809900Y24870000D01*
X18109900Y23570000D02*
X18109900Y24570000D01*
X18109900Y22970000D02*
X18109900Y21970000D01*
X16509900Y24570000D02*
G75*
G02*
X16809900Y24870000I300000J0D01*
G01*
X16809900Y21670000D02*
G75*
G02*
X16509900Y21970000I0J300000D01*
G01*
X17809900Y24870000D02*
G75*
G02*
X18109900Y24570000I0J-300000D01*
G01*
X18109900Y21970000D02*
G75*
G02*
X17809900Y21670000I-300000J0D01*
G01*
D12*
%TO.C,J2*%
X46945500Y39564000D02*
X48342500Y39564000D01*
D11*
X46945500Y37786000D02*
X47834500Y37786000D01*
D12*
X46945500Y29436000D02*
X46945500Y39564000D01*
D11*
X47834500Y37786000D02*
X47834500Y36770000D01*
X47834500Y36770000D02*
X46945500Y36770000D01*
D12*
X48342500Y29436000D02*
X46945500Y29436000D01*
X51644500Y39564000D02*
X52533500Y39564000D01*
X52533500Y39564000D02*
X52533500Y37231000D01*
X52533500Y35669000D02*
X52533500Y35131000D01*
X52533500Y33669000D02*
X52533500Y33131000D01*
X52533500Y31650000D02*
X52533500Y29436000D01*
X52533500Y29436000D02*
X51644500Y29436000D01*
%TD*%
M02*
