%TF.GenerationSoftware,KiCad,Pcbnew,8.0.2*%
%TF.CreationDate,2025-05-12T10:49:56+08:00*%
%TF.ProjectId,ternel_box,7465726e-656c-45f6-926f-782e6b696361,rev?*%
%TF.SameCoordinates,PX7233d70PY8583b00*%
%TF.FileFunction,Legend,Bot*%
%TF.FilePolarity,Positive*%
%FSLAX46Y46*%
G04 Gerber Fmt 4.6, Leading zero omitted, Abs format (unit mm)*
G04 Created by KiCad (PCBNEW 8.0.2) date 2025-05-12 10:49:56*
%MOMM*%
%LPD*%
G01*
G04 APERTURE LIST*
%ADD10C,0.400000*%
%ADD11C,0.200000*%
%ADD12C,1.000000*%
%ADD13C,0.300000*%
G04 APERTURE END LIST*
D10*
X6000000Y35250000D02*
X30000000Y35250000D01*
X30000000Y8250000D01*
X6000000Y8250000D01*
X6000000Y35250000D01*
X12290628Y26781104D02*
G75*
G02*
X21281104Y17709372I-40628J-9031104D01*
G01*
D11*
X8125000Y18750000D02*
X23625000Y18750000D01*
X23625000Y16750000D01*
X8125000Y16750000D01*
X8125000Y18750000D01*
G36*
X8125000Y18750000D02*
G01*
X23625000Y18750000D01*
X23625000Y16750000D01*
X8125000Y16750000D01*
X8125000Y18750000D01*
G37*
X16250000Y29500000D02*
X8000000Y29500000D01*
X12250000Y34500000D01*
X16250000Y29500000D01*
G36*
X16250000Y29500000D02*
G01*
X8000000Y29500000D01*
X12250000Y34500000D01*
X16250000Y29500000D01*
G37*
D12*
X17006574Y17750000D02*
G75*
G02*
X7493426Y17750000I-4756574J0D01*
G01*
X7493426Y17750000D02*
G75*
G02*
X17006574Y17750000I4756574J0D01*
G01*
D11*
X11500000Y30625000D02*
X13000000Y30625000D01*
X13000000Y9375000D01*
X11500000Y9375000D01*
X11500000Y30625000D01*
G36*
X11500000Y30625000D02*
G01*
X13000000Y30625000D01*
X13000000Y9375000D01*
X11500000Y9375000D01*
X11500000Y30625000D01*
G37*
X28625000Y17750000D02*
X23625000Y14750000D01*
X23625000Y20750000D01*
X28625000Y17750000D01*
G36*
X28625000Y17750000D02*
G01*
X23625000Y14750000D01*
X23625000Y20750000D01*
X28625000Y17750000D01*
G37*
D13*
G36*
X51796545Y92106169D02*
G01*
X52506559Y90179826D01*
X52901500Y90179826D01*
X53611514Y92106169D01*
X53215108Y92106169D01*
X52703663Y90671487D01*
X52704396Y90671487D01*
X52193684Y92106169D01*
X51796545Y92106169D01*
G37*
G36*
X50654753Y93124193D02*
G01*
X50806306Y93095928D01*
X50942904Y93040886D01*
X51064549Y92959065D01*
X51125704Y92903935D01*
X51224333Y92793432D01*
X51308240Y92668438D01*
X51377424Y92528954D01*
X51409288Y92443266D01*
X51450893Y92287859D01*
X51477831Y92133395D01*
X51493888Y91987267D01*
X51503454Y91828465D01*
X51505211Y91774218D01*
X51507392Y91619958D01*
X51504076Y91456072D01*
X51492559Y91289983D01*
X51469748Y91130175D01*
X51452514Y91049900D01*
X51413108Y90908201D01*
X51362921Y90770095D01*
X51301953Y90635583D01*
X51251713Y90550326D01*
X51153844Y90434516D01*
X51028966Y90333195D01*
X50895289Y90255297D01*
X50768950Y90204767D01*
X50624476Y90177931D01*
X50461834Y90187153D01*
X50317166Y90230384D01*
X50181612Y90301551D01*
X50064375Y90395615D01*
X49965457Y90512576D01*
X49884856Y90652436D01*
X49827740Y90793286D01*
X49782054Y90950405D01*
X49751992Y91098026D01*
X49730328Y91257601D01*
X49717062Y91429128D01*
X49715594Y91458608D01*
X49713948Y91514857D01*
X50084891Y91514857D01*
X50088008Y91397186D01*
X50101861Y91246061D01*
X50130693Y91083927D01*
X50173551Y90930140D01*
X50231189Y90795138D01*
X50322730Y90668705D01*
X50449057Y90579163D01*
X50530487Y90552811D01*
X50680039Y90561360D01*
X50816154Y90635583D01*
X50900098Y90719206D01*
X50979754Y90844155D01*
X51037422Y90982663D01*
X51077739Y91125046D01*
X51107081Y91282405D01*
X51123940Y91449301D01*
X51128457Y91599946D01*
X51123803Y91757597D01*
X51109979Y91922255D01*
X51103444Y91977364D01*
X51079067Y92131357D01*
X51041575Y92289528D01*
X50986792Y92441958D01*
X50909944Y92577314D01*
X50841873Y92657441D01*
X50715718Y92747000D01*
X50565561Y92775883D01*
X50473512Y92759763D01*
X50343858Y92680434D01*
X50253419Y92561927D01*
X50238862Y92535886D01*
X50177238Y92399329D01*
X50134219Y92252183D01*
X50109804Y92094446D01*
X50100097Y91977553D01*
X50091120Y91819123D01*
X50086448Y91670608D01*
X50084891Y91514857D01*
X49713948Y91514857D01*
X49710545Y91631132D01*
X49711936Y91796184D01*
X49719767Y91953767D01*
X49734038Y92103879D01*
X49758827Y92269568D01*
X49767763Y92315069D01*
X49808505Y92466793D01*
X49863974Y92606806D01*
X49945398Y92752482D01*
X50046057Y92882862D01*
X50131245Y92966281D01*
X50253405Y93050659D01*
X50402548Y93108909D01*
X50564096Y93128326D01*
X50654753Y93124193D01*
G37*
G36*
X48796755Y90212799D02*
G01*
X49223203Y90212799D01*
X49223203Y90622394D01*
X48796755Y90622394D01*
X48796755Y90212799D01*
G37*
G36*
X46489090Y93125100D02*
G01*
X46634038Y93101993D01*
X46780286Y93060915D01*
X46877784Y93021347D01*
X47010465Y92940014D01*
X47126866Y92832303D01*
X47216597Y92711608D01*
X47288318Y92571172D01*
X47337892Y92426372D01*
X47358740Y92332734D01*
X47373398Y92184260D01*
X47368117Y92026165D01*
X47346685Y91877558D01*
X47303225Y91733348D01*
X47232196Y91604800D01*
X47133598Y91491914D01*
X47007431Y91394690D01*
X46971977Y91373366D01*
X46822661Y91306734D01*
X46661346Y91269960D01*
X46510353Y91262276D01*
X46350174Y91277453D01*
X46377225Y91220014D01*
X46450737Y91069905D01*
X46532658Y90910494D01*
X46604248Y90776267D01*
X46681218Y90636087D01*
X46763570Y90489953D01*
X46851303Y90337866D01*
X46944417Y90179826D01*
X46527494Y90179826D01*
X46487301Y90247877D01*
X46409752Y90379573D01*
X46300523Y90566106D01*
X46199808Y90739423D01*
X46107606Y90899526D01*
X46023919Y91046413D01*
X45948745Y91180086D01*
X45861756Y91337760D01*
X45789903Y91471941D01*
X45710502Y91629163D01*
X45662585Y91735380D01*
X45602810Y91892825D01*
X45560416Y92051558D01*
X45544173Y92205088D01*
X45545269Y92265466D01*
X45959700Y92265466D01*
X45969557Y92114959D01*
X46002128Y91958891D01*
X46020053Y91924149D01*
X46099214Y91796225D01*
X46199965Y91689247D01*
X46328239Y91623522D01*
X46474738Y91594725D01*
X46528222Y91593548D01*
X46672077Y91628890D01*
X46797871Y91712694D01*
X46857236Y91774829D01*
X46935487Y91908642D01*
X46970795Y92053413D01*
X46975604Y92155720D01*
X46956885Y92305403D01*
X46907048Y92450552D01*
X46884276Y92496187D01*
X46796826Y92616986D01*
X46670376Y92704076D01*
X46574191Y92738134D01*
X46427110Y92751703D01*
X46417198Y92751596D01*
X46265409Y92720684D01*
X46134752Y92641794D01*
X46118480Y92627832D01*
X46021805Y92508885D01*
X45969888Y92364823D01*
X45959700Y92265466D01*
X45545269Y92265466D01*
X45545425Y92274049D01*
X45558648Y92423062D01*
X45595464Y92576581D01*
X45609431Y92612702D01*
X45685466Y92745506D01*
X45781577Y92857216D01*
X45833595Y92905653D01*
X45954430Y92994164D01*
X46086392Y93060182D01*
X46118057Y93072360D01*
X46263956Y93113353D01*
X46416852Y93128326D01*
X46489090Y93125100D01*
G37*
G36*
X44952861Y91056902D02*
G01*
X44903341Y90900840D01*
X44832220Y90754906D01*
X44733336Y90635780D01*
X44599648Y90562525D01*
X44566713Y90554983D01*
X44408732Y90540271D01*
X44258260Y90557808D01*
X44132205Y90610670D01*
X44012662Y90705134D01*
X43918815Y90830397D01*
X43894068Y90881047D01*
X43849027Y91023557D01*
X43830590Y91179611D01*
X43831053Y91256204D01*
X43850390Y91403002D01*
X43901339Y91541103D01*
X43941695Y91606449D01*
X44050102Y91718945D01*
X44182980Y91789903D01*
X44202547Y91796225D01*
X44348385Y91819667D01*
X44498123Y91808783D01*
X44559385Y91796225D01*
X44699348Y91741133D01*
X44821382Y91647298D01*
X44892777Y91563218D01*
X45215177Y91601319D01*
X45172558Y91767252D01*
X45132351Y91942284D01*
X45091684Y92124917D01*
X45056225Y92286745D01*
X45016516Y92469878D01*
X44972557Y92674313D01*
X44940889Y92822439D01*
X44907333Y92980033D01*
X44889846Y93062380D01*
X43544556Y93062380D01*
X43544556Y92718730D01*
X44603349Y92718730D01*
X44632836Y92565785D01*
X44666065Y92406362D01*
X44702495Y92249237D01*
X44741509Y92104441D01*
X44749895Y92076860D01*
X44607947Y92130053D01*
X44462190Y92158657D01*
X44326378Y92163322D01*
X44177244Y92147737D01*
X44032093Y92112066D01*
X43903593Y92062206D01*
X43766378Y91982728D01*
X43652845Y91874766D01*
X43606838Y91807216D01*
X43539220Y91676483D01*
X43485605Y91536234D01*
X43471284Y91486281D01*
X43444276Y91341745D01*
X43436342Y91187671D01*
X43437578Y91141899D01*
X43453922Y90990300D01*
X43489856Y90835558D01*
X43513049Y90763078D01*
X43573293Y90626825D01*
X43660418Y90500380D01*
X43716748Y90441410D01*
X43836560Y90346760D01*
X43964330Y90274203D01*
X44046475Y90238444D01*
X44200451Y90194824D01*
X44356260Y90177649D01*
X44494173Y90179826D01*
X44650192Y90205243D01*
X44801346Y90260426D01*
X44933224Y90335542D01*
X44976308Y90365939D01*
X45093831Y90481788D01*
X45179710Y90618728D01*
X45240502Y90764772D01*
X45281950Y90909432D01*
X45293579Y90961647D01*
X44952861Y91056902D01*
G37*
G36*
X41248185Y91531710D02*
G01*
X43174528Y91531710D01*
X43174528Y91842387D01*
X41248185Y91842387D01*
X41248185Y91531710D01*
G37*
G36*
X39463258Y91725883D02*
G01*
X39621116Y91739851D01*
X39780203Y91727647D01*
X39933990Y91679419D01*
X40001814Y91641619D01*
X40125261Y91537363D01*
X40225841Y91410128D01*
X40306877Y91270463D01*
X40353524Y91170475D01*
X40353524Y90212799D01*
X40730146Y90212799D01*
X40730146Y92106169D01*
X40353524Y92106169D01*
X40353524Y91693643D01*
X40264856Y91817920D01*
X40147962Y91926785D01*
X40017201Y92012380D01*
X39881253Y92073657D01*
X39729771Y92114879D01*
X39582081Y92134686D01*
X39463258Y92139142D01*
X39463258Y91725883D01*
G37*
G36*
X37133914Y91001215D02*
G01*
X37145695Y90842734D01*
X37181038Y90699399D01*
X37250281Y90554136D01*
X37350298Y90428656D01*
X37380111Y90400377D01*
X37511041Y90303886D01*
X37657632Y90234964D01*
X37819886Y90193610D01*
X37974705Y90180041D01*
X37997801Y90179826D01*
X38155812Y90192343D01*
X38304145Y90229895D01*
X38442801Y90292481D01*
X38571780Y90380101D01*
X38641137Y90441410D01*
X38746489Y90565430D01*
X38825965Y90707963D01*
X38879565Y90869009D01*
X38904913Y91021783D01*
X38911514Y91159484D01*
X38902008Y91323343D01*
X38873492Y91473653D01*
X38816195Y91631889D01*
X38733023Y91771682D01*
X38641137Y91876825D01*
X38517688Y91979037D01*
X38384562Y92056143D01*
X38241758Y92108146D01*
X38089278Y92135043D01*
X37997801Y92139142D01*
X37842461Y92129745D01*
X37682531Y92095994D01*
X37541378Y92037696D01*
X37419001Y91954852D01*
X37405024Y91942771D01*
X37297701Y91824314D01*
X37225503Y91689859D01*
X37188428Y91539408D01*
X37183007Y91448912D01*
X37590404Y91448912D01*
X37620897Y91594659D01*
X37709673Y91716644D01*
X37723761Y91725883D01*
X37867450Y91782169D01*
X37997801Y91795492D01*
X38145846Y91770702D01*
X38283975Y91696331D01*
X38344382Y91645283D01*
X38434073Y91520109D01*
X38483303Y91368297D01*
X38500534Y91220778D01*
X38501919Y91159484D01*
X38492073Y91002955D01*
X38457458Y90854668D01*
X38389766Y90724437D01*
X38344382Y90672952D01*
X38221455Y90581865D01*
X38078750Y90530628D01*
X37997801Y90523476D01*
X37844408Y90541494D01*
X37708967Y90601200D01*
X37668073Y90632652D01*
X37582922Y90756933D01*
X37547889Y90909226D01*
X37543510Y91001215D01*
X37133914Y91001215D01*
G37*
G36*
X36038485Y92471068D02*
G01*
X36152589Y92368556D01*
X36279511Y92271401D01*
X36410253Y92181732D01*
X36536941Y92101412D01*
X36582170Y92073929D01*
X36582170Y92441026D01*
X36455091Y92532549D01*
X36335346Y92628974D01*
X36222936Y92730300D01*
X36117860Y92836528D01*
X36020119Y92947657D01*
X35929712Y93063688D01*
X35895603Y93111473D01*
X35661863Y93111473D01*
X35661863Y90228919D01*
X36038485Y90228919D01*
X36038485Y92471068D01*
G37*
G36*
X51806803Y86020566D02*
G01*
X51817007Y85851571D01*
X51847616Y85698494D01*
X51907585Y85543041D01*
X51994207Y85408380D01*
X52020027Y85377963D01*
X52141431Y85273778D01*
X52272529Y85207035D01*
X52426838Y85163082D01*
X52577577Y85143547D01*
X52687543Y85139826D01*
X52849900Y85148198D01*
X52995152Y85173314D01*
X53142994Y85223779D01*
X53283449Y85309359D01*
X53355792Y85377963D01*
X53448756Y85507427D01*
X53515160Y85657682D01*
X53551474Y85806210D01*
X53567453Y85970657D01*
X53568283Y86020566D01*
X53568283Y88038500D01*
X53142568Y88038500D01*
X53142568Y86020566D01*
X53130403Y85865362D01*
X53083692Y85716710D01*
X53018004Y85624160D01*
X52893082Y85539009D01*
X52749707Y85502637D01*
X52687543Y85499596D01*
X52534624Y85520154D01*
X52399424Y85588275D01*
X52358548Y85624160D01*
X52277423Y85750028D01*
X52241082Y85894124D01*
X52233251Y86020566D01*
X52233251Y88038500D01*
X51806803Y88038500D01*
X51806803Y86020566D01*
G37*
G36*
X49692149Y85987593D02*
G01*
X49703930Y85824729D01*
X49739272Y85677222D01*
X49808515Y85527448D01*
X49908533Y85397732D01*
X49938346Y85368437D01*
X50072114Y85268420D01*
X50207269Y85204346D01*
X50359324Y85162151D01*
X50528279Y85141835D01*
X50605861Y85139826D01*
X50757416Y85148172D01*
X50917951Y85179007D01*
X51060954Y85232562D01*
X51186427Y85308837D01*
X51265317Y85377230D01*
X51369181Y85503626D01*
X51443370Y85644676D01*
X51487883Y85800381D01*
X51502489Y85948644D01*
X51502721Y85970740D01*
X51502721Y86109959D01*
X51077006Y86109959D01*
X51077006Y85987593D01*
X51060382Y85837625D01*
X50997871Y85694547D01*
X50936322Y85624892D01*
X50813561Y85543768D01*
X50663775Y85502655D01*
X50605861Y85499596D01*
X50447668Y85515267D01*
X50302237Y85574197D01*
X50235101Y85632220D01*
X50154959Y85759566D01*
X50119696Y85908229D01*
X50117864Y85954620D01*
X50153768Y86104280D01*
X50244088Y86227118D01*
X50261479Y86244048D01*
X50387394Y86342623D01*
X50520974Y86420046D01*
X50663465Y86486056D01*
X50680600Y86493176D01*
X50822821Y86550766D01*
X50969015Y86621146D01*
X51110077Y86705788D01*
X51235599Y86806374D01*
X51258722Y86829498D01*
X51352618Y86953146D01*
X51411737Y87090533D01*
X51436080Y87241658D01*
X51436775Y87273532D01*
X51424995Y87422841D01*
X51382680Y87577596D01*
X51309590Y87715406D01*
X51205726Y87836272D01*
X51190579Y87850189D01*
X51061710Y87947001D01*
X50921301Y88016152D01*
X50769351Y88057643D01*
X50605861Y88071473D01*
X50449326Y88062225D01*
X50288451Y88028059D01*
X50150997Y87968719D01*
X50022587Y87870076D01*
X49969853Y87808423D01*
X49884261Y87672823D01*
X49823124Y87529071D01*
X49786442Y87377167D01*
X49774214Y87217111D01*
X50202861Y87217111D01*
X50209019Y87367826D01*
X50262714Y87509037D01*
X50293719Y87554167D01*
X50407200Y87650337D01*
X50556585Y87692652D01*
X50605861Y87694850D01*
X50755347Y87675636D01*
X50888749Y87606623D01*
X50902616Y87594467D01*
X50987232Y87467750D01*
X51011060Y87322624D01*
X50983935Y87177827D01*
X50925331Y87081557D01*
X50807677Y86991548D01*
X50670685Y86920734D01*
X50532720Y86860848D01*
X50465177Y86833894D01*
X50312426Y86764982D01*
X50175383Y86690320D01*
X50037997Y86597950D01*
X49921127Y86498070D01*
X49895115Y86471927D01*
X49797001Y86348298D01*
X49730998Y86214816D01*
X49697104Y86071481D01*
X49692149Y85987593D01*
G37*
G36*
X49371214Y85172799D02*
G01*
X48523447Y85172799D01*
X48446156Y85174441D01*
X48275879Y85191045D01*
X48119697Y85225532D01*
X47977610Y85277900D01*
X47832484Y85359645D01*
X47740100Y85440376D01*
X47656477Y85561521D01*
X47598869Y85711698D01*
X47570198Y85863527D01*
X47560642Y86036686D01*
X48003210Y86036686D01*
X48012506Y85905115D01*
X48055648Y85759948D01*
X48151953Y85641745D01*
X48283192Y85575216D01*
X48438072Y85541205D01*
X48589392Y85532569D01*
X48945498Y85532569D01*
X48945498Y86491710D01*
X48540300Y86491710D01*
X48463810Y86488104D01*
X48308686Y86455546D01*
X48168073Y86389128D01*
X48095946Y86328907D01*
X48022691Y86191392D01*
X48003210Y86036686D01*
X47560642Y86036686D01*
X47576527Y86196698D01*
X47630696Y86347753D01*
X47723307Y86472659D01*
X47753354Y86502006D01*
X47876264Y86602535D01*
X48011270Y86666832D01*
X47902923Y86733473D01*
X47788520Y86837558D01*
X47770863Y86856412D01*
X47694112Y86982515D01*
X47654241Y87130062D01*
X47642707Y87289652D01*
X48069155Y87289652D01*
X48071101Y87232774D01*
X48104310Y87077017D01*
X48193719Y86952596D01*
X48201506Y86946375D01*
X48339145Y86873698D01*
X48490474Y86851480D01*
X48945498Y86851480D01*
X48945498Y87678730D01*
X48474354Y87678730D01*
X48463557Y87678640D01*
X48315169Y87655466D01*
X48184926Y87585674D01*
X48164237Y87567384D01*
X48088262Y87436775D01*
X48069155Y87289652D01*
X47642707Y87289652D01*
X47650203Y87401519D01*
X47689558Y87558114D01*
X47762646Y87701262D01*
X47855931Y87817216D01*
X47897615Y87856762D01*
X48026781Y87943201D01*
X48182143Y88001980D01*
X48339572Y88030721D01*
X48490474Y88038500D01*
X49371214Y88038500D01*
X49371214Y85172799D01*
G37*
G36*
X45445254Y86491710D02*
G01*
X47371598Y86491710D01*
X47371598Y86802387D01*
X45445254Y86802387D01*
X45445254Y86491710D01*
G37*
G36*
X43396545Y85987593D02*
G01*
X43408326Y85824729D01*
X43443669Y85677222D01*
X43512912Y85527448D01*
X43612929Y85397732D01*
X43642742Y85368437D01*
X43776511Y85268420D01*
X43911666Y85204346D01*
X44063720Y85162151D01*
X44232675Y85141835D01*
X44310258Y85139826D01*
X44461812Y85148172D01*
X44622347Y85179007D01*
X44765351Y85232562D01*
X44890823Y85308837D01*
X44969713Y85377230D01*
X45073578Y85503626D01*
X45147766Y85644676D01*
X45192280Y85800381D01*
X45206886Y85948644D01*
X45207117Y85970740D01*
X45207117Y86109959D01*
X44781402Y86109959D01*
X44781402Y85987593D01*
X44764778Y85837625D01*
X44702267Y85694547D01*
X44640718Y85624892D01*
X44517957Y85543768D01*
X44368171Y85502655D01*
X44310258Y85499596D01*
X44152064Y85515267D01*
X44006633Y85574197D01*
X43939497Y85632220D01*
X43859355Y85759566D01*
X43824092Y85908229D01*
X43822260Y85954620D01*
X43858164Y86104280D01*
X43948484Y86227118D01*
X43965875Y86244048D01*
X44091790Y86342623D01*
X44225370Y86420046D01*
X44367861Y86486056D01*
X44384996Y86493176D01*
X44527217Y86550766D01*
X44673411Y86621146D01*
X44814473Y86705788D01*
X44939995Y86806374D01*
X44963119Y86829498D01*
X45057014Y86953146D01*
X45116133Y87090533D01*
X45140476Y87241658D01*
X45141172Y87273532D01*
X45129391Y87422841D01*
X45087076Y87577596D01*
X45013986Y87715406D01*
X44910122Y87836272D01*
X44894975Y87850189D01*
X44766106Y87947001D01*
X44625697Y88016152D01*
X44473748Y88057643D01*
X44310258Y88071473D01*
X44153723Y88062225D01*
X43992847Y88028059D01*
X43855394Y87968719D01*
X43726983Y87870076D01*
X43674249Y87808423D01*
X43588657Y87672823D01*
X43527520Y87529071D01*
X43490838Y87377167D01*
X43478611Y87217111D01*
X43907257Y87217111D01*
X43913415Y87367826D01*
X43967110Y87509037D01*
X43998115Y87554167D01*
X44111597Y87650337D01*
X44260982Y87692652D01*
X44310258Y87694850D01*
X44459743Y87675636D01*
X44593145Y87606623D01*
X44607013Y87594467D01*
X44691629Y87467750D01*
X44715457Y87322624D01*
X44688331Y87177827D01*
X44629727Y87081557D01*
X44512073Y86991548D01*
X44375081Y86920734D01*
X44237117Y86860848D01*
X44169574Y86833894D01*
X44016823Y86764982D01*
X43879780Y86690320D01*
X43742393Y86597950D01*
X43625523Y86498070D01*
X43599511Y86471927D01*
X43501398Y86348298D01*
X43435394Y86214816D01*
X43401500Y86071481D01*
X43396545Y85987593D01*
G37*
G36*
X41314131Y86020566D02*
G01*
X41324334Y85851571D01*
X41354943Y85698494D01*
X41414912Y85543041D01*
X41501535Y85408380D01*
X41527355Y85377963D01*
X41648759Y85273778D01*
X41779856Y85207035D01*
X41934165Y85163082D01*
X42084904Y85143547D01*
X42194870Y85139826D01*
X42357227Y85148198D01*
X42502479Y85173314D01*
X42650321Y85223779D01*
X42790776Y85309359D01*
X42863119Y85377963D01*
X42956084Y85507427D01*
X43022487Y85657682D01*
X43058802Y85806210D01*
X43074780Y85970657D01*
X43075610Y86020566D01*
X43075610Y88038500D01*
X42649895Y88038500D01*
X42649895Y86020566D01*
X42637730Y85865362D01*
X42591019Y85716710D01*
X42525331Y85624160D01*
X42400409Y85539009D01*
X42257034Y85502637D01*
X42194870Y85499596D01*
X42041951Y85520154D01*
X41906751Y85588275D01*
X41865875Y85624160D01*
X41784751Y85750028D01*
X41748410Y85894124D01*
X41740579Y86020566D01*
X41740579Y88038500D01*
X41314131Y88038500D01*
X41314131Y86020566D01*
G37*
G36*
X40944103Y85172799D02*
G01*
X40518387Y85172799D01*
X40518387Y86277021D01*
X40063363Y86277021D01*
X39985982Y86279107D01*
X39817999Y86300205D01*
X39667617Y86344022D01*
X39534837Y86410561D01*
X39404640Y86514425D01*
X39362082Y86560544D01*
X39269060Y86697885D01*
X39212084Y86835188D01*
X39177899Y86988480D01*
X39166503Y87157760D01*
X39592219Y87157760D01*
X39601011Y87019137D01*
X39641815Y86867563D01*
X39732903Y86746700D01*
X39859229Y86680170D01*
X40011598Y86646159D01*
X40162281Y86637523D01*
X40518387Y86637523D01*
X40518387Y87678730D01*
X40162281Y87678730D01*
X40027185Y87671861D01*
X39871636Y87639983D01*
X39732903Y87568821D01*
X39647173Y87459839D01*
X39603347Y87312327D01*
X39592219Y87157760D01*
X39166503Y87157760D01*
X39167434Y87207755D01*
X39185340Y87372412D01*
X39226038Y87521011D01*
X39300455Y87671174D01*
X39404640Y87800363D01*
X39483319Y87868967D01*
X39608556Y87945478D01*
X39751395Y87999198D01*
X39911834Y88030128D01*
X40063363Y88038500D01*
X40944103Y88038500D01*
X40944103Y85172799D01*
G37*
G36*
X37100942Y85172799D02*
G01*
X38862421Y85172799D01*
X38862421Y88038500D01*
X38435973Y88038500D01*
X38435973Y85532569D01*
X37100942Y85532569D01*
X37100942Y85172799D01*
G37*
G36*
X34904954Y88038500D02*
G01*
X35694836Y86459470D01*
X35694836Y85172799D01*
X36120551Y85172799D01*
X36120551Y86459470D01*
X36910432Y88038500D01*
X36478122Y88038500D01*
X35901465Y86835360D01*
X35913921Y86835360D01*
X35337264Y88038500D01*
X34904954Y88038500D01*
G37*
G36*
X53346999Y80976902D02*
G01*
X53297480Y80820840D01*
X53226358Y80674906D01*
X53127474Y80555780D01*
X52993786Y80482525D01*
X52960851Y80474983D01*
X52802871Y80460271D01*
X52652399Y80477808D01*
X52526343Y80530670D01*
X52406800Y80625134D01*
X52312954Y80750397D01*
X52288206Y80801047D01*
X52243165Y80943557D01*
X52224728Y81099611D01*
X52225191Y81176204D01*
X52244529Y81323002D01*
X52295477Y81461103D01*
X52335833Y81526449D01*
X52444240Y81638945D01*
X52577119Y81709903D01*
X52596685Y81716225D01*
X52742524Y81739667D01*
X52892261Y81728783D01*
X52953524Y81716225D01*
X53093486Y81661133D01*
X53215520Y81567298D01*
X53286915Y81483218D01*
X53609316Y81521319D01*
X53566696Y81687252D01*
X53526489Y81862284D01*
X53485822Y82044917D01*
X53450364Y82206745D01*
X53410655Y82389878D01*
X53366695Y82594313D01*
X53335028Y82742439D01*
X53301471Y82900033D01*
X53283984Y82982380D01*
X51938695Y82982380D01*
X51938695Y82638730D01*
X52997487Y82638730D01*
X53026974Y82485785D01*
X53060203Y82326362D01*
X53096633Y82169237D01*
X53135647Y82024441D01*
X53144033Y81996860D01*
X53002085Y82050053D01*
X52856328Y82078657D01*
X52720516Y82083322D01*
X52571382Y82067737D01*
X52426231Y82032066D01*
X52297732Y81982206D01*
X52160517Y81902728D01*
X52046983Y81794766D01*
X52000976Y81727216D01*
X51933359Y81596483D01*
X51879744Y81456234D01*
X51865422Y81406281D01*
X51838414Y81261745D01*
X51830480Y81107671D01*
X51831716Y81061899D01*
X51848060Y80910300D01*
X51883995Y80755558D01*
X51907187Y80683078D01*
X51967431Y80546825D01*
X52054556Y80420380D01*
X52110886Y80361410D01*
X52230698Y80266760D01*
X52358468Y80194203D01*
X52440614Y80158444D01*
X52594590Y80114824D01*
X52750398Y80097649D01*
X52888311Y80099826D01*
X53044330Y80125243D01*
X53195484Y80180426D01*
X53327363Y80255542D01*
X53370446Y80285939D01*
X53487970Y80401788D01*
X53573848Y80538728D01*
X53634641Y80684772D01*
X53676088Y80829432D01*
X53687718Y80881647D01*
X53346999Y80976902D01*
G37*
G36*
X49585170Y82998500D02*
G01*
X50423412Y80099826D01*
X50788311Y80099826D01*
X51626552Y82998500D01*
X51181053Y82998500D01*
X50603663Y80839149D01*
X50607327Y80839149D01*
X50030669Y82998500D01*
X49585170Y82998500D01*
G37*
G36*
X47543789Y81451710D02*
G01*
X49470132Y81451710D01*
X49470132Y81762387D01*
X47543789Y81762387D01*
X47543789Y81451710D01*
G37*
G36*
X46531158Y82391068D02*
G01*
X46645262Y82288556D01*
X46772184Y82191401D01*
X46902926Y82101732D01*
X47029614Y82021412D01*
X47074842Y81993929D01*
X47074842Y82361026D01*
X46947763Y82452549D01*
X46828019Y82548974D01*
X46715609Y82650300D01*
X46610533Y82756528D01*
X46512792Y82867657D01*
X46422385Y82983688D01*
X46388276Y83031473D01*
X46154535Y83031473D01*
X46154535Y80148919D01*
X46531158Y80148919D01*
X46531158Y82391068D01*
G37*
G36*
X45314096Y80132799D02*
G01*
X44868597Y80132799D01*
X44637787Y81006211D01*
X43949023Y81006211D01*
X43718213Y80132799D01*
X43272714Y80132799D01*
X43629539Y81366714D01*
X44043545Y81366714D01*
X44543998Y81366714D01*
X44293771Y82318158D01*
X44043545Y81366714D01*
X43629539Y81366714D01*
X44110956Y83031473D01*
X44475854Y83031473D01*
X45314096Y80132799D01*
G37*
G36*
X41248185Y81451710D02*
G01*
X43174528Y81451710D01*
X43174528Y81762387D01*
X41248185Y81762387D01*
X41248185Y81451710D01*
G37*
G36*
X39182623Y80132799D02*
G01*
X39559246Y80132799D01*
X39559246Y82144139D01*
X39549720Y82144139D01*
X39945394Y80132799D01*
X40247278Y80132799D01*
X40642951Y82144139D01*
X40633426Y82144139D01*
X40633426Y80132799D01*
X41010048Y80132799D01*
X41010048Y82998500D01*
X40456838Y82998500D01*
X40094138Y81135904D01*
X40099267Y81135904D01*
X39736566Y82998500D01*
X39182623Y82998500D01*
X39182623Y80132799D01*
G37*
G36*
X39018492Y80132799D02*
G01*
X38572993Y80132799D01*
X38342184Y81006211D01*
X37653419Y81006211D01*
X37422609Y80132799D01*
X36977110Y80132799D01*
X37333935Y81366714D01*
X37747941Y81366714D01*
X38248394Y81366714D01*
X37998167Y82318158D01*
X37747941Y81366714D01*
X37333935Y81366714D01*
X37815352Y83031473D01*
X38180251Y83031473D01*
X39018492Y80132799D01*
G37*
G36*
X34921074Y80132799D02*
G01*
X35370237Y80132799D01*
X35916120Y81256804D01*
X36462002Y80132799D01*
X36911165Y80132799D01*
X36123482Y81640021D01*
X36828367Y82998500D01*
X36379204Y82998500D01*
X35916120Y82008584D01*
X35452302Y82998500D01*
X35003140Y82998500D01*
X35708025Y81640021D01*
X34921074Y80132799D01*
G37*
G36*
X53700174Y76046811D02*
G01*
X53700174Y75735402D01*
X52431088Y75735402D01*
X52431088Y75108919D01*
X52070586Y75108919D01*
X52070586Y75735402D01*
X51674912Y75735402D01*
X51674912Y76062931D01*
X52070586Y76062931D01*
X52431088Y76062931D01*
X53285450Y76062931D01*
X52431088Y77268270D01*
X52431088Y76062931D01*
X52070586Y76062931D01*
X52070586Y77991473D01*
X52354152Y77991473D01*
X53700174Y76046811D01*
G37*
G36*
X51609699Y75092799D02*
G01*
X51164200Y75092799D01*
X50933391Y75966211D01*
X50244626Y75966211D01*
X50013817Y75092799D01*
X49568318Y75092799D01*
X49925143Y76326714D01*
X50339148Y76326714D01*
X50839602Y76326714D01*
X50589375Y77278158D01*
X50339148Y76326714D01*
X49925143Y76326714D01*
X50406559Y77991473D01*
X50771458Y77991473D01*
X51609699Y75092799D01*
G37*
G36*
X47512281Y75092799D02*
G01*
X47961444Y75092799D01*
X48507327Y76216804D01*
X49053210Y75092799D01*
X49502372Y75092799D01*
X48714689Y76600021D01*
X49419574Y77958500D01*
X48970411Y77958500D01*
X48507327Y76968584D01*
X48043510Y77958500D01*
X47594347Y77958500D01*
X48299232Y76600021D01*
X47512281Y75092799D01*
G37*
G36*
X46187508Y75092799D02*
G01*
X46613224Y75092799D01*
X46613224Y77958500D01*
X46187508Y77958500D01*
X46187508Y75092799D01*
G37*
G36*
X43396545Y75907593D02*
G01*
X43408326Y75744729D01*
X43443669Y75597222D01*
X43512912Y75447448D01*
X43612929Y75317732D01*
X43642742Y75288437D01*
X43776511Y75188420D01*
X43911666Y75124346D01*
X44063720Y75082151D01*
X44232675Y75061835D01*
X44310258Y75059826D01*
X44461812Y75068172D01*
X44622347Y75099007D01*
X44765351Y75152562D01*
X44890823Y75228837D01*
X44969713Y75297230D01*
X45073578Y75423626D01*
X45147766Y75564676D01*
X45192280Y75720381D01*
X45206886Y75868644D01*
X45207117Y75890740D01*
X45207117Y76029959D01*
X44781402Y76029959D01*
X44781402Y75907593D01*
X44764778Y75757625D01*
X44702267Y75614547D01*
X44640718Y75544892D01*
X44517957Y75463768D01*
X44368171Y75422655D01*
X44310258Y75419596D01*
X44152064Y75435267D01*
X44006633Y75494197D01*
X43939497Y75552220D01*
X43859355Y75679566D01*
X43824092Y75828229D01*
X43822260Y75874620D01*
X43858164Y76024280D01*
X43948484Y76147118D01*
X43965875Y76164048D01*
X44091790Y76262623D01*
X44225370Y76340046D01*
X44367861Y76406056D01*
X44384996Y76413176D01*
X44527217Y76470766D01*
X44673411Y76541146D01*
X44814473Y76625788D01*
X44939995Y76726374D01*
X44963119Y76749498D01*
X45057014Y76873146D01*
X45116133Y77010533D01*
X45140476Y77161658D01*
X45141172Y77193532D01*
X45129391Y77342841D01*
X45087076Y77497596D01*
X45013986Y77635406D01*
X44910122Y77756272D01*
X44894975Y77770189D01*
X44766106Y77867001D01*
X44625697Y77936152D01*
X44473748Y77977643D01*
X44310258Y77991473D01*
X44153723Y77982225D01*
X43992847Y77948059D01*
X43855394Y77888719D01*
X43726983Y77790076D01*
X43674249Y77728423D01*
X43588657Y77592823D01*
X43527520Y77449071D01*
X43490838Y77297167D01*
X43478611Y77137111D01*
X43907257Y77137111D01*
X43913415Y77287826D01*
X43967110Y77429037D01*
X43998115Y77474167D01*
X44111597Y77570337D01*
X44260982Y77612652D01*
X44310258Y77614850D01*
X44459743Y77595636D01*
X44593145Y77526623D01*
X44607013Y77514467D01*
X44691629Y77387750D01*
X44715457Y77242624D01*
X44688331Y77097827D01*
X44629727Y77001557D01*
X44512073Y76911548D01*
X44375081Y76840734D01*
X44237117Y76780848D01*
X44169574Y76753894D01*
X44016823Y76684982D01*
X43879780Y76610320D01*
X43742393Y76517950D01*
X43625523Y76418070D01*
X43599511Y76391927D01*
X43501398Y76268298D01*
X43435394Y76134816D01*
X43401500Y75991481D01*
X43396545Y75907593D01*
G37*
G36*
X41248185Y76411710D02*
G01*
X43174528Y76411710D01*
X43174528Y76722387D01*
X41248185Y76722387D01*
X41248185Y76411710D01*
G37*
G36*
X40960956Y75199044D02*
G01*
X40930502Y75354592D01*
X40861121Y75498833D01*
X40765397Y75618985D01*
X40726482Y75657000D01*
X40611078Y75770939D01*
X40498678Y75892875D01*
X40393852Y76013913D01*
X40281195Y76150201D01*
X40181332Y76275423D01*
X40084403Y76401482D01*
X39983012Y76540380D01*
X39897901Y76665780D01*
X39819181Y76795019D01*
X39756350Y76920224D01*
X39703724Y77067658D01*
X39678589Y77220688D01*
X39683077Y77303441D01*
X39731803Y77446872D01*
X39831088Y77562094D01*
X39965727Y77634451D01*
X40120516Y77647823D01*
X40272178Y77612307D01*
X40408500Y77541100D01*
X40437055Y77521061D01*
X40549053Y77408923D01*
X40627198Y77280222D01*
X40674459Y77167153D01*
X41034961Y77223573D01*
X40978710Y77370002D01*
X40907028Y77519933D01*
X40828824Y77647354D01*
X40731463Y77765415D01*
X40679588Y77813420D01*
X40554562Y77900527D01*
X40417712Y77962364D01*
X40269038Y77998930D01*
X40181332Y78008326D01*
X40031109Y78014261D01*
X39877983Y77998800D01*
X39730696Y77952892D01*
X39596615Y77880098D01*
X39479627Y77780081D01*
X39388828Y77655059D01*
X39358478Y77598730D01*
X39304932Y77448086D01*
X39285356Y77291530D01*
X39290334Y77150301D01*
X39320809Y76995567D01*
X39375534Y76845277D01*
X39444757Y76703932D01*
X39519942Y76575466D01*
X39548255Y76531145D01*
X39649243Y76384279D01*
X39754612Y76242370D01*
X39852792Y76116066D01*
X39963313Y75978404D01*
X40086177Y75829386D01*
X40186424Y75710168D01*
X40293614Y75584563D01*
X40407745Y75452569D01*
X39248569Y75452569D01*
X39248569Y75108919D01*
X40960956Y75108919D01*
X40960956Y75199044D01*
G37*
G36*
X38505582Y75108919D02*
G01*
X38465938Y75269255D01*
X38423024Y75428961D01*
X38376842Y75588037D01*
X38327392Y75746484D01*
X38274673Y75904301D01*
X38218685Y76061489D01*
X38159428Y76218047D01*
X38096903Y76373975D01*
X38031109Y76529273D01*
X37962046Y76683942D01*
X37889715Y76837981D01*
X37814115Y76991390D01*
X37735247Y77144170D01*
X37653110Y77296320D01*
X37567704Y77447840D01*
X37479030Y77598730D01*
X38878541Y77598730D01*
X38878541Y77942380D01*
X37067969Y77942380D01*
X37067969Y77631703D01*
X37162912Y77474759D01*
X37253750Y77317718D01*
X37340484Y77160579D01*
X37423113Y77003343D01*
X37501638Y76846009D01*
X37576059Y76688579D01*
X37646375Y76531050D01*
X37712587Y76373425D01*
X37774694Y76215702D01*
X37832697Y76057882D01*
X37886595Y75899965D01*
X37936390Y75741951D01*
X37982079Y75583839D01*
X38023664Y75425629D01*
X38061145Y75267323D01*
X38094521Y75108919D01*
X38505582Y75108919D01*
G37*
G36*
X36780006Y75092799D02*
G01*
X35932240Y75092799D01*
X35854949Y75094441D01*
X35684672Y75111045D01*
X35528490Y75145532D01*
X35386403Y75197900D01*
X35241277Y75279645D01*
X35148893Y75360376D01*
X35065269Y75481521D01*
X35007662Y75631698D01*
X34978991Y75783527D01*
X34969434Y75956686D01*
X35412002Y75956686D01*
X35421299Y75825115D01*
X35464440Y75679948D01*
X35560746Y75561745D01*
X35691985Y75495216D01*
X35846865Y75461205D01*
X35998185Y75452569D01*
X36354291Y75452569D01*
X36354291Y76411710D01*
X35949092Y76411710D01*
X35872602Y76408104D01*
X35717479Y76375546D01*
X35576866Y76309128D01*
X35504738Y76248907D01*
X35431483Y76111392D01*
X35412002Y75956686D01*
X34969434Y75956686D01*
X34985320Y76116698D01*
X35039489Y76267753D01*
X35132100Y76392659D01*
X35162147Y76422006D01*
X35285057Y76522535D01*
X35420062Y76586832D01*
X35311716Y76653473D01*
X35197313Y76757558D01*
X35179656Y76776412D01*
X35102905Y76902515D01*
X35063034Y77050062D01*
X35051500Y77209652D01*
X35477948Y77209652D01*
X35479894Y77152774D01*
X35513103Y76997017D01*
X35602512Y76872596D01*
X35610299Y76866375D01*
X35747938Y76793698D01*
X35899267Y76771480D01*
X36354291Y76771480D01*
X36354291Y77598730D01*
X35883147Y77598730D01*
X35872350Y77598640D01*
X35723961Y77575466D01*
X35593719Y77505674D01*
X35573029Y77487384D01*
X35497055Y77356775D01*
X35477948Y77209652D01*
X35051500Y77209652D01*
X35058996Y77321519D01*
X35098351Y77478114D01*
X35171438Y77621262D01*
X35264724Y77737216D01*
X35306408Y77776762D01*
X35435574Y77863201D01*
X35590935Y77921980D01*
X35748365Y77950721D01*
X35899267Y77958500D01*
X36780006Y77958500D01*
X36780006Y75092799D01*
G37*
G36*
X33959302Y77979598D02*
G01*
X34104734Y77943972D01*
X34257801Y77872390D01*
X34392986Y77768480D01*
X34494626Y77653685D01*
X34580536Y77511627D01*
X34638549Y77369318D01*
X34684220Y77205255D01*
X34711869Y77058343D01*
X34731618Y76897509D01*
X34743468Y76722753D01*
X34747418Y76534076D01*
X34743468Y76345261D01*
X34731618Y76170093D01*
X34711869Y76008572D01*
X34684220Y75860698D01*
X34638549Y75695047D01*
X34580536Y75550720D01*
X34494626Y75405674D01*
X34478598Y75384396D01*
X34374769Y75270915D01*
X34257801Y75181751D01*
X34104734Y75108461D01*
X33959302Y75071985D01*
X33800732Y75059826D01*
X33642248Y75071985D01*
X33497623Y75108461D01*
X33346410Y75181751D01*
X33214060Y75288140D01*
X33115631Y75405674D01*
X33032461Y75550720D01*
X32976297Y75695047D01*
X32932083Y75860698D01*
X32905315Y76008572D01*
X32886195Y76170093D01*
X32874724Y76345261D01*
X32870900Y76534076D01*
X33313468Y76534076D01*
X33314724Y76409754D01*
X33320305Y76256854D01*
X33333561Y76086402D01*
X33353793Y75938919D01*
X33393839Y75771031D01*
X33456350Y75634285D01*
X33521666Y75550632D01*
X33646688Y75455028D01*
X33800732Y75419596D01*
X33922119Y75440562D01*
X34054560Y75521070D01*
X34153907Y75634285D01*
X34205204Y75731332D01*
X34251636Y75886357D01*
X34279938Y76055067D01*
X34295416Y76220926D01*
X34302491Y76370151D01*
X34304849Y76534076D01*
X34303529Y76658321D01*
X34297662Y76810877D01*
X34283726Y76980514D01*
X34262456Y77126752D01*
X34220357Y77292175D01*
X34154640Y77425074D01*
X34075918Y77515474D01*
X33945641Y77602646D01*
X33800732Y77631703D01*
X33692025Y77615359D01*
X33561508Y77542715D01*
X33456350Y77425074D01*
X33407792Y77331015D01*
X33363839Y77178695D01*
X33337049Y77011633D01*
X33322398Y76846676D01*
X33315700Y76697864D01*
X33313468Y76534076D01*
X32870900Y76534076D01*
X32874724Y76722593D01*
X32886195Y76897234D01*
X32905315Y77058000D01*
X32932083Y77204889D01*
X32976297Y77368987D01*
X33032461Y77511404D01*
X33115631Y77653685D01*
X33214283Y77768480D01*
X33346763Y77872390D01*
X33497967Y77943972D01*
X33642471Y77979598D01*
X33800732Y77991473D01*
X33959302Y77979598D01*
G37*
G36*
X30838311Y77598730D02*
G01*
X31497766Y77598730D01*
X31497766Y75092799D01*
X31923482Y75092799D01*
X31923482Y77598730D01*
X32582937Y77598730D01*
X32582937Y77958500D01*
X30838311Y77958500D01*
X30838311Y77598730D01*
G37*
M02*
