%TF.GenerationSoftware,KiCad,Pcbnew,8.0.2*%
%TF.CreationDate,2025-05-12T10:49:56+08:00*%
%TF.ProjectId,ternel_box,7465726e-656c-45f6-926f-782e6b696361,rev?*%
%TF.SameCoordinates,PX7233d70PY8583b00*%
%TF.FileFunction,Soldermask,Top*%
%TF.FilePolarity,Negative*%
%FSLAX46Y46*%
G04 Gerber Fmt 4.6, Leading zero omitted, Abs format (unit mm)*
G04 Created by KiCad (PCBNEW 8.0.2) date 2025-05-12 10:49:56*
%MOMM*%
%LPD*%
G01*
G04 APERTURE LIST*
G04 Aperture macros list*
%AMRoundRect*
0 Rectangle with rounded corners*
0 $1 Rounding radius*
0 $2 $3 $4 $5 $6 $7 $8 $9 X,Y pos of 4 corners*
0 Add a 4 corners polygon primitive as box body*
4,1,4,$2,$3,$4,$5,$6,$7,$8,$9,$2,$3,0*
0 Add four circle primitives for the rounded corners*
1,1,$1+$1,$2,$3*
1,1,$1+$1,$4,$5*
1,1,$1+$1,$6,$7*
1,1,$1+$1,$8,$9*
0 Add four rect primitives between the rounded corners*
20,1,$1+$1,$2,$3,$4,$5,0*
20,1,$1+$1,$4,$5,$6,$7,0*
20,1,$1+$1,$6,$7,$8,$9,0*
20,1,$1+$1,$8,$9,$2,$3,0*%
%AMFreePoly0*
4,1,15,0.380426,0.617426,0.381388,0.616442,0.743388,0.237442,0.760000,0.196000,0.760000,-0.575000,0.742426,-0.617426,0.700000,-0.635000,-0.700000,-0.635000,-0.742426,-0.617426,-0.760000,-0.575000,-0.760000,0.575000,-0.742426,0.617426,-0.700000,0.635000,0.338000,0.635000,0.380426,0.617426,0.380426,0.617426,$1*%
G04 Aperture macros list end*
%ADD10R,0.930000X0.980000*%
%ADD11R,0.980000X0.930000*%
%ADD12R,1.800000X1.800000*%
%ADD13C,1.800000*%
%ADD14R,1.250000X1.000000*%
%ADD15R,2.300000X1.600000*%
%ADD16RoundRect,0.050800X0.864000X-0.742500X0.864000X0.742500X-0.864000X0.742500X-0.864000X-0.742500X0*%
%ADD17RoundRect,0.050800X-0.742500X-0.864000X0.742500X-0.864000X0.742500X0.864000X-0.742500X0.864000X0*%
%ADD18RoundRect,0.050000X-2.250000X0.600000X-2.250000X-0.600000X2.250000X-0.600000X2.250000X0.600000X0*%
%ADD19RoundRect,0.050000X-1.500000X0.900000X-1.500000X-0.900000X1.500000X-0.900000X1.500000X0.900000X0*%
%ADD20FreePoly0,270.000000*%
%ADD21R,1.150000X1.400000*%
%ADD22R,1.000000X5.500000*%
%ADD23R,1.600000X3.000000*%
%ADD24R,1.000000X2.200000*%
%ADD25R,3.500000X2.200000*%
%ADD26R,2.120000X1.400000*%
%ADD27R,5.500000X1.000000*%
%ADD28R,3.000000X1.600000*%
%ADD29R,1.100000X0.600000*%
%ADD30R,1.000000X4.000000*%
%ADD31R,2.000000X3.000000*%
%ADD32O,1.500000X0.270000*%
%ADD33O,0.270000X1.500000*%
G04 APERTURE END LIST*
D10*
%TO.C,R52*%
X1480000Y39000000D03*
X3020000Y39000000D03*
%TD*%
D11*
%TO.C,R8*%
X47772712Y66024028D03*
X47772712Y64484028D03*
%TD*%
%TO.C,C32*%
X31500000Y69980000D03*
X31500000Y71520000D03*
%TD*%
%TO.C,C12*%
X49750000Y76230000D03*
X49750000Y77770000D03*
%TD*%
D12*
%TO.C,P9*%
X41620000Y24500000D03*
D13*
X39080000Y24500000D03*
X36540000Y24500000D03*
X34000000Y24500000D03*
%TD*%
D10*
%TO.C,R48*%
X1460000Y67750000D03*
X3000000Y67750000D03*
%TD*%
%TO.C,R41*%
X14520000Y76500000D03*
X12980000Y76500000D03*
%TD*%
D14*
%TO.C,D1*%
X36275000Y94000000D03*
X39225000Y94000000D03*
%TD*%
D11*
%TO.C,C30*%
X37800000Y57370000D03*
X37800000Y55830000D03*
%TD*%
%TO.C,C29*%
X25750000Y57770000D03*
X25750000Y56230000D03*
%TD*%
%TO.C,R9*%
X47770000Y68000000D03*
X47770000Y69540000D03*
%TD*%
D15*
%TO.C,K1*%
X26900000Y53250000D03*
X20600000Y53250000D03*
%TD*%
D10*
%TO.C,C18*%
X51770000Y90750000D03*
X50230000Y90750000D03*
%TD*%
D11*
%TO.C,R73*%
X23000000Y78100000D03*
X23000000Y79640000D03*
%TD*%
D10*
%TO.C,R5*%
X21980000Y58750000D03*
X23520000Y58750000D03*
%TD*%
%TO.C,R28*%
X12980000Y78500000D03*
X14520000Y78500000D03*
%TD*%
%TO.C,R33*%
X1480000Y45000000D03*
X3020000Y45000000D03*
%TD*%
D16*
%TO.C,C20*%
X38750000Y87657400D03*
X38750000Y90842600D03*
%TD*%
D11*
%TO.C,R20*%
X49000000Y17270000D03*
X49000000Y15730000D03*
%TD*%
D10*
%TO.C,R63*%
X1480000Y26250000D03*
X3020000Y26250000D03*
%TD*%
%TO.C,R53*%
X14270000Y63750000D03*
X12730000Y63750000D03*
%TD*%
D11*
%TO.C,R15*%
X21833333Y17270000D03*
X21833333Y15730000D03*
%TD*%
%TO.C,R18*%
X37416666Y17270000D03*
X37416666Y15730000D03*
%TD*%
D10*
%TO.C,C8*%
X44460000Y5000000D03*
X46000000Y5000000D03*
%TD*%
D17*
%TO.C,C16*%
X31707400Y96250000D03*
X34892600Y96250000D03*
%TD*%
D18*
%TO.C,P3*%
X9000000Y49000000D03*
X9000000Y47000000D03*
X9000000Y45000000D03*
X9000000Y43000000D03*
X9000000Y41000000D03*
X9000000Y39000000D03*
D19*
X6450000Y36499900D03*
X6450000Y51499900D03*
%TD*%
D10*
%TO.C,R38*%
X52280594Y39250000D03*
X50740594Y39250000D03*
%TD*%
D11*
%TO.C,R24*%
X33020000Y1480000D03*
X33020000Y3020000D03*
%TD*%
D10*
%TO.C,R31*%
X14290000Y45000000D03*
X12750000Y45000000D03*
%TD*%
D16*
%TO.C,C24*%
X41500000Y94907400D03*
X41500000Y98092600D03*
%TD*%
D11*
%TO.C,R17*%
X33416666Y17270000D03*
X33416666Y15730000D03*
%TD*%
D10*
%TO.C,R35*%
X48480000Y33000000D03*
X50020000Y33000000D03*
%TD*%
D20*
%TO.C,X1*%
X21950000Y65100000D03*
D21*
X21950000Y62900000D03*
X23550000Y62900000D03*
X23550000Y65100000D03*
%TD*%
D10*
%TO.C,C19*%
X31980000Y94000000D03*
X33520000Y94000000D03*
%TD*%
%TO.C,R32*%
X1480000Y47000000D03*
X3020000Y47000000D03*
%TD*%
D11*
%TO.C,R4*%
X22750000Y88570000D03*
X22750000Y87030000D03*
%TD*%
%TO.C,C5*%
X49750000Y69540000D03*
X49750000Y68000000D03*
%TD*%
D18*
%TO.C,P1*%
X9000000Y86500000D03*
X9000000Y84500000D03*
X9000000Y82500000D03*
X9000000Y80500000D03*
X9000000Y78500000D03*
X9000000Y76500000D03*
D19*
X6450000Y73999900D03*
X6450000Y88999900D03*
%TD*%
D10*
%TO.C,R69*%
X1480000Y24250000D03*
X3020000Y24250000D03*
%TD*%
%TO.C,R39*%
X1480000Y43000000D03*
X3020000Y43000000D03*
%TD*%
%TO.C,R11*%
X1460000Y57750000D03*
X3000000Y57750000D03*
%TD*%
D12*
%TO.C,P8*%
X19750000Y82750000D03*
D13*
X19750000Y80210000D03*
%TD*%
D10*
%TO.C,R50*%
X14270000Y39000000D03*
X12730000Y39000000D03*
%TD*%
%TO.C,C17*%
X45730000Y86250000D03*
X47270000Y86250000D03*
%TD*%
%TO.C,R49*%
X1460000Y65750000D03*
X3000000Y65750000D03*
%TD*%
%TO.C,R6*%
X14290000Y57750000D03*
X12750000Y57750000D03*
%TD*%
%TO.C,C3*%
X38040000Y5000000D03*
X36500000Y5000000D03*
%TD*%
D22*
%TO.C,J3*%
X33416666Y11625000D03*
X35416666Y11625000D03*
X37416666Y11625000D03*
D23*
X39916666Y9375000D03*
X30916666Y9375000D03*
%TD*%
D22*
%TO.C,J1*%
X10250000Y11625000D03*
X12250000Y11625000D03*
X14250000Y11625000D03*
D23*
X16750000Y9375000D03*
X7750000Y9375000D03*
%TD*%
D24*
%TO.C,U1*%
X36300000Y91500000D03*
D25*
X34000000Y85500000D03*
D24*
X34000000Y91500000D03*
X31700000Y91500000D03*
%TD*%
D11*
%TO.C,C33*%
X38500000Y68630000D03*
X38500000Y70170000D03*
%TD*%
D10*
%TO.C,C4*%
X49500000Y5000000D03*
X47960000Y5000000D03*
%TD*%
D11*
%TO.C,R27*%
X49500000Y1480000D03*
X49500000Y3020000D03*
%TD*%
D10*
%TO.C,R14*%
X52520000Y71500000D03*
X50980000Y71500000D03*
%TD*%
%TO.C,R54*%
X14290000Y61750000D03*
X12750000Y61750000D03*
%TD*%
D11*
%TO.C,R19*%
X45000000Y17270000D03*
X45000000Y15730000D03*
%TD*%
D10*
%TO.C,C28*%
X23550000Y60750000D03*
X22010000Y60750000D03*
%TD*%
D11*
%TO.C,C10*%
X49750000Y36770000D03*
X49750000Y35230000D03*
%TD*%
D26*
%TO.C,L1*%
X42250000Y87722000D03*
X42250000Y91778000D03*
%TD*%
D22*
%TO.C,J4*%
X45000000Y11625000D03*
X47000000Y11625000D03*
X49000000Y11625000D03*
D23*
X51500000Y9375000D03*
X42500000Y9375000D03*
%TD*%
D10*
%TO.C,R12*%
X1480000Y49000000D03*
X3020000Y49000000D03*
%TD*%
%TO.C,R58*%
X14290000Y59750000D03*
X12750000Y59750000D03*
%TD*%
%TO.C,R56*%
X1460000Y63750000D03*
X3000000Y63750000D03*
%TD*%
D27*
%TO.C,J5*%
X54125000Y19250000D03*
X54125000Y21250000D03*
X54125000Y23250000D03*
D28*
X56375000Y25750000D03*
X56375000Y16750000D03*
%TD*%
D10*
%TO.C,R68*%
X14270000Y24250000D03*
X12730000Y24250000D03*
%TD*%
D27*
%TO.C,J7*%
X54125000Y65000000D03*
X54125000Y67000000D03*
X54125000Y69000000D03*
D28*
X56375000Y71500000D03*
X56375000Y62500000D03*
%TD*%
D17*
%TO.C,C15*%
X45907400Y88500000D03*
X49092600Y88500000D03*
%TD*%
D11*
%TO.C,R3*%
X24750000Y88570000D03*
X24750000Y87030000D03*
%TD*%
D10*
%TO.C,R1*%
X50230000Y92750000D03*
X51770000Y92750000D03*
%TD*%
%TO.C,R21*%
X12980000Y82500000D03*
X14520000Y82500000D03*
%TD*%
%TO.C,R67*%
X52520000Y83250000D03*
X50980000Y83250000D03*
%TD*%
%TO.C,R44*%
X14270000Y41000000D03*
X12730000Y41000000D03*
%TD*%
%TO.C,R13*%
X52520000Y62500000D03*
X50980000Y62500000D03*
%TD*%
%TO.C,R43*%
X1480000Y76500000D03*
X3020000Y76500000D03*
%TD*%
D11*
%TO.C,R64*%
X47770000Y77770000D03*
X47770000Y76230000D03*
%TD*%
D10*
%TO.C,R37*%
X52280594Y25500000D03*
X50740594Y25500000D03*
%TD*%
D29*
%TO.C,U2*%
X48350000Y92800000D03*
X48350000Y93750000D03*
X48350000Y94700000D03*
X45650000Y94700000D03*
X45650000Y93750000D03*
X45650000Y92800000D03*
%TD*%
D10*
%TO.C,R62*%
X1480000Y28250000D03*
X3020000Y28250000D03*
%TD*%
D11*
%TO.C,C9*%
X49750000Y23250000D03*
X49750000Y21710000D03*
%TD*%
%TO.C,R29*%
X12250000Y15730000D03*
X12250000Y17270000D03*
%TD*%
D10*
%TO.C,C21*%
X47270000Y90750000D03*
X45730000Y90750000D03*
%TD*%
%TO.C,R61*%
X1460000Y59750000D03*
X3000000Y59750000D03*
%TD*%
D11*
%TO.C,C11*%
X49750000Y64480000D03*
X49750000Y66020000D03*
%TD*%
D10*
%TO.C,R65*%
X52520000Y74250000D03*
X50980000Y74250000D03*
%TD*%
%TO.C,C2*%
X26270000Y5000000D03*
X24730000Y5000000D03*
%TD*%
D11*
%TO.C,R22*%
X21230000Y1480000D03*
X21230000Y3020000D03*
%TD*%
D27*
%TO.C,J6*%
X54125000Y33000000D03*
X54125000Y35000000D03*
X54125000Y37000000D03*
D28*
X56375000Y39500000D03*
X56375000Y30500000D03*
%TD*%
D10*
%TO.C,R71*%
X1480000Y22250000D03*
X3020000Y22250000D03*
%TD*%
%TO.C,R7*%
X14270000Y49000000D03*
X12730000Y49000000D03*
%TD*%
%TO.C,C25*%
X37730000Y96250000D03*
X39270000Y96250000D03*
%TD*%
D11*
%TO.C,R26*%
X44460000Y1480000D03*
X44460000Y3020000D03*
%TD*%
D10*
%TO.C,R36*%
X14270000Y43000000D03*
X12730000Y43000000D03*
%TD*%
D18*
%TO.C,P4*%
X9000000Y30250000D03*
X9000000Y28250000D03*
X9000000Y26250000D03*
X9000000Y24250000D03*
X9000000Y22250000D03*
X9000000Y20250000D03*
D19*
X6450000Y17749900D03*
X6450000Y32749900D03*
%TD*%
D18*
%TO.C,P2*%
X9000000Y67750000D03*
X9000000Y65750000D03*
X9000000Y63750000D03*
X9000000Y61750000D03*
X9000000Y59750000D03*
X9000000Y57750000D03*
D19*
X6450000Y55249900D03*
X6450000Y70249900D03*
%TD*%
D22*
%TO.C,J2*%
X21833333Y11625000D03*
X23833333Y11625000D03*
X25833333Y11625000D03*
D23*
X28333333Y9375000D03*
X19333333Y9375000D03*
%TD*%
D10*
%TO.C,R57*%
X1460000Y61750000D03*
X3000000Y61750000D03*
%TD*%
%TO.C,R55*%
X1480000Y30250000D03*
X3020000Y30250000D03*
%TD*%
%TO.C,C6*%
X21230000Y5000000D03*
X22770000Y5000000D03*
%TD*%
D30*
%TO.C,P5*%
X26750000Y96749500D03*
X24750000Y96749500D03*
X22750000Y96749500D03*
X20750000Y96749500D03*
D31*
X18250000Y93124500D03*
X29250000Y93124500D03*
%TD*%
D10*
%TO.C,R46*%
X14250000Y67750000D03*
X12710000Y67750000D03*
%TD*%
%TO.C,R2*%
X51770000Y94750000D03*
X50230000Y94750000D03*
%TD*%
D11*
%TO.C,C23*%
X43750000Y95280000D03*
X43750000Y96820000D03*
%TD*%
D10*
%TO.C,C1*%
X10250000Y5000000D03*
X11790000Y5000000D03*
%TD*%
%TO.C,R59*%
X14270000Y28250000D03*
X12730000Y28250000D03*
%TD*%
D11*
%TO.C,C31*%
X29500000Y68730000D03*
X29500000Y70270000D03*
%TD*%
D10*
%TO.C,R40*%
X14520000Y80500000D03*
X12980000Y80500000D03*
%TD*%
%TO.C,C7*%
X33020000Y5000000D03*
X34560000Y5000000D03*
%TD*%
%TO.C,R60*%
X14270000Y26250000D03*
X12730000Y26250000D03*
%TD*%
D32*
%TO.C,U3*%
X30000000Y66300000D03*
X30000000Y65800000D03*
X30000000Y65300000D03*
X30000000Y64800000D03*
X30000000Y64300000D03*
X30000000Y63800000D03*
X30000000Y63300000D03*
X30000000Y62800000D03*
X30000000Y62300000D03*
X30000000Y61800000D03*
X30000000Y61300000D03*
X30000000Y60800000D03*
D33*
X31500000Y59300000D03*
X32000000Y59300000D03*
X32500000Y59300000D03*
X33000000Y59300000D03*
X33500000Y59300000D03*
X34000000Y59300000D03*
X34500000Y59300000D03*
X35000000Y59300000D03*
X35500000Y59300000D03*
X36000000Y59300000D03*
X36500000Y59300000D03*
X37000000Y59300000D03*
D32*
X38500000Y60800000D03*
X38500000Y61300000D03*
X38500000Y61800000D03*
X38500000Y62300000D03*
X38500000Y62800000D03*
X38500000Y63300000D03*
X38500000Y63800000D03*
X38500000Y64300000D03*
X38500000Y64800000D03*
X38500000Y65300000D03*
X38500000Y65800000D03*
X38500000Y66300000D03*
D33*
X37000000Y67800000D03*
X36500000Y67800000D03*
X36000000Y67800000D03*
X35500000Y67800000D03*
X35000000Y67800000D03*
X34500000Y67800000D03*
X34000000Y67800000D03*
X33500000Y67800000D03*
X33000000Y67800000D03*
X32500000Y67800000D03*
X32000000Y67800000D03*
X31500000Y67800000D03*
%TD*%
D10*
%TO.C,C14*%
X12955000Y86499900D03*
X14495000Y86499900D03*
%TD*%
D12*
%TO.C,P7*%
X23230000Y45500000D03*
D13*
X25770000Y45500000D03*
%TD*%
D11*
%TO.C,R66*%
X47770000Y79730000D03*
X47770000Y81270000D03*
%TD*%
D12*
%TO.C,P6*%
X41290000Y41750000D03*
D13*
X38750000Y41750000D03*
X36210000Y41750000D03*
X33670000Y41750000D03*
%TD*%
D10*
%TO.C,R45*%
X1460000Y41000000D03*
X3000000Y41000000D03*
%TD*%
%TO.C,R42*%
X1480000Y80500000D03*
X3020000Y80500000D03*
%TD*%
%TO.C,R51*%
X14270000Y30250000D03*
X12730000Y30250000D03*
%TD*%
%TO.C,R70*%
X14270000Y22250000D03*
X12730000Y22250000D03*
%TD*%
%TO.C,R34*%
X48460000Y19250000D03*
X50000000Y19250000D03*
%TD*%
%TO.C,R30*%
X14270000Y47000000D03*
X12730000Y47000000D03*
%TD*%
D11*
%TO.C,C13*%
X49750000Y81270000D03*
X49750000Y79730000D03*
%TD*%
%TO.C,R23*%
X26270000Y1480000D03*
X26270000Y3020000D03*
%TD*%
D10*
%TO.C,C27*%
X21950000Y67250000D03*
X23490000Y67250000D03*
%TD*%
%TO.C,R47*%
X14270000Y65750000D03*
X12730000Y65750000D03*
%TD*%
D11*
%TO.C,R25*%
X38040000Y1480000D03*
X38040000Y3020000D03*
%TD*%
D27*
%TO.C,J8*%
X54125000Y76750000D03*
X54125000Y78750000D03*
X54125000Y80750000D03*
D28*
X56375000Y83250000D03*
X56375000Y74250000D03*
%TD*%
D11*
%TO.C,C22*%
X29500000Y85980000D03*
X29500000Y87520000D03*
%TD*%
D10*
%TO.C,C26*%
X23520000Y56750000D03*
X21980000Y56750000D03*
%TD*%
%TO.C,R10*%
X12980000Y84500000D03*
X14520000Y84500000D03*
%TD*%
D11*
%TO.C,R16*%
X25833333Y17270000D03*
X25833333Y15730000D03*
%TD*%
%TO.C,R72*%
X19500000Y88020000D03*
X19500000Y86480000D03*
%TD*%
M02*
