M48
; DRILL file {KiCad 8.0.2} date 2025-05-12T10:49:51+0800
; FORMAT={-:-/ absolute / metric / decimal}
; #@! TF.CreationDate,2025-05-12T10:49:51+08:00
; #@! TF.GenerationSoftware,Kicad,Pcbnew,8.0.2
; #@! TF.FileFunction,Plated,1,2,PTH
FMAT,2
METRIC
; #@! TA.AperFunction,Plated,PTH,ViaDrill
T1C0.300
; #@! TA.AperFunction,Plated,PTH,ComponentDrill
T2C1.200
%
G90
G05
T1
X4.0Y15.0
X4.0Y13.0
X5.0Y14.0
X6.0Y15.0
X6.0Y13.0
X8.0Y95.0
X8.0Y93.0
X8.0Y36.0
X8.0Y34.0
X9.0Y94.0
X9.0Y35.0
X10.0Y95.0
X10.0Y93.0
X10.0Y56.0
X10.0Y54.0
X10.0Y36.0
X10.0Y34.0
X11.0Y55.0
X12.0Y73.0
X12.0Y71.0
X12.0Y56.0
X12.0Y54.0
X12.0Y18.4
X13.0Y98.0
X13.0Y96.0
X13.0Y72.0
X13.75Y50.75
X14.0Y97.0
X14.0Y73.0
X14.0Y71.0
X14.0Y36.0
X14.0Y34.0
X14.75Y50.75
X15.0Y98.0
X15.0Y96.0
X15.0Y35.0
X15.75Y50.75
X16.0Y36.0
X16.0Y34.0
X16.0Y19.0
X16.0Y17.0
X16.0Y6.0
X16.0Y4.0
X17.0Y18.0
X17.0Y5.0
X18.0Y19.0
X18.0Y17.0
X18.0Y6.0
X18.0Y4.0
X18.5Y67.0
X18.5Y44.5
X19.25Y66.25
X19.5Y45.75
X19.75Y59.25
X19.75Y58.0
X19.75Y56.75
X20.0Y65.25
X20.0Y64.0
X20.0Y62.75
X20.5Y44.5
X21.0Y89.0
X21.0Y87.0
X22.0Y92.25
X22.0Y90.5
X22.0Y85.0
X22.5Y54.5
X22.75Y52.0
X22.75Y50.0
X23.35Y85.0
X23.75Y54.5
X23.75Y51.0
X23.75Y16.5
X23.75Y7.25
X23.75Y3.5
X24.15Y85.0
X24.5Y77.75
X24.75Y52.0
X24.75Y50.0
X25.25Y92.0
X25.25Y90.5
X26.0Y86.0
X26.0Y84.0
X26.5Y89.25
X26.5Y87.0
X27.0Y68.0
X27.0Y56.6
X27.11Y66.0
X27.25Y59.25
X27.5Y91.0
X27.891Y61.33
X28.0Y84.0
X28.174Y66.65
X28.25Y58.75
X28.445Y60.4
X28.6Y61.7
X28.893Y67.0
X29.0Y15.0
X29.0Y13.0
X29.25Y81.0
X29.5Y58.75
X30.0Y14.0
X30.25Y59.5
X30.951Y55.6
X31.0Y81.0
X31.0Y15.0
X31.0Y13.0
X31.276Y62.924
X32.5Y47.75
X32.75Y61.75
X33.0Y81.0
X33.6Y69.8
X34.5Y49.75
X35.0Y81.0
X35.25Y16.5
X35.5Y94.0
X35.5Y7.25
X35.5Y3.5
X36.25Y64.5
X36.25Y62.75
X36.25Y51.5
X36.5Y96.5
X36.5Y95.0
X37.0Y81.0
X37.5Y53.25
X37.75Y92.75
X37.75Y69.25
X38.8Y54.8
X39.0Y80.0
X40.0Y83.0
X40.0Y69.0
X40.0Y16.0
X40.0Y14.0
X40.41Y64.95
X40.41Y64.15
X40.5Y70.0
X40.5Y48.0
X41.0Y78.0
X41.0Y69.0
X41.0Y15.0
X41.75Y49.0
X41.75Y47.0
X42.0Y81.0
X42.0Y16.0
X42.0Y14.0
X44.0Y79.0
X44.0Y75.75
X46.0Y77.0
X47.0Y99.0
X47.0Y97.0
X47.0Y16.5
X47.0Y7.25
X47.0Y3.5
X47.25Y93.75
X48.0Y98.0
X49.0Y99.0
X49.0Y97.0
X49.25Y86.75
X50.75Y17.5
X50.75Y15.5
X51.0Y99.0
X51.0Y97.0
X51.0Y89.25
X51.0Y88.0
X51.0Y86.75
X51.0Y78.75
X51.0Y67.0
X51.75Y16.5
X52.0Y98.0
X52.5Y59.0
X52.5Y57.0
X52.5Y52.5
X52.5Y50.5
X52.5Y46.0
X52.5Y44.0
X52.5Y30.5
X52.5Y28.5
X52.75Y17.5
X52.75Y15.5
X53.0Y99.0
X53.0Y97.0
X53.5Y58.0
X53.5Y51.5
X53.5Y45.0
X53.5Y29.5
X54.0Y75.0
X54.0Y71.0
X54.0Y25.5
X54.5Y59.0
X54.5Y57.0
X54.5Y52.5
X54.5Y50.5
X54.5Y46.0
X54.5Y44.0
X54.5Y30.5
X54.5Y28.5
X55.0Y83.0
X55.0Y63.0
X55.0Y38.5
X59.0Y60.6
X59.0Y59.6
X59.0Y58.6
X59.0Y57.6
T2
X19.75Y82.75
X19.75Y80.21
X23.23Y45.5
X25.77Y45.5
X33.67Y41.75
X34.0Y24.5
X36.21Y41.75
X36.54Y24.5
X38.75Y41.75
X39.08Y24.5
X41.29Y41.75
X41.62Y24.5
M30
